%FSLAX42Y42*%
%MOMM*%
G71*
G01*
G75*
G04 Layer_Physical_Order=1*
G04 Layer_Color=255*
%ADD10R,0.60X1.30*%
%ADD11O,0.70X2.50*%
%ADD12O,2.20X0.60*%
%ADD13O,0.60X2.20*%
%ADD14O,2.50X0.70*%
%ADD15R,1.30X0.60*%
%ADD16R,1.15X0.60*%
%ADD17R,0.80X2.30*%
%ADD18R,1.20X1.40*%
%ADD19R,1.40X1.20*%
%ADD20R,1.60X3.00*%
%ADD21R,3.00X1.60*%
%ADD22C,0.50*%
%ADD23C,0.30*%
%ADD24C,0.70*%
%ADD25C,0.25*%
%ADD26C,1.00*%
%ADD27C,0.60*%
%ADD28C,0.40*%
%ADD29C,1.52*%
%ADD30C,1.90*%
%ADD31R,1.57X1.57*%
%ADD32C,1.57*%
%ADD33O,2.50X2.00*%
%ADD34C,1.00*%
%ADD35C,4.00*%
%LPD*%
G36*
X11464Y2036D02*
X1536D01*
Y6964D01*
X11464D01*
Y2036D01*
D02*
G37*
%LPC*%
G36*
X5439Y4046D02*
X5356D01*
Y3974D01*
X5439D01*
Y4046D01*
D02*
G37*
G36*
X7709Y4003D02*
X7632D01*
Y3960D01*
X7709D01*
Y4003D01*
D02*
G37*
G36*
X5547Y4046D02*
X5464D01*
Y3974D01*
X5547D01*
Y4046D01*
D02*
G37*
G36*
X10061Y4177D02*
X10008D01*
Y4049D01*
X10061D01*
Y4177D01*
D02*
G37*
G36*
X6659Y4248D02*
X6489D01*
Y4160D01*
X6338Y4009D01*
X6327Y3992D01*
X6323Y3973D01*
Y3948D01*
X6299D01*
Y3860D01*
X6258Y3819D01*
X6247Y3802D01*
X6243Y3783D01*
Y3738D01*
X6209D01*
Y3714D01*
X6109D01*
X6089Y3710D01*
X6073Y3699D01*
X5982Y3608D01*
X5929D01*
Y3518D01*
X5986D01*
X5989Y3515D01*
X6009Y3512D01*
X6029Y3515D01*
X6032Y3518D01*
X6089D01*
Y3571D01*
X6130Y3612D01*
X6209D01*
Y3588D01*
X6379D01*
Y3738D01*
X6345D01*
Y3762D01*
X6361Y3778D01*
X6449D01*
Y3948D01*
X6438D01*
X6433Y3960D01*
X6571Y4098D01*
X6577D01*
X6608Y4067D01*
X6608Y4067D01*
X6608D01*
X6608Y4067D01*
X6608D01*
X6608Y4067D01*
Y4067D01*
Y4067D01*
D01*
D01*
X6608D01*
Y4067D01*
X6624Y4055D01*
X6644Y4052D01*
X6709D01*
Y4018D01*
X6859D01*
Y4188D01*
X6709D01*
Y4154D01*
X6665D01*
X6659Y4160D01*
Y4248D01*
D02*
G37*
G36*
X7606Y4003D02*
X7529D01*
Y3960D01*
X7606D01*
Y4003D01*
D02*
G37*
G36*
X9418Y4460D02*
X9247D01*
Y4310D01*
X9272D01*
X9277Y4298D01*
X9243Y4264D01*
X9232Y4247D01*
X9228Y4228D01*
Y4045D01*
X9189D01*
X9169Y4041D01*
X9153Y4030D01*
X9142Y4013D01*
X9138Y3993D01*
X9142Y3974D01*
X9153Y3957D01*
X9169Y3946D01*
X9189Y3942D01*
X9369D01*
X9389Y3946D01*
X9405Y3957D01*
X9416Y3974D01*
X9420Y3993D01*
X9416Y4013D01*
X9405Y4030D01*
X9389Y4041D01*
X9369Y4045D01*
X9330D01*
Y4128D01*
X9341Y4129D01*
X9357Y4136D01*
X9370Y4146D01*
X9381Y4160D01*
X9387Y4176D01*
X9390Y4193D01*
X9387Y4210D01*
X9381Y4226D01*
X9370Y4239D01*
X9370Y4246D01*
X9405Y4282D01*
X9416Y4298D01*
X9420Y4318D01*
X9418Y4330D01*
Y4460D01*
D02*
G37*
G36*
X7039Y4188D02*
X6889D01*
Y4018D01*
X6913D01*
Y3954D01*
X6881Y3922D01*
X6869Y3927D01*
Y3938D01*
X6699D01*
Y3914D01*
X6629D01*
Y3948D01*
X6479D01*
Y3856D01*
X6477Y3853D01*
X6477Y3852D01*
X6473Y3833D01*
Y3738D01*
X6439D01*
Y3588D01*
X6609D01*
Y3738D01*
X6575D01*
Y3778D01*
X6629D01*
Y3812D01*
X6699D01*
Y3788D01*
X6869D01*
Y3799D01*
X6881Y3803D01*
X6953Y3732D01*
Y2963D01*
X6953Y2963D01*
X6953D01*
X6957Y2943D01*
X6968Y2927D01*
X7028Y2867D01*
X7038Y2860D01*
X7044Y2855D01*
X7064Y2852D01*
X7858D01*
X7878Y2855D01*
X7895Y2867D01*
X7895Y2867D01*
X7895Y2867D01*
X8140Y3112D01*
X8151Y3129D01*
X8155Y3148D01*
X8155Y3148D01*
X8155Y3148D01*
Y3148D01*
Y3452D01*
X8392Y3688D01*
X8879D01*
X8899Y3692D01*
X8915Y3703D01*
X8926Y3720D01*
X8930Y3739D01*
X8926Y3759D01*
X8915Y3776D01*
X8899Y3787D01*
X8879Y3791D01*
X8370D01*
X8351Y3787D01*
X8344Y3782D01*
X8334Y3776D01*
X8068Y3509D01*
X8057Y3492D01*
X8053Y3473D01*
Y3169D01*
X7837Y2954D01*
X7085D01*
X7055Y2984D01*
Y3753D01*
X7051Y3772D01*
X7047Y3779D01*
X7040Y3789D01*
X6973Y3856D01*
Y3869D01*
X7000Y3897D01*
X7011Y3913D01*
X7011Y3913D01*
X7011Y3913D01*
X7015Y3933D01*
Y4018D01*
X7039D01*
Y4188D01*
D02*
G37*
G36*
X2623Y4020D02*
X2540D01*
Y3948D01*
X2623D01*
Y4020D01*
D02*
G37*
G36*
X3897Y4028D02*
X3814D01*
Y3955D01*
X3897D01*
Y4028D01*
D02*
G37*
G36*
X8569Y4048D02*
X8399D01*
Y3960D01*
X8393Y3954D01*
X8319D01*
Y3988D01*
X8169D01*
Y3818D01*
X8319D01*
Y3852D01*
X8414D01*
X8434Y3855D01*
X8450Y3867D01*
X8478Y3894D01*
X8490D01*
X8554Y3830D01*
X8571Y3819D01*
X8571Y3819D01*
X8571Y3819D01*
D01*
X8571Y3819D01*
X8571Y3819D01*
X8590Y3815D01*
X8879D01*
X8899Y3819D01*
X8915Y3830D01*
X8926Y3847D01*
X8930Y3866D01*
X8926Y3886D01*
X8915Y3903D01*
X8899Y3914D01*
X8879Y3918D01*
X8612D01*
X8569Y3960D01*
Y4048D01*
D02*
G37*
G36*
X7277Y4304D02*
X7270Y4303D01*
X7252Y4296D01*
X7236Y4284D01*
X7224Y4268D01*
X7217Y4250D01*
X7216Y4243D01*
X7277D01*
Y4304D01*
D02*
G37*
G36*
X4905Y4290D02*
X4822D01*
Y4217D01*
X4905D01*
Y4290D01*
D02*
G37*
G36*
X7303Y4304D02*
Y4243D01*
X7364D01*
X7363Y4250D01*
X7356Y4268D01*
X7344Y4284D01*
X7328Y4296D01*
X7310Y4303D01*
X7303Y4304D01*
D02*
G37*
G36*
X3744Y4368D02*
X3661D01*
Y4296D01*
X3744D01*
Y4368D01*
D02*
G37*
G36*
X6744Y4918D02*
X6654D01*
Y4861D01*
X6652Y4857D01*
X6648Y4838D01*
X6652Y4818D01*
X6654Y4815D01*
Y4758D01*
X6703D01*
Y4698D01*
X6679D01*
Y4610D01*
X6538Y4469D01*
X6527Y4452D01*
X6523Y4433D01*
Y4428D01*
X6489D01*
Y4278D01*
X6659D01*
Y4428D01*
X6658D01*
X6653Y4440D01*
X6741Y4528D01*
X6829D01*
Y4698D01*
X6805D01*
Y4783D01*
X6801Y4802D01*
X6790Y4819D01*
X6744Y4865D01*
Y4918D01*
D02*
G37*
G36*
X3744Y4270D02*
X3661D01*
Y4197D01*
X3744D01*
Y4270D01*
D02*
G37*
G36*
X5547Y4145D02*
X5464D01*
Y4072D01*
X5547D01*
Y4145D01*
D02*
G37*
G36*
X10139Y4177D02*
X10087D01*
Y4049D01*
X10139D01*
Y4177D01*
D02*
G37*
G36*
X7699Y4438D02*
X7549D01*
Y4268D01*
X7573D01*
Y4183D01*
X7539D01*
Y4093D01*
X7619D01*
X7624Y4092D01*
X7629Y4093D01*
X7699D01*
Y4183D01*
X7675D01*
Y4268D01*
X7699D01*
Y4438D01*
D02*
G37*
G36*
X7364Y4217D02*
X7303D01*
Y4156D01*
X7310Y4157D01*
X7328Y4164D01*
X7344Y4176D01*
X7356Y4192D01*
X7363Y4210D01*
X7364Y4217D01*
D02*
G37*
G36*
X7277D02*
X7216D01*
X7217Y4210D01*
X7224Y4192D01*
X7236Y4176D01*
X7252Y4164D01*
X7270Y4157D01*
X7277Y4156D01*
Y4217D01*
D02*
G37*
G36*
X3323Y3720D02*
X3240D01*
Y3647D01*
X3323D01*
Y3720D01*
D02*
G37*
G36*
X3215D02*
X3132D01*
Y3647D01*
X3215D01*
Y3720D01*
D02*
G37*
G36*
X5419Y3746D02*
X5346D01*
Y3663D01*
X5419D01*
Y3746D01*
D02*
G37*
G36*
X6771Y3768D02*
X6689D01*
Y3696D01*
X6771D01*
Y3768D01*
D02*
G37*
G36*
X5517Y3746D02*
X5444D01*
Y3663D01*
X5517D01*
Y3746D01*
D02*
G37*
G36*
X2947Y3640D02*
Y3640D01*
X2942Y3640D01*
X2940D01*
X2938D01*
X2933Y3640D01*
X2933Y3640D01*
Y3640D01*
X2852D01*
X2852Y3640D01*
Y3640D01*
X2847Y3640D01*
X2845D01*
X2843D01*
X2838Y3640D01*
X2838Y3640D01*
Y3640D01*
X2752D01*
Y3480D01*
X2838D01*
X2838Y3480D01*
Y3480D01*
X2843Y3480D01*
X2847D01*
Y3480D01*
X2848Y3480D01*
Y3342D01*
X2840Y3335D01*
X2825Y3316D01*
X2816Y3294D01*
X2813Y3270D01*
X2816Y3246D01*
X2825Y3224D01*
X2840Y3205D01*
X2859Y3190D01*
X2881Y3181D01*
X2905Y3178D01*
X2929Y3181D01*
X2951Y3190D01*
X2970Y3205D01*
X2985Y3224D01*
X2994Y3246D01*
X2997Y3270D01*
X2994Y3294D01*
X2985Y3316D01*
X2970Y3335D01*
X2951Y3350D01*
X2941Y3354D01*
Y3478D01*
X2942Y3480D01*
X2950Y3480D01*
X2950Y3480D01*
Y3480D01*
X3033D01*
Y3640D01*
X2947D01*
X2947Y3640D01*
D02*
G37*
G36*
X9266Y3674D02*
X9189D01*
X9165Y3669D01*
X9145Y3656D01*
X9132Y3636D01*
X9130Y3625D01*
X9266D01*
Y3674D01*
D02*
G37*
G36*
X6879Y3670D02*
X6797D01*
Y3597D01*
X6879D01*
Y3670D01*
D02*
G37*
G36*
X9369Y3674D02*
X9292D01*
Y3625D01*
X9428D01*
X9426Y3636D01*
X9412Y3656D01*
X9392Y3669D01*
X9369Y3674D01*
D02*
G37*
G36*
X3687Y3697D02*
Y3635D01*
X3748D01*
X3747Y3642D01*
X3740Y3661D01*
X3728Y3677D01*
X3712Y3689D01*
X3694Y3696D01*
X3687Y3697D01*
D02*
G37*
G36*
X3661D02*
X3654Y3696D01*
X3636Y3689D01*
X3620Y3677D01*
X3608Y3661D01*
X3600Y3642D01*
X3600Y3635D01*
X3661D01*
Y3697D01*
D02*
G37*
G36*
X4005Y3930D02*
X3922D01*
Y3857D01*
X4005D01*
Y3930D01*
D02*
G37*
G36*
X3897D02*
X3814D01*
Y3857D01*
X3897D01*
Y3930D01*
D02*
G37*
G36*
X7606Y3935D02*
X7529D01*
Y3892D01*
X7606D01*
Y3935D01*
D02*
G37*
G36*
X10139Y4024D02*
X10087D01*
Y3896D01*
X10139D01*
Y4024D01*
D02*
G37*
G36*
X10061D02*
X10008D01*
Y3896D01*
X10061D01*
Y4024D01*
D02*
G37*
G36*
X2623Y3922D02*
X2540D01*
Y3850D01*
X2623D01*
Y3922D01*
D02*
G37*
G36*
X2222Y3918D02*
X2199Y3915D01*
X2176Y3906D01*
X2157Y3891D01*
X2143Y3872D01*
X2133Y3850D01*
X2130Y3826D01*
X2133Y3802D01*
X2143Y3780D01*
X2157Y3761D01*
X2176Y3746D01*
X2199Y3737D01*
X2222Y3734D01*
X2246Y3737D01*
X2269Y3746D01*
X2288Y3761D01*
X2302Y3780D01*
X2312Y3802D01*
X2315Y3826D01*
X2312Y3850D01*
X2302Y3872D01*
X2288Y3891D01*
X2269Y3906D01*
X2246Y3915D01*
X2222Y3918D01*
D02*
G37*
G36*
X6879Y3768D02*
X6797D01*
Y3696D01*
X6879D01*
Y3768D01*
D02*
G37*
G36*
X3215Y3818D02*
X3132D01*
Y3745D01*
X3215D01*
Y3818D01*
D02*
G37*
G36*
X5287Y3954D02*
X5116D01*
Y3866D01*
X5071Y3821D01*
X5031D01*
X5029Y3823D01*
X5011Y3826D01*
X4851D01*
X4834Y3823D01*
X4819Y3813D01*
X4809Y3798D01*
X4805Y3780D01*
X4809Y3763D01*
X4819Y3748D01*
X4834Y3738D01*
X4851Y3734D01*
X5011D01*
X5029Y3738D01*
X5031Y3739D01*
X5073D01*
X5083Y3733D01*
X5102Y3729D01*
X5122Y3733D01*
X5139Y3744D01*
X5199Y3804D01*
X5287D01*
Y3828D01*
X5366D01*
Y3804D01*
X5537D01*
Y3954D01*
X5366D01*
Y3930D01*
X5287D01*
Y3954D01*
D02*
G37*
G36*
X3323Y3818D02*
X3240D01*
Y3745D01*
X3323D01*
Y3818D01*
D02*
G37*
G36*
X4321Y5008D02*
X4161D01*
X4143Y5005D01*
X4128Y4995D01*
X4118Y4980D01*
X4115Y4962D01*
X4118Y4945D01*
X4128Y4930D01*
X4143Y4920D01*
X4161Y4916D01*
X4321D01*
X4339Y4920D01*
X4354Y4930D01*
X4355Y4931D01*
X4374D01*
X4396Y4910D01*
Y4806D01*
X4323Y4733D01*
X4313Y4736D01*
X4296Y4739D01*
X4279Y4736D01*
X4263Y4730D01*
X4250Y4719D01*
X4239Y4706D01*
X4233Y4690D01*
X4231Y4673D01*
X4233Y4656D01*
X4239Y4640D01*
X4250Y4626D01*
X4263Y4616D01*
X4279Y4609D01*
X4296Y4607D01*
X4313Y4609D01*
X4329Y4616D01*
X4343Y4626D01*
X4353Y4640D01*
X4360Y4656D01*
X4362Y4673D01*
X4361Y4684D01*
X4448Y4771D01*
X4455Y4781D01*
X4457Y4793D01*
X4457Y4793D01*
Y4923D01*
X4457Y4923D01*
X4455Y4935D01*
X4448Y4945D01*
X4448Y4945D01*
X4409Y4984D01*
X4399Y4991D01*
X4387Y4993D01*
X4387Y4993D01*
X4355D01*
X4354Y4995D01*
X4339Y5005D01*
X4321Y5008D01*
D02*
G37*
G36*
X11091Y4886D02*
X11066Y4883D01*
X11043Y4873D01*
X11024Y4858D01*
X11009Y4839D01*
X10999Y4816D01*
X10996Y4791D01*
X10999Y4767D01*
X11009Y4744D01*
X11024Y4724D01*
X11043Y4709D01*
X11066Y4700D01*
X11091Y4697D01*
X11115Y4700D01*
X11138Y4709D01*
X11158Y4724D01*
X11173Y4744D01*
X11182Y4767D01*
X11186Y4791D01*
X11182Y4816D01*
X11173Y4839D01*
X11158Y4858D01*
X11138Y4873D01*
X11115Y4883D01*
X11091Y4886D01*
D02*
G37*
G36*
X2641Y4870D02*
X2592D01*
Y4793D01*
X2597Y4769D01*
X2610Y4749D01*
X2630Y4736D01*
X2641Y4734D01*
Y4870D01*
D02*
G37*
G36*
X2895D02*
X2846D01*
Y4793D01*
X2851Y4769D01*
X2864Y4749D01*
X2884Y4736D01*
X2895Y4734D01*
Y4870D01*
D02*
G37*
G36*
X2715D02*
X2667D01*
Y4734D01*
X2677Y4736D01*
X2697Y4749D01*
X2711Y4769D01*
X2715Y4793D01*
Y4870D01*
D02*
G37*
G36*
X10837Y4886D02*
X10812Y4883D01*
X10789Y4873D01*
X10770Y4858D01*
X10755Y4839D01*
X10745Y4816D01*
X10742Y4791D01*
X10745Y4767D01*
X10755Y4744D01*
X10770Y4724D01*
X10789Y4709D01*
X10812Y4700D01*
X10837Y4697D01*
X10861Y4700D01*
X10884Y4709D01*
X10904Y4724D01*
X10919Y4744D01*
X10928Y4767D01*
X10932Y4791D01*
X10928Y4816D01*
X10919Y4839D01*
X10904Y4858D01*
X10884Y4873D01*
X10861Y4883D01*
X10837Y4886D01*
D02*
G37*
G36*
X7019Y4708D02*
X6947D01*
Y4626D01*
X7019D01*
Y4708D01*
D02*
G37*
G36*
X6921D02*
X6849D01*
Y4626D01*
X6921D01*
Y4708D01*
D02*
G37*
G36*
X5799Y5048D02*
X5709D01*
Y4991D01*
X5707Y4987D01*
X5703Y4968D01*
Y4813D01*
X5707Y4793D01*
X5718Y4777D01*
X5833Y4662D01*
Y4313D01*
X5833Y4313D01*
X5833D01*
X5837Y4293D01*
X5848Y4277D01*
X5999Y4126D01*
Y4038D01*
X6149D01*
Y4208D01*
X6061D01*
X5935Y4334D01*
Y4642D01*
X5959D01*
Y4628D01*
X6129D01*
Y4778D01*
X5959D01*
Y4744D01*
X5895D01*
X5805Y4834D01*
Y4968D01*
X5801Y4987D01*
X5799Y4991D01*
Y5048D01*
D02*
G37*
G36*
X2240Y4722D02*
X2170D01*
Y4680D01*
X2240D01*
Y4722D01*
D02*
G37*
G36*
X2145D02*
X2075D01*
Y4680D01*
X2145D01*
Y4722D01*
D02*
G37*
G36*
X7189Y4850D02*
X7107D01*
Y4777D01*
X7189D01*
Y4850D01*
D02*
G37*
G36*
X7081D02*
X6999D01*
Y4777D01*
X7081D01*
Y4850D01*
D02*
G37*
G36*
X4046Y4928D02*
X3876D01*
Y4904D01*
X3806D01*
X3787Y4900D01*
X3770Y4889D01*
X3191Y4310D01*
X3180Y4294D01*
X3176Y4274D01*
Y4031D01*
X3167Y4024D01*
X3052D01*
X3051Y4027D01*
X3045Y4043D01*
X3034Y4057D01*
X3021Y4067D01*
X3005Y4074D01*
X2988Y4076D01*
X2971Y4074D01*
X2955Y4067D01*
X2941Y4057D01*
X2931Y4043D01*
X2924Y4027D01*
X2924Y4024D01*
X2846D01*
Y4055D01*
X2842Y4075D01*
X2831Y4091D01*
X2745Y4177D01*
Y4265D01*
X2595D01*
Y4095D01*
X2683D01*
X2744Y4034D01*
Y3972D01*
X2748Y3953D01*
X2759Y3936D01*
X2759Y3936D01*
Y3880D01*
X2752D01*
Y3720D01*
X2837D01*
Y3710D01*
X2880D01*
Y3800D01*
X2905D01*
Y3710D01*
X2948D01*
Y3720D01*
X3033D01*
Y3880D01*
X3023D01*
Y3921D01*
X3142D01*
Y3837D01*
X3313D01*
Y3988D01*
X3279D01*
Y4253D01*
X3828Y4802D01*
X3876D01*
Y4778D01*
X4046D01*
Y4784D01*
X4241D01*
X4261Y4788D01*
X4262Y4789D01*
X4321D01*
X4339Y4793D01*
X4354Y4803D01*
X4364Y4818D01*
X4367Y4835D01*
X4364Y4853D01*
X4354Y4868D01*
X4339Y4878D01*
X4321Y4881D01*
X4262D01*
X4261Y4883D01*
X4241Y4886D01*
X4046D01*
Y4928D01*
D02*
G37*
G36*
X7699Y4875D02*
X7622D01*
Y4832D01*
X7699D01*
Y4875D01*
D02*
G37*
G36*
X7596D02*
X7518D01*
Y4832D01*
X7596D01*
Y4875D01*
D02*
G37*
G36*
X9550Y4930D02*
X9400D01*
Y4779D01*
X9388Y4774D01*
X9370Y4792D01*
Y4930D01*
X9220D01*
Y4760D01*
X9323D01*
X9420Y4662D01*
X9416Y4650D01*
X9345D01*
Y4565D01*
Y4480D01*
X9425D01*
X9425Y4480D01*
Y4480D01*
X9428Y4480D01*
X9434Y4473D01*
Y3917D01*
X9418Y3901D01*
X9406Y3902D01*
X9405Y3903D01*
X9389Y3914D01*
X9369Y3918D01*
X9127D01*
X9108Y3914D01*
X9091Y3903D01*
X9018Y3829D01*
X9007Y3812D01*
X9003Y3793D01*
Y3355D01*
X8977D01*
Y3185D01*
X9128D01*
Y3355D01*
X9105D01*
Y3772D01*
X9149Y3815D01*
X9369D01*
X9389Y3819D01*
X9405Y3830D01*
X9410Y3838D01*
X9424D01*
X9435Y3840D01*
X9444Y3846D01*
X9444Y3846D01*
X9444Y3846D01*
X9482Y3885D01*
X9482Y3885D01*
X9482Y3885D01*
X9489Y3894D01*
X9491Y3905D01*
Y4225D01*
X9503Y4229D01*
X9508Y4221D01*
X9511Y4218D01*
X9521Y4212D01*
X9532Y4209D01*
X9532Y4209D01*
X9577D01*
Y4165D01*
X9636D01*
Y3908D01*
X9519Y3791D01*
X9189D01*
X9169Y3787D01*
X9153Y3776D01*
X9142Y3759D01*
X9138Y3739D01*
X9142Y3720D01*
X9153Y3703D01*
X9169Y3692D01*
X9189Y3688D01*
X9540D01*
X9560Y3692D01*
X9577Y3703D01*
X9577Y3703D01*
X9577Y3703D01*
X9724Y3850D01*
X9735Y3867D01*
X9739Y3886D01*
X9739Y3886D01*
X9739Y3886D01*
Y3886D01*
Y4165D01*
X9748D01*
Y4315D01*
X9577D01*
Y4271D01*
X9561D01*
Y4722D01*
X9558Y4734D01*
X9552Y4744D01*
X9552Y4744D01*
X9546Y4750D01*
X9550Y4760D01*
X9550D01*
X9550Y4760D01*
Y4930D01*
D02*
G37*
G36*
X6876Y4825D02*
X6833D01*
Y4747D01*
X6876D01*
Y4825D01*
D02*
G37*
G36*
X2969Y4870D02*
X2921D01*
Y4734D01*
X2931Y4736D01*
X2951Y4749D01*
X2965Y4769D01*
X2969Y4793D01*
Y4870D01*
D02*
G37*
G36*
X6944Y4825D02*
X6902D01*
Y4747D01*
X6944D01*
Y4825D01*
D02*
G37*
G36*
X2240Y4790D02*
X2170D01*
Y4748D01*
X2240D01*
Y4790D01*
D02*
G37*
G36*
X2145D02*
X2075D01*
Y4748D01*
X2145D01*
Y4790D01*
D02*
G37*
G36*
X2223Y4460D02*
X2072D01*
Y4416D01*
X1991D01*
X1987Y4422D01*
X1973Y4432D01*
X1957Y4439D01*
X1940Y4441D01*
X1923Y4439D01*
X1907Y4432D01*
X1893Y4422D01*
X1883Y4408D01*
X1876Y4392D01*
X1874Y4375D01*
X1876Y4358D01*
X1883Y4342D01*
X1893Y4328D01*
X1907Y4318D01*
X1923Y4311D01*
X1940Y4309D01*
X1957Y4311D01*
X1973Y4318D01*
X1987Y4328D01*
X1991Y4334D01*
X2072D01*
Y4290D01*
X2223D01*
Y4460D01*
D02*
G37*
G36*
X5562Y4490D02*
X5489D01*
Y4407D01*
X5562D01*
Y4490D01*
D02*
G37*
G36*
X10837Y4632D02*
X10812Y4629D01*
X10789Y4619D01*
X10770Y4604D01*
X10755Y4585D01*
X10745Y4562D01*
X10742Y4537D01*
X10745Y4513D01*
X10755Y4490D01*
X10770Y4470D01*
X10789Y4455D01*
X10812Y4446D01*
X10837Y4443D01*
X10861Y4446D01*
X10884Y4455D01*
X10904Y4470D01*
X10919Y4490D01*
X10928Y4513D01*
X10932Y4537D01*
X10928Y4562D01*
X10919Y4585D01*
X10904Y4604D01*
X10884Y4619D01*
X10861Y4629D01*
X10837Y4632D01*
D02*
G37*
G36*
X6129Y4598D02*
X5959D01*
Y4448D01*
X6129D01*
Y4472D01*
X6203D01*
X6211Y4466D01*
X6227Y4459D01*
X6244Y4457D01*
X6261Y4459D01*
X6277Y4466D01*
X6290Y4476D01*
X6301Y4490D01*
X6307Y4506D01*
X6310Y4523D01*
X6307Y4540D01*
X6301Y4556D01*
X6290Y4569D01*
X6277Y4580D01*
X6261Y4586D01*
X6244Y4589D01*
X6227Y4586D01*
X6211Y4580D01*
X6203Y4574D01*
X6129D01*
Y4598D01*
D02*
G37*
G36*
X11185Y4631D02*
X10997D01*
Y4443D01*
X11185D01*
Y4631D01*
D02*
G37*
G36*
X5464Y4490D02*
X5391D01*
Y4407D01*
X5464D01*
Y4490D01*
D02*
G37*
G36*
X5491Y4354D02*
X5474Y4351D01*
X5458Y4345D01*
X5445Y4334D01*
X5434Y4321D01*
X5434Y4319D01*
X5422Y4321D01*
X5407Y4318D01*
X5393Y4309D01*
X5219Y4134D01*
X5116D01*
Y4100D01*
X4990D01*
X4974Y4097D01*
X4961Y4088D01*
X4902Y4030D01*
X4893Y4016D01*
X4890Y4001D01*
Y3953D01*
X4851D01*
X4834Y3950D01*
X4819Y3940D01*
X4809Y3925D01*
X4805Y3907D01*
X4809Y3890D01*
X4819Y3875D01*
X4834Y3865D01*
X4851Y3861D01*
X5011D01*
X5029Y3865D01*
X5044Y3875D01*
X5054Y3890D01*
X5057Y3907D01*
X5054Y3925D01*
X5044Y3940D01*
X5029Y3950D01*
X5011Y3953D01*
X4972D01*
Y3984D01*
X5007Y4018D01*
X5116D01*
Y3984D01*
X5287D01*
Y4086D01*
X5344Y4144D01*
X5350Y4142D01*
X5350Y4142D01*
X5356Y4139D01*
Y4072D01*
X5439D01*
Y4145D01*
X5361D01*
X5359Y4151D01*
X5359Y4151D01*
X5356Y4156D01*
X5442Y4241D01*
X5445Y4241D01*
X5458Y4231D01*
X5474Y4224D01*
X5491Y4222D01*
X5508Y4224D01*
X5524Y4231D01*
X5538Y4241D01*
X5548Y4255D01*
X5555Y4271D01*
X5557Y4288D01*
X5555Y4305D01*
X5548Y4321D01*
X5538Y4334D01*
X5524Y4345D01*
X5508Y4351D01*
X5491Y4354D01*
D02*
G37*
G36*
X4905Y4388D02*
X4822D01*
Y4315D01*
X4905D01*
Y4388D01*
D02*
G37*
G36*
X8889Y4608D02*
X8739D01*
Y4438D01*
X8764D01*
X8767Y4423D01*
X8778Y4407D01*
X8824Y4360D01*
X8820Y4348D01*
X8679D01*
Y4347D01*
X8667Y4342D01*
X8580Y4429D01*
X8564Y4440D01*
X8544Y4444D01*
X8429D01*
Y4468D01*
X8259D01*
Y4380D01*
X8213Y4334D01*
X8094D01*
X8074Y4330D01*
X8058Y4319D01*
X8018Y4279D01*
X8007Y4262D01*
X8003Y4243D01*
Y4218D01*
X7979D01*
Y4048D01*
X8003D01*
Y3988D01*
X7989D01*
Y3950D01*
X7988Y3949D01*
X7837Y3798D01*
X7802D01*
X7798Y3810D01*
X7815Y3821D01*
X7865Y3872D01*
X7876Y3888D01*
X7880Y3908D01*
X7880Y3908D01*
X7880Y3908D01*
Y3908D01*
Y3998D01*
X7909D01*
Y4088D01*
X7852D01*
X7849Y4090D01*
X7829Y4094D01*
X7809Y4090D01*
X7806Y4088D01*
X7749D01*
Y3998D01*
X7778D01*
Y3929D01*
X7757Y3909D01*
X7709D01*
Y3935D01*
X7632D01*
Y3888D01*
X7635Y3881D01*
X7608Y3854D01*
X7597Y3837D01*
X7597Y3837D01*
Y3837D01*
X7594Y3830D01*
X7574Y3834D01*
X7499D01*
Y3868D01*
X7349D01*
Y3698D01*
X7499D01*
Y3732D01*
X7553D01*
X7569Y3716D01*
Y3628D01*
X7719D01*
Y3798D01*
D01*
Y3798D01*
X7727Y3806D01*
X7741D01*
X7749Y3798D01*
X7749Y3797D01*
X7749Y3797D01*
X7749D01*
Y3628D01*
X7899D01*
Y3716D01*
X8001Y3818D01*
X8139D01*
Y3988D01*
X8105D01*
Y4048D01*
X8129D01*
Y4218D01*
X8118D01*
X8117Y4221D01*
X8124Y4232D01*
X8234D01*
X8254Y4235D01*
X8270Y4247D01*
X8270Y4247D01*
X8270Y4247D01*
X8341Y4318D01*
X8429D01*
Y4342D01*
X8523D01*
X8638Y4227D01*
X8648Y4220D01*
X8654Y4215D01*
X8674Y4212D01*
X8679D01*
Y4178D01*
X8829D01*
Y4339D01*
X8841Y4343D01*
X8859Y4326D01*
Y4178D01*
X9009D01*
Y4348D01*
X8977D01*
X8970Y4359D01*
X8889Y4440D01*
Y4608D01*
D02*
G37*
G36*
X7819Y5034D02*
X7799Y5030D01*
X7796Y5028D01*
X7739D01*
Y4938D01*
X7768D01*
Y4698D01*
X7739D01*
Y4528D01*
X7768D01*
Y4438D01*
X7729D01*
Y4268D01*
X7879D01*
Y4356D01*
X7895Y4372D01*
X7959D01*
Y4348D01*
X8129D01*
Y4498D01*
X7959D01*
Y4474D01*
X7874D01*
X7870Y4477D01*
Y4528D01*
X7889D01*
Y4698D01*
X7870D01*
Y4938D01*
X7899D01*
Y5028D01*
X7842D01*
X7839Y5030D01*
X7819Y5034D01*
D02*
G37*
G36*
X8609Y6928D02*
X8459D01*
Y6758D01*
X8609D01*
Y6792D01*
X8943D01*
X9619Y6115D01*
Y4495D01*
X9577D01*
Y4345D01*
X9748D01*
Y4495D01*
X9721D01*
Y6137D01*
X9717Y6156D01*
X9706Y6173D01*
X9000Y6879D01*
X8984Y6890D01*
X8964Y6894D01*
X8609D01*
Y6928D01*
D02*
G37*
G36*
X10249Y4902D02*
X10099D01*
Y4731D01*
X10123D01*
Y4628D01*
Y4537D01*
X10019D01*
Y4276D01*
X10129D01*
Y4389D01*
X10210Y4470D01*
X10221Y4487D01*
X10225Y4506D01*
Y4576D01*
X10245D01*
X10251Y4568D01*
X10265Y4558D01*
X10280Y4551D01*
X10297Y4549D01*
X10315Y4551D01*
X10330Y4558D01*
X10344Y4568D01*
X10354Y4582D01*
X10361Y4598D01*
X10363Y4615D01*
X10361Y4632D01*
X10354Y4648D01*
X10344Y4662D01*
X10330Y4672D01*
X10315Y4679D01*
X10297Y4681D01*
X10282Y4679D01*
X10225D01*
Y4731D01*
X10249D01*
Y4902D01*
D02*
G37*
G36*
X7439Y4948D02*
X7269D01*
Y4798D01*
X7303D01*
Y4763D01*
X7307Y4743D01*
X7318Y4727D01*
X7362Y4683D01*
X7360Y4680D01*
X7358Y4663D01*
X7360Y4646D01*
X7367Y4630D01*
X7377Y4616D01*
X7391Y4606D01*
X7407Y4599D01*
X7424Y4597D01*
X7441Y4599D01*
X7444Y4600D01*
X7468Y4577D01*
X7478Y4570D01*
X7484Y4565D01*
X7504Y4562D01*
X7559D01*
Y4528D01*
X7709D01*
Y4698D01*
X7559D01*
Y4664D01*
X7525D01*
X7405Y4784D01*
Y4798D01*
X7439D01*
Y4948D01*
D02*
G37*
G36*
X9320Y4650D02*
X9237D01*
Y4578D01*
X9320D01*
Y4650D01*
D02*
G37*
G36*
X8429Y4898D02*
X8259D01*
Y4748D01*
X8293D01*
Y4648D01*
X8259D01*
Y4624D01*
X8129D01*
Y4678D01*
X7959D01*
Y4528D01*
X8051D01*
X8054Y4525D01*
X8074Y4522D01*
X8259D01*
Y4498D01*
X8429D01*
Y4648D01*
X8395D01*
Y4748D01*
X8429D01*
Y4898D01*
D02*
G37*
G36*
X4321Y5135D02*
X4161D01*
X4143Y5132D01*
X4128Y5122D01*
X4118Y5107D01*
X4115Y5089D01*
X4118Y5072D01*
X4128Y5057D01*
X4143Y5047D01*
X4161Y5043D01*
X4321D01*
X4339Y5047D01*
X4354Y5057D01*
X4355Y5058D01*
X4370D01*
X4516Y4913D01*
Y4741D01*
X4513Y4740D01*
X4500Y4729D01*
X4489Y4716D01*
X4483Y4700D01*
X4481Y4683D01*
X4483Y4666D01*
X4489Y4650D01*
X4500Y4636D01*
X4513Y4626D01*
X4529Y4619D01*
X4546Y4617D01*
X4563Y4619D01*
X4579Y4626D01*
X4593Y4636D01*
X4603Y4650D01*
X4610Y4666D01*
X4612Y4683D01*
X4610Y4700D01*
X4603Y4716D01*
X4593Y4729D01*
X4579Y4740D01*
X4577Y4741D01*
Y4926D01*
X4577Y4926D01*
X4575Y4935D01*
X4575Y4937D01*
X4568Y4947D01*
X4568Y4947D01*
X4405Y5111D01*
X4395Y5118D01*
X4383Y5120D01*
X4383Y5120D01*
X4355D01*
X4354Y5122D01*
X4339Y5132D01*
X4321Y5135D01*
D02*
G37*
G36*
X7019Y4600D02*
X6947D01*
Y4517D01*
X7019D01*
Y4600D01*
D02*
G37*
G36*
X9320Y4552D02*
X9237D01*
Y4480D01*
X9320D01*
Y4552D01*
D02*
G37*
G36*
X4801Y5389D02*
X4641D01*
X4623Y5386D01*
X4608Y5376D01*
X4598Y5361D01*
X4595Y5343D01*
X4598Y5326D01*
X4608Y5311D01*
X4623Y5301D01*
X4641Y5297D01*
X4801D01*
X4819Y5301D01*
X4834Y5311D01*
X4837Y5315D01*
X5084D01*
X5261Y5138D01*
Y4588D01*
X5221D01*
Y4511D01*
X5156D01*
X5146Y4509D01*
X5136Y4503D01*
X5066Y4433D01*
X5060Y4424D01*
X5058Y4413D01*
Y4215D01*
X5015Y4171D01*
X4896D01*
X4886Y4169D01*
X4876Y4163D01*
X4876Y4163D01*
X4740Y4026D01*
X4728Y4031D01*
Y4151D01*
X4726Y4162D01*
X4720Y4171D01*
X4705Y4186D01*
Y4217D01*
X4714D01*
Y4217D01*
X4797D01*
Y4303D01*
Y4388D01*
X4714D01*
Y4388D01*
X4714D01*
X4705Y4397D01*
Y4455D01*
X4724D01*
Y4408D01*
X4895D01*
Y4455D01*
X4976D01*
X4987Y4457D01*
X4996Y4463D01*
X4996Y4463D01*
X4996Y4463D01*
X5146Y4613D01*
X5146Y4613D01*
X5150Y4619D01*
X5153Y4622D01*
X5155Y4633D01*
X5155Y4633D01*
Y5113D01*
X5153Y5124D01*
X5146Y5133D01*
X5043Y5236D01*
X5034Y5242D01*
X5023Y5244D01*
X4837D01*
X4834Y5249D01*
X4819Y5259D01*
X4801Y5262D01*
X4641D01*
X4623Y5259D01*
X4608Y5249D01*
X4598Y5234D01*
X4595Y5216D01*
X4598Y5199D01*
X4608Y5184D01*
X4623Y5174D01*
X4641Y5170D01*
X4801D01*
X4819Y5174D01*
X4834Y5184D01*
X4837Y5188D01*
X5011D01*
X5098Y5101D01*
Y4645D01*
X4965Y4511D01*
X4895D01*
Y4558D01*
X4728D01*
X4725Y4566D01*
D01*
X4723Y4570D01*
X4738Y4585D01*
X4986D01*
X4997Y4587D01*
X5006Y4593D01*
X5006Y4593D01*
X5006Y4593D01*
X5056Y4643D01*
X5063Y4652D01*
X5065Y4663D01*
Y4773D01*
X5063Y4784D01*
X5056Y4793D01*
X4867Y4982D01*
X4858Y4988D01*
X4847Y4990D01*
X4837D01*
X4834Y4995D01*
X4819Y5005D01*
X4801Y5008D01*
X4641D01*
X4623Y5005D01*
X4608Y4995D01*
X4598Y4980D01*
X4595Y4962D01*
X4598Y4945D01*
X4608Y4930D01*
X4623Y4920D01*
X4641Y4916D01*
X4801D01*
X4819Y4920D01*
X4834Y4930D01*
X4839Y4930D01*
X5008Y4761D01*
Y4675D01*
X4975Y4641D01*
X4731D01*
X4726Y4653D01*
X4741Y4667D01*
X4741Y4667D01*
X4747Y4677D01*
X4749Y4687D01*
Y4789D01*
X4801D01*
X4819Y4793D01*
X4834Y4803D01*
X4844Y4818D01*
X4847Y4835D01*
X4844Y4853D01*
X4834Y4868D01*
X4819Y4878D01*
X4801Y4881D01*
X4641D01*
X4623Y4878D01*
X4608Y4868D01*
X4598Y4853D01*
X4595Y4835D01*
X4598Y4818D01*
X4608Y4803D01*
X4623Y4793D01*
X4641Y4789D01*
X4693D01*
Y4699D01*
X4575Y4581D01*
X3819D01*
X3819Y4581D01*
X3810Y4579D01*
X3809Y4579D01*
X3799Y4573D01*
X3765Y4538D01*
X3671D01*
Y4388D01*
X3842D01*
Y4388D01*
X3845D01*
X3854Y4379D01*
Y4368D01*
X3854D01*
X3852D01*
X3845Y4368D01*
X3845Y4368D01*
Y4368D01*
X3769D01*
Y4283D01*
Y4197D01*
X3852D01*
Y4234D01*
X3854Y4235D01*
X3864Y4240D01*
X3928Y4176D01*
X3923Y4164D01*
X3723D01*
X3707Y4161D01*
X3694Y4152D01*
X3456Y3914D01*
X3453Y3914D01*
X3437Y3907D01*
X3423Y3897D01*
X3413Y3883D01*
X3406Y3867D01*
X3404Y3850D01*
X3406Y3833D01*
X3413Y3817D01*
X3423Y3803D01*
X3437Y3793D01*
X3453Y3786D01*
X3470Y3784D01*
X3487Y3786D01*
X3503Y3793D01*
X3517Y3803D01*
X3527Y3817D01*
X3534Y3833D01*
X3536Y3850D01*
X3534Y3867D01*
X3531Y3873D01*
X3740Y4082D01*
X3914D01*
X3956Y4040D01*
X3951Y4028D01*
X3922D01*
Y3955D01*
X4005D01*
Y3975D01*
X4017Y3980D01*
X4082Y3914D01*
X4084Y3913D01*
Y3868D01*
X4255D01*
Y3892D01*
X4328D01*
X4329Y3890D01*
X4339Y3875D01*
X4354Y3865D01*
X4371Y3861D01*
X4531D01*
X4549Y3865D01*
X4560Y3872D01*
X4571Y3866D01*
Y3822D01*
X4560Y3816D01*
X4549Y3823D01*
X4531Y3826D01*
X4473D01*
X4471Y3828D01*
X4451Y3831D01*
X4432Y3828D01*
X4430Y3826D01*
X4371D01*
X4354Y3823D01*
X4340Y3814D01*
X4255D01*
Y3838D01*
X4084D01*
Y3814D01*
X3995D01*
Y3838D01*
X3824D01*
Y3688D01*
X3995D01*
Y3712D01*
X4084D01*
Y3688D01*
X4255D01*
Y3712D01*
X4368D01*
X4369Y3699D01*
X4354Y3696D01*
X4339Y3686D01*
X4329Y3671D01*
X4325Y3653D01*
X4329Y3636D01*
X4339Y3621D01*
X4354Y3611D01*
X4371Y3607D01*
X4531D01*
X4549Y3611D01*
X4564Y3621D01*
X4574Y3636D01*
X4577Y3653D01*
X4574Y3671D01*
X4573Y3673D01*
X4606Y3706D01*
X4618Y3702D01*
Y3435D01*
X4611Y3427D01*
X4567D01*
X4564Y3432D01*
X4549Y3442D01*
X4531Y3445D01*
X4371D01*
X4354Y3442D01*
X4339Y3432D01*
X4329Y3417D01*
X4325Y3399D01*
X4329Y3382D01*
X4339Y3367D01*
X4354Y3357D01*
X4371Y3353D01*
X4531D01*
X4549Y3357D01*
X4564Y3367D01*
X4567Y3371D01*
X4623D01*
X4634Y3373D01*
X4643Y3379D01*
X4643Y3379D01*
X4643Y3379D01*
X4666Y3403D01*
X4666Y3403D01*
X4666Y3403D01*
X4673Y3412D01*
X4673Y3414D01*
X4674Y3420D01*
X4684Y3423D01*
X4687D01*
X4730Y3379D01*
X4730D01*
X4730Y3379D01*
X4730Y3379D01*
Y3379D01*
X4740Y3373D01*
X4750Y3371D01*
X4816D01*
X4819Y3367D01*
X4834Y3357D01*
X4851Y3353D01*
X5011D01*
X5029Y3357D01*
X5044Y3367D01*
X5054Y3382D01*
X5057Y3399D01*
X5054Y3417D01*
X5044Y3432D01*
X5029Y3442D01*
X5011Y3445D01*
X4851D01*
X4834Y3442D01*
X4819Y3432D01*
X4816Y3427D01*
X4762D01*
X4728Y3461D01*
Y3664D01*
X4740Y3669D01*
X4776Y3633D01*
X4776Y3633D01*
X4782Y3629D01*
X4785Y3627D01*
X4796Y3625D01*
X4796Y3625D01*
X4816D01*
X4819Y3621D01*
X4834Y3611D01*
X4851Y3607D01*
X5011D01*
X5029Y3611D01*
X5044Y3621D01*
X5054Y3636D01*
X5057Y3653D01*
X5054Y3671D01*
X5044Y3686D01*
X5029Y3696D01*
X5011Y3699D01*
X4851D01*
X4834Y3696D01*
X4819Y3686D01*
X4818Y3685D01*
X4805Y3684D01*
X4779Y3711D01*
Y3985D01*
X4908Y4115D01*
X5026D01*
X5037Y4117D01*
X5046Y4123D01*
X5046Y4123D01*
X5046Y4123D01*
X5106Y4183D01*
X5106Y4183D01*
X5106Y4183D01*
X5113Y4192D01*
X5115Y4203D01*
Y4401D01*
X5168Y4455D01*
X5221D01*
Y4418D01*
X5372D01*
Y4588D01*
X5318D01*
Y5150D01*
X5316Y5161D01*
X5309Y5170D01*
X5309Y5170D01*
X5116Y5363D01*
X5107Y5369D01*
X5096Y5371D01*
X4837D01*
X4834Y5376D01*
X4819Y5386D01*
X4801Y5389D01*
D02*
G37*
G36*
X5464Y4598D02*
X5391D01*
Y4515D01*
X5464D01*
Y4598D01*
D02*
G37*
G36*
X6921Y4600D02*
X6849D01*
Y4517D01*
X6921D01*
Y4600D01*
D02*
G37*
G36*
X5562Y4598D02*
X5489D01*
Y4515D01*
X5562D01*
Y4598D01*
D02*
G37*
G36*
X6771Y3670D02*
X6689D01*
Y3597D01*
X6771D01*
Y3670D01*
D02*
G37*
G36*
X9920Y3006D02*
X9893Y3003D01*
X9867Y2992D01*
X9845Y2975D01*
X9828Y2953D01*
X9817Y2927D01*
X9814Y2900D01*
X9817Y2873D01*
X9828Y2847D01*
X9845Y2825D01*
X9867Y2808D01*
X9893Y2797D01*
X9920Y2794D01*
X9947Y2797D01*
X9973Y2808D01*
X9995Y2825D01*
X10012Y2847D01*
X10023Y2873D01*
X10026Y2900D01*
X10023Y2927D01*
X10012Y2953D01*
X9995Y2975D01*
X9973Y2992D01*
X9947Y3003D01*
X9920Y3006D01*
D02*
G37*
G36*
X8125Y2826D02*
X8113D01*
Y2713D01*
X8250D01*
X8247Y2733D01*
X8235Y2763D01*
X8214Y2789D01*
X8188Y2810D01*
X8158Y2822D01*
X8125Y2826D01*
D02*
G37*
G36*
X3914Y3050D02*
X3831D01*
Y2977D01*
X3914D01*
Y3050D01*
D02*
G37*
G36*
X7319Y3868D02*
X7169D01*
Y3698D01*
X7193D01*
Y3628D01*
X7179D01*
Y3458D01*
X7193D01*
Y3398D01*
X7169D01*
Y3228D01*
X7193D01*
Y3148D01*
X7149D01*
Y2978D01*
X7299D01*
Y3148D01*
X7295D01*
Y3228D01*
X7319D01*
Y3398D01*
X7295D01*
Y3458D01*
X7329D01*
Y3628D01*
X7295D01*
Y3698D01*
X7319D01*
Y3868D01*
D02*
G37*
G36*
X4022Y3050D02*
X3939D01*
Y2977D01*
X4022D01*
Y3050D01*
D02*
G37*
G36*
X8087Y2826D02*
X8075D01*
X8042Y2822D01*
X8012Y2810D01*
X7986Y2789D01*
X7965Y2763D01*
X7953Y2733D01*
X7950Y2713D01*
X8087D01*
Y2826D01*
D02*
G37*
G36*
X8625Y2816D02*
X8575D01*
X8545Y2812D01*
X8517Y2801D01*
X8493Y2782D01*
X8474Y2758D01*
X8463Y2730D01*
X8459Y2700D01*
X8463Y2670D01*
X8474Y2642D01*
X8493Y2618D01*
X8517Y2599D01*
X8545Y2588D01*
X8575Y2584D01*
X8625D01*
X8655Y2588D01*
X8683Y2599D01*
X8707Y2618D01*
X8726Y2642D01*
X8737Y2670D01*
X8741Y2700D01*
X8737Y2730D01*
X8726Y2758D01*
X8707Y2782D01*
X8683Y2801D01*
X8655Y2812D01*
X8625Y2816D01*
D02*
G37*
G36*
X6125D02*
X6075D01*
X6045Y2812D01*
X6017Y2801D01*
X5993Y2782D01*
X5974Y2758D01*
X5963Y2730D01*
X5959Y2700D01*
X5963Y2670D01*
X5974Y2642D01*
X5993Y2618D01*
X6017Y2599D01*
X6045Y2588D01*
X6075Y2584D01*
X6125D01*
X6155Y2588D01*
X6183Y2599D01*
X6207Y2618D01*
X6226Y2642D01*
X6237Y2670D01*
X6241Y2700D01*
X6237Y2730D01*
X6226Y2758D01*
X6207Y2782D01*
X6183Y2801D01*
X6155Y2812D01*
X6125Y2816D01*
D02*
G37*
G36*
X2613Y3830D02*
X2442D01*
Y3680D01*
X2545D01*
X2609Y3615D01*
Y3352D01*
X2605Y3350D01*
X2586Y3335D01*
X2571Y3316D01*
X2562Y3294D01*
X2559Y3270D01*
X2562Y3246D01*
X2571Y3224D01*
X2586Y3205D01*
X2605Y3190D01*
X2609Y3188D01*
Y2739D01*
X2609Y2739D01*
X2609D01*
X2612Y2723D01*
X2621Y2710D01*
X2837Y2494D01*
X2851Y2485D01*
X2859Y2483D01*
X2971Y2371D01*
X2984Y2362D01*
X2987Y2362D01*
X3000Y2359D01*
X3700D01*
X3716Y2362D01*
X3729Y2371D01*
X3946Y2588D01*
X3975Y2584D01*
X4025D01*
X4054Y2588D01*
X4271Y2371D01*
X4280Y2365D01*
X4284Y2362D01*
X4300Y2359D01*
X6300D01*
X6316Y2362D01*
X6329Y2371D01*
X6546Y2588D01*
X6575Y2584D01*
X6625D01*
X6654Y2588D01*
X6871Y2371D01*
X6880Y2365D01*
X6884Y2362D01*
X6900Y2359D01*
X8800D01*
X8816Y2362D01*
X8829Y2371D01*
X9046Y2588D01*
X9075Y2584D01*
X9125D01*
X9155Y2588D01*
X9183Y2599D01*
X9207Y2618D01*
X9226Y2642D01*
X9237Y2670D01*
X9241Y2700D01*
X9237Y2730D01*
X9226Y2758D01*
X9207Y2782D01*
X9183Y2801D01*
X9155Y2812D01*
X9125Y2816D01*
X9075D01*
X9045Y2812D01*
X9017Y2801D01*
X8993Y2782D01*
X8974Y2758D01*
X8963Y2730D01*
X8959Y2700D01*
X8963Y2670D01*
X8974Y2642D01*
X8978Y2636D01*
X8783Y2441D01*
X6917D01*
X6722Y2636D01*
X6726Y2642D01*
X6737Y2670D01*
X6741Y2700D01*
X6737Y2730D01*
X6726Y2758D01*
X6707Y2782D01*
X6683Y2801D01*
X6655Y2812D01*
X6625Y2816D01*
X6575D01*
X6545Y2812D01*
X6517Y2801D01*
X6493Y2782D01*
X6474Y2758D01*
X6463Y2730D01*
X6459Y2700D01*
X6463Y2670D01*
X6474Y2642D01*
X6478Y2636D01*
X6283Y2441D01*
X4317D01*
X4122Y2636D01*
X4126Y2642D01*
X4137Y2670D01*
X4141Y2700D01*
X4137Y2730D01*
X4126Y2758D01*
X4107Y2782D01*
X4083Y2801D01*
X4055Y2812D01*
X4025Y2816D01*
X3975D01*
X3945Y2812D01*
X3917Y2801D01*
X3893Y2782D01*
X3874Y2758D01*
X3863Y2730D01*
X3859Y2700D01*
X3863Y2670D01*
X3874Y2642D01*
X3878Y2636D01*
X3683Y2441D01*
X3017D01*
X2906Y2552D01*
X2893Y2561D01*
X2885Y2562D01*
X2691Y2756D01*
Y3188D01*
X2697Y3190D01*
X2716Y3205D01*
X2731Y3224D01*
X2740Y3246D01*
X2743Y3270D01*
X2740Y3294D01*
X2731Y3316D01*
X2716Y3335D01*
X2697Y3350D01*
X2691Y3352D01*
Y3632D01*
X2688Y3648D01*
X2679Y3661D01*
X2613Y3728D01*
Y3830D01*
D02*
G37*
G36*
X3025Y2826D02*
X3013D01*
Y2713D01*
X3150D01*
X3147Y2733D01*
X3135Y2763D01*
X3114Y2789D01*
X3088Y2810D01*
X3058Y2822D01*
X3025Y2826D01*
D02*
G37*
G36*
X2987D02*
X2975D01*
X2942Y2822D01*
X2912Y2810D01*
X2886Y2789D01*
X2865Y2763D01*
X2853Y2733D01*
X2850Y2713D01*
X2987D01*
Y2826D01*
D02*
G37*
G36*
X8529Y3170D02*
X8447D01*
Y3097D01*
X8529D01*
Y3170D01*
D02*
G37*
G36*
X8421D02*
X8339D01*
Y3097D01*
X8421D01*
Y3170D01*
D02*
G37*
G36*
X3715Y3175D02*
X3653D01*
X3654Y3168D01*
X3662Y3149D01*
X3674Y3134D01*
X3689Y3122D01*
X3708Y3114D01*
X3715Y3113D01*
Y3175D01*
D02*
G37*
G36*
X10015Y3695D02*
X9865D01*
Y3525D01*
X9967D01*
X10194Y3298D01*
Y3151D01*
X9815D01*
X9799Y3148D01*
X9786Y3139D01*
X9648Y3001D01*
X9634Y3007D01*
X9605Y3011D01*
X9576Y3007D01*
X9549Y2996D01*
X9526Y2979D01*
X9509Y2956D01*
X9498Y2929D01*
X9494Y2900D01*
X9498Y2871D01*
X9509Y2844D01*
X9526Y2821D01*
X9549Y2804D01*
X9576Y2793D01*
X9605Y2789D01*
X9634Y2793D01*
X9661Y2804D01*
X9684Y2821D01*
X9701Y2844D01*
X9712Y2871D01*
X9716Y2900D01*
X9712Y2929D01*
X9706Y2943D01*
X9832Y3069D01*
X10194D01*
Y3002D01*
X10179Y2996D01*
X10156Y2979D01*
X10139Y2956D01*
X10128Y2929D01*
X10124Y2900D01*
X10128Y2871D01*
X10139Y2844D01*
X10156Y2821D01*
X10179Y2804D01*
X10206Y2793D01*
X10235Y2789D01*
X10264Y2793D01*
X10291Y2804D01*
X10314Y2821D01*
X10331Y2844D01*
X10342Y2871D01*
X10346Y2900D01*
X10342Y2929D01*
X10331Y2956D01*
X10314Y2979D01*
X10291Y2996D01*
X10276Y3002D01*
Y3110D01*
Y3189D01*
X10345D01*
Y3135D01*
X10675D01*
Y3325D01*
X10345D01*
Y3271D01*
X10276D01*
Y3315D01*
X10273Y3328D01*
X10273Y3331D01*
X10264Y3344D01*
X10015Y3593D01*
Y3695D01*
D02*
G37*
G36*
X3802Y3175D02*
X3740D01*
Y3113D01*
X3747Y3114D01*
X3766Y3122D01*
X3781Y3134D01*
X3793Y3149D01*
X3801Y3168D01*
X3802Y3175D01*
D02*
G37*
G36*
X5522Y3148D02*
X5439D01*
Y3075D01*
X5522D01*
Y3148D01*
D02*
G37*
G36*
X7479Y3148D02*
X7329D01*
Y2978D01*
X7479D01*
Y3032D01*
X7613D01*
X7617Y3026D01*
X7631Y3016D01*
X7647Y3009D01*
X7664Y3007D01*
X7681Y3009D01*
X7697Y3016D01*
X7710Y3026D01*
X7721Y3040D01*
X7727Y3056D01*
X7730Y3073D01*
X7727Y3090D01*
X7721Y3106D01*
X7710Y3119D01*
X7697Y3130D01*
X7681Y3136D01*
X7664Y3139D01*
X7647Y3136D01*
X7631Y3130D01*
X7617Y3119D01*
X7613Y3114D01*
X7479D01*
Y3148D01*
D02*
G37*
G36*
X5011Y3191D02*
X4851D01*
X4834Y3188D01*
X4819Y3178D01*
X4809Y3163D01*
X4805Y3145D01*
X4809Y3128D01*
X4819Y3113D01*
X4834Y3103D01*
X4851Y3099D01*
X4919D01*
X4954Y3064D01*
X4956Y3053D01*
X4968Y3036D01*
X4984Y3025D01*
X5004Y3021D01*
X5121D01*
Y2997D01*
X5292D01*
Y3148D01*
X5121D01*
Y3124D01*
X5063D01*
X5055Y3134D01*
X5057Y3145D01*
X5054Y3163D01*
X5044Y3178D01*
X5029Y3188D01*
X5011Y3191D01*
D02*
G37*
G36*
X3914Y3148D02*
X3831D01*
Y3075D01*
X3914D01*
Y3148D01*
D02*
G37*
G36*
X5414D02*
X5331D01*
Y3075D01*
X5414D01*
Y3148D01*
D02*
G37*
G36*
X4022D02*
X3939D01*
Y3075D01*
X4022D01*
Y3148D01*
D02*
G37*
G36*
X10222Y2350D02*
X10204Y2347D01*
X10174Y2335D01*
X10149Y2316D01*
X10130Y2291D01*
X10118Y2261D01*
X10115Y2243D01*
X10222D01*
Y2350D01*
D02*
G37*
G36*
X9618D02*
Y2243D01*
X9725D01*
X9722Y2261D01*
X9710Y2291D01*
X9691Y2316D01*
X9666Y2335D01*
X9636Y2347D01*
X9618Y2350D01*
D02*
G37*
G36*
X10248D02*
Y2243D01*
X10355D01*
X10352Y2261D01*
X10340Y2291D01*
X10321Y2316D01*
X10296Y2335D01*
X10266Y2347D01*
X10248Y2350D01*
D02*
G37*
G36*
X11000Y2716D02*
X10958Y2712D01*
X10917Y2700D01*
X10880Y2680D01*
X10847Y2653D01*
X10820Y2620D01*
X10800Y2583D01*
X10788Y2542D01*
X10784Y2500D01*
X10788Y2458D01*
X10800Y2417D01*
X10820Y2380D01*
X10847Y2347D01*
X10880Y2320D01*
X10917Y2300D01*
X10958Y2288D01*
X11000Y2284D01*
X11042Y2288D01*
X11083Y2300D01*
X11120Y2320D01*
X11153Y2347D01*
X11180Y2380D01*
X11200Y2417D01*
X11212Y2458D01*
X11216Y2500D01*
X11212Y2542D01*
X11200Y2583D01*
X11180Y2620D01*
X11153Y2653D01*
X11120Y2680D01*
X11083Y2700D01*
X11042Y2712D01*
X11000Y2716D01*
D02*
G37*
G36*
X2000D02*
X1958Y2712D01*
X1917Y2700D01*
X1880Y2680D01*
X1847Y2653D01*
X1820Y2620D01*
X1800Y2583D01*
X1788Y2542D01*
X1784Y2500D01*
X1788Y2458D01*
X1800Y2417D01*
X1820Y2380D01*
X1847Y2347D01*
X1880Y2320D01*
X1917Y2300D01*
X1958Y2288D01*
X2000Y2284D01*
X2042Y2288D01*
X2083Y2300D01*
X2120Y2320D01*
X2153Y2347D01*
X2180Y2380D01*
X2200Y2417D01*
X2212Y2458D01*
X2216Y2500D01*
X2212Y2542D01*
X2200Y2583D01*
X2180Y2620D01*
X2153Y2653D01*
X2120Y2680D01*
X2083Y2700D01*
X2042Y2712D01*
X2000Y2716D01*
D02*
G37*
G36*
X9592Y2350D02*
X9574Y2347D01*
X9544Y2335D01*
X9519Y2316D01*
X9500Y2291D01*
X9488Y2261D01*
X9485Y2243D01*
X9592D01*
Y2350D01*
D02*
G37*
G36*
X9725Y2217D02*
X9618D01*
Y2110D01*
X9636Y2113D01*
X9666Y2125D01*
X9691Y2144D01*
X9710Y2169D01*
X9722Y2199D01*
X9725Y2217D01*
D02*
G37*
G36*
X9592D02*
X9485D01*
X9488Y2199D01*
X9500Y2169D01*
X9519Y2144D01*
X9544Y2125D01*
X9574Y2113D01*
X9592Y2110D01*
Y2217D01*
D02*
G37*
G36*
X10222D02*
X10115D01*
X10118Y2199D01*
X10130Y2169D01*
X10149Y2144D01*
X10174Y2125D01*
X10204Y2113D01*
X10222Y2110D01*
Y2217D01*
D02*
G37*
G36*
X9920Y2406D02*
X9893Y2403D01*
X9867Y2392D01*
X9845Y2375D01*
X9828Y2353D01*
X9817Y2327D01*
X9814Y2300D01*
X9817Y2273D01*
X9828Y2247D01*
X9845Y2225D01*
X9867Y2208D01*
X9893Y2197D01*
X9920Y2194D01*
X9947Y2197D01*
X9973Y2208D01*
X9995Y2225D01*
X10012Y2247D01*
X10023Y2273D01*
X10026Y2300D01*
X10023Y2327D01*
X10012Y2353D01*
X9995Y2375D01*
X9973Y2392D01*
X9947Y2403D01*
X9920Y2406D01*
D02*
G37*
G36*
X10355Y2217D02*
X10248D01*
Y2110D01*
X10266Y2113D01*
X10296Y2125D01*
X10321Y2144D01*
X10340Y2169D01*
X10352Y2199D01*
X10355Y2217D01*
D02*
G37*
G36*
X5750Y2687D02*
X5613D01*
Y2574D01*
X5625D01*
X5658Y2578D01*
X5688Y2590D01*
X5714Y2611D01*
X5735Y2637D01*
X5747Y2667D01*
X5750Y2687D01*
D02*
G37*
G36*
X5587D02*
X5450D01*
X5453Y2667D01*
X5465Y2637D01*
X5486Y2611D01*
X5512Y2590D01*
X5542Y2578D01*
X5575Y2574D01*
X5587D01*
Y2687D01*
D02*
G37*
G36*
X8087D02*
X7950D01*
X7953Y2667D01*
X7965Y2637D01*
X7986Y2611D01*
X8012Y2590D01*
X8042Y2578D01*
X8075Y2574D01*
X8087D01*
Y2687D01*
D02*
G37*
G36*
X3525Y2816D02*
X3475D01*
X3445Y2812D01*
X3417Y2801D01*
X3393Y2782D01*
X3374Y2758D01*
X3363Y2730D01*
X3359Y2700D01*
X3363Y2670D01*
X3374Y2642D01*
X3393Y2618D01*
X3417Y2599D01*
X3445Y2588D01*
X3475Y2584D01*
X3525D01*
X3555Y2588D01*
X3583Y2599D01*
X3607Y2618D01*
X3626Y2642D01*
X3637Y2670D01*
X3641Y2700D01*
X3637Y2730D01*
X3626Y2758D01*
X3607Y2782D01*
X3583Y2801D01*
X3555Y2812D01*
X3525Y2816D01*
D02*
G37*
G36*
X8250Y2687D02*
X8113D01*
Y2574D01*
X8125D01*
X8158Y2578D01*
X8188Y2590D01*
X8214Y2611D01*
X8235Y2637D01*
X8247Y2667D01*
X8250Y2687D01*
D02*
G37*
G36*
X3150D02*
X3013D01*
Y2574D01*
X3025D01*
X3058Y2578D01*
X3088Y2590D01*
X3114Y2611D01*
X3135Y2637D01*
X3147Y2667D01*
X3150Y2687D01*
D02*
G37*
G36*
X9725Y2537D02*
X9618D01*
Y2430D01*
X9636Y2433D01*
X9666Y2445D01*
X9691Y2464D01*
X9710Y2489D01*
X9722Y2519D01*
X9725Y2537D01*
D02*
G37*
G36*
X9592D02*
X9485D01*
X9488Y2519D01*
X9500Y2489D01*
X9519Y2464D01*
X9544Y2445D01*
X9574Y2433D01*
X9592Y2430D01*
Y2537D01*
D02*
G37*
G36*
Y2670D02*
X9574Y2667D01*
X9544Y2655D01*
X9519Y2636D01*
X9500Y2611D01*
X9488Y2581D01*
X9485Y2563D01*
X9592D01*
Y2670D01*
D02*
G37*
G36*
X2987Y2687D02*
X2850D01*
X2853Y2667D01*
X2865Y2637D01*
X2886Y2611D01*
X2912Y2590D01*
X2942Y2578D01*
X2975Y2574D01*
X2987D01*
Y2687D01*
D02*
G37*
G36*
X9618Y2670D02*
Y2563D01*
X9725D01*
X9722Y2581D01*
X9710Y2611D01*
X9691Y2636D01*
X9666Y2655D01*
X9636Y2667D01*
X9618Y2670D01*
D02*
G37*
G36*
X6619Y3568D02*
X6537D01*
Y3496D01*
X6619D01*
Y3568D01*
D02*
G37*
G36*
X6511D02*
X6429D01*
Y3496D01*
X6511D01*
Y3568D01*
D02*
G37*
G36*
X7766Y3584D02*
X7759Y3584D01*
X7741Y3576D01*
X7725Y3564D01*
X7713Y3548D01*
X7706Y3530D01*
X7705Y3523D01*
X7766D01*
Y3584D01*
D02*
G37*
G36*
X3661Y3610D02*
X3600D01*
X3600Y3603D01*
X3608Y3585D01*
X3620Y3569D01*
X3636Y3557D01*
X3654Y3549D01*
X3661Y3548D01*
Y3610D01*
D02*
G37*
G36*
X7792Y3584D02*
Y3523D01*
X7853D01*
X7853Y3530D01*
X7845Y3548D01*
X7833Y3564D01*
X7817Y3576D01*
X7799Y3584D01*
X7792Y3584D01*
D02*
G37*
G36*
X5889Y3523D02*
X5812D01*
Y3481D01*
X5889D01*
Y3523D01*
D02*
G37*
G36*
X7766Y3497D02*
X7705D01*
X7706Y3490D01*
X7713Y3472D01*
X7725Y3456D01*
X7741Y3444D01*
X7759Y3437D01*
X7766Y3436D01*
Y3497D01*
D02*
G37*
G36*
X6073Y3474D02*
Y3413D01*
X6134D01*
X6133Y3420D01*
X6126Y3438D01*
X6114Y3454D01*
X6098Y3466D01*
X6080Y3473D01*
X6073Y3474D01*
D02*
G37*
G36*
X7853Y3497D02*
X7792D01*
Y3436D01*
X7799Y3437D01*
X7817Y3444D01*
X7833Y3456D01*
X7845Y3472D01*
X7853Y3490D01*
X7853Y3497D01*
D02*
G37*
G36*
X7519Y3530D02*
X7447D01*
Y3447D01*
X7519D01*
Y3530D01*
D02*
G37*
G36*
X7421D02*
X7349D01*
Y3447D01*
X7421D01*
Y3530D01*
D02*
G37*
G36*
X3914Y3648D02*
X3841D01*
Y3565D01*
X3914D01*
Y3648D01*
D02*
G37*
G36*
X7519Y3638D02*
X7447D01*
Y3556D01*
X7519D01*
Y3638D01*
D02*
G37*
G36*
X4012Y3648D02*
X3939D01*
Y3565D01*
X4012D01*
Y3648D01*
D02*
G37*
G36*
X8879Y3664D02*
X8683D01*
X8664Y3660D01*
X8657Y3655D01*
X8647Y3649D01*
X8567Y3568D01*
X8554D01*
X8545Y3578D01*
X8544Y3587D01*
X8537Y3603D01*
X8527Y3617D01*
X8513Y3627D01*
X8497Y3634D01*
X8480Y3636D01*
X8463Y3634D01*
X8447Y3627D01*
X8433Y3617D01*
X8423Y3603D01*
X8416Y3587D01*
X8414Y3570D01*
X8416Y3553D01*
X8423Y3537D01*
X8433Y3523D01*
X8447Y3513D01*
X8463Y3506D01*
X8472Y3505D01*
X8488Y3489D01*
X8437Y3438D01*
X8349D01*
Y3288D01*
X8519D01*
Y3376D01*
X8597Y3453D01*
X8597Y3453D01*
X8705Y3561D01*
X8879D01*
X8899Y3565D01*
X8915Y3576D01*
X8926Y3593D01*
X8930Y3612D01*
X8926Y3632D01*
X8915Y3649D01*
X8899Y3660D01*
X8879Y3664D01*
D02*
G37*
G36*
X5327Y3736D02*
X5176D01*
Y3658D01*
X5163Y3649D01*
X5081Y3567D01*
X5031D01*
X5029Y3569D01*
X5011Y3572D01*
X4851D01*
X4834Y3569D01*
X4819Y3559D01*
X4809Y3544D01*
X4805Y3526D01*
X4809Y3509D01*
X4819Y3494D01*
X4834Y3484D01*
X4851Y3480D01*
X5011D01*
X5029Y3484D01*
X5031Y3485D01*
X5081D01*
X5170Y3397D01*
X5187Y3385D01*
X5206Y3382D01*
X5368D01*
X5376Y3376D01*
X5392Y3369D01*
X5401Y3368D01*
X5412Y3361D01*
X5432Y3357D01*
X5451Y3361D01*
X5468Y3372D01*
X5479Y3388D01*
X5483Y3408D01*
X5483Y3410D01*
X5483Y3410D01*
X5479Y3430D01*
X5474Y3437D01*
X5472Y3450D01*
X5466Y3466D01*
X5455Y3479D01*
X5442Y3490D01*
X5426Y3496D01*
X5409Y3499D01*
X5392Y3496D01*
X5376Y3490D01*
X5368Y3484D01*
X5227D01*
X5192Y3520D01*
Y3533D01*
X5224Y3565D01*
X5327D01*
Y3736D01*
D02*
G37*
G36*
X7421Y3638D02*
X7349D01*
Y3556D01*
X7421D01*
Y3638D01*
D02*
G37*
G36*
X9266Y3600D02*
X9130D01*
X9132Y3589D01*
X9145Y3569D01*
X9165Y3555D01*
X9189Y3551D01*
X9266D01*
Y3600D01*
D02*
G37*
G36*
X3748Y3610D02*
X3687D01*
Y3548D01*
X3694Y3549D01*
X3712Y3557D01*
X3728Y3569D01*
X3740Y3585D01*
X3747Y3603D01*
X3748Y3610D01*
D02*
G37*
G36*
X9428Y3600D02*
X9292D01*
Y3551D01*
X9369D01*
X9392Y3555D01*
X9412Y3569D01*
X9426Y3589D01*
X9428Y3600D01*
D02*
G37*
G36*
X5517Y3638D02*
X5444D01*
Y3555D01*
X5517D01*
Y3638D01*
D02*
G37*
G36*
X5419D02*
X5346D01*
Y3555D01*
X5419D01*
Y3638D01*
D02*
G37*
G36*
X3715Y3262D02*
X3708Y3261D01*
X3689Y3253D01*
X3674Y3241D01*
X3662Y3226D01*
X3654Y3207D01*
X3653Y3200D01*
X3715D01*
Y3262D01*
D02*
G37*
G36*
X7499Y3398D02*
X7349D01*
Y3228D01*
X7499D01*
Y3262D01*
X7619D01*
Y3198D01*
X7769D01*
Y3368D01*
X7619D01*
Y3364D01*
X7499D01*
Y3398D01*
D02*
G37*
G36*
X3740Y3262D02*
Y3200D01*
X3802D01*
X3801Y3207D01*
X3793Y3226D01*
X3781Y3241D01*
X3766Y3253D01*
X3747Y3261D01*
X3740Y3262D01*
D02*
G37*
G36*
X6597Y3272D02*
X6535D01*
Y3211D01*
X6542Y3212D01*
X6561Y3219D01*
X6576Y3231D01*
X6588Y3247D01*
X6596Y3265D01*
X6597Y3272D01*
D02*
G37*
G36*
X6510D02*
X6448D01*
X6449Y3265D01*
X6457Y3247D01*
X6469Y3231D01*
X6484Y3219D01*
X6503Y3212D01*
X6510Y3211D01*
Y3272D01*
D02*
G37*
G36*
X8529Y3268D02*
X8447D01*
Y3195D01*
X8529D01*
Y3268D01*
D02*
G37*
G36*
X7861Y3270D02*
X7789D01*
Y3187D01*
X7861D01*
Y3270D01*
D02*
G37*
G36*
X9835Y3695D02*
X9685D01*
Y3593D01*
X9633Y3541D01*
X9462D01*
X9447Y3538D01*
X9433Y3529D01*
X9260Y3355D01*
X9157D01*
Y3185D01*
X9308D01*
Y3287D01*
X9479Y3459D01*
X9650D01*
X9666Y3462D01*
X9679Y3471D01*
X9733Y3525D01*
X9835D01*
Y3695D01*
D02*
G37*
G36*
X7959Y3270D02*
X7887D01*
Y3187D01*
X7959D01*
Y3270D01*
D02*
G37*
G36*
X8421Y3268D02*
X8339D01*
Y3195D01*
X8421D01*
Y3268D01*
D02*
G37*
G36*
X4242Y3338D02*
X4071D01*
Y3323D01*
X3956D01*
X3936Y3320D01*
X3934Y3318D01*
X3841D01*
Y3167D01*
X4012D01*
Y3221D01*
X4071D01*
Y3187D01*
X4242D01*
Y3221D01*
X4451D01*
X4471Y3225D01*
X4473Y3226D01*
X4531D01*
X4549Y3230D01*
X4564Y3240D01*
X4574Y3255D01*
X4577Y3272D01*
X4574Y3290D01*
X4564Y3305D01*
X4549Y3315D01*
X4531Y3318D01*
X4473D01*
X4471Y3320D01*
X4451Y3323D01*
X4242D01*
Y3338D01*
D02*
G37*
G36*
X6511Y3470D02*
X6429D01*
Y3397D01*
X6511D01*
Y3470D01*
D02*
G37*
G36*
X6134Y3387D02*
X6073D01*
Y3326D01*
X6080Y3327D01*
X6098Y3334D01*
X6114Y3346D01*
X6126Y3362D01*
X6133Y3380D01*
X6134Y3387D01*
D02*
G37*
G36*
X6619Y3470D02*
X6537D01*
Y3397D01*
X6619D01*
Y3470D01*
D02*
G37*
G36*
X6047Y3474D02*
X6040Y3473D01*
X6022Y3466D01*
X6006Y3454D01*
X5994Y3438D01*
X5987Y3420D01*
X5986Y3413D01*
X6047D01*
Y3474D01*
D02*
G37*
G36*
X5889Y3455D02*
X5812D01*
Y3412D01*
X5889D01*
Y3455D01*
D02*
G37*
G36*
X6047Y3387D02*
X5986D01*
X5987Y3380D01*
X5994Y3362D01*
X6006Y3346D01*
X6022Y3334D01*
X6040Y3327D01*
X6047Y3326D01*
Y3387D01*
D02*
G37*
G36*
X7959Y3378D02*
X7887D01*
Y3296D01*
X7959D01*
Y3378D01*
D02*
G37*
G36*
X7861D02*
X7789D01*
Y3296D01*
X7861D01*
Y3378D01*
D02*
G37*
G36*
X6510Y3359D02*
X6503Y3358D01*
X6484Y3351D01*
X6469Y3339D01*
X6457Y3323D01*
X6449Y3305D01*
X6448Y3298D01*
X6510D01*
Y3359D01*
D02*
G37*
G36*
X5292Y3328D02*
X5121D01*
Y3313D01*
X5031D01*
X5029Y3315D01*
X5011Y3318D01*
X4851D01*
X4834Y3315D01*
X4819Y3305D01*
X4809Y3290D01*
X4805Y3272D01*
X4809Y3255D01*
X4819Y3240D01*
X4834Y3230D01*
X4851Y3226D01*
X5011D01*
X5029Y3230D01*
X5031Y3231D01*
X5121D01*
Y3177D01*
X5292D01*
Y3231D01*
X5341D01*
Y3167D01*
X5512D01*
Y3318D01*
X5341D01*
Y3313D01*
X5292D01*
Y3328D01*
D02*
G37*
G36*
X6535Y3359D02*
Y3298D01*
X6597D01*
X6596Y3305D01*
X6588Y3323D01*
X6576Y3339D01*
X6561Y3351D01*
X6542Y3358D01*
X6535Y3359D01*
D02*
G37*
G36*
X2080Y4905D02*
X2018D01*
X2019Y4898D01*
X2027Y4879D01*
X2039Y4864D01*
X2054Y4852D01*
X2073Y4844D01*
X2080Y4843D01*
Y4905D01*
D02*
G37*
G36*
X11091Y6156D02*
X11066Y6153D01*
X11043Y6143D01*
X11024Y6128D01*
X11009Y6109D01*
X10999Y6086D01*
X10996Y6061D01*
X10999Y6037D01*
X11009Y6014D01*
X11024Y5994D01*
X11043Y5979D01*
X11066Y5970D01*
X11091Y5967D01*
X11115Y5970D01*
X11138Y5979D01*
X11158Y5994D01*
X11173Y6014D01*
X11182Y6037D01*
X11186Y6061D01*
X11182Y6086D01*
X11173Y6109D01*
X11158Y6128D01*
X11138Y6143D01*
X11115Y6153D01*
X11091Y6156D01*
D02*
G37*
G36*
X9159Y6408D02*
X8969D01*
Y6078D01*
X9157D01*
X9168Y6066D01*
X9164Y6054D01*
X8794D01*
X8774Y6050D01*
X8758Y6039D01*
X8681Y5962D01*
X8669Y5967D01*
Y5968D01*
X8499D01*
Y5818D01*
X8669D01*
Y5842D01*
X8684D01*
X8704Y5845D01*
X8720Y5857D01*
X8815Y5952D01*
X9253D01*
Y5294D01*
X9153Y5194D01*
X9094D01*
X9087Y5200D01*
X9071Y5206D01*
X9054Y5209D01*
X9037Y5206D01*
X9021Y5200D01*
X9007Y5189D01*
X8997Y5176D01*
X8990Y5160D01*
X8988Y5143D01*
X8990Y5126D01*
X8997Y5110D01*
X9003Y5102D01*
Y4943D01*
X9007Y4923D01*
X9018Y4907D01*
X9064Y4860D01*
Y4608D01*
X9045D01*
Y4723D01*
X9041Y4742D01*
X9037Y4749D01*
X9030Y4759D01*
X8905Y4884D01*
Y5248D01*
X8909D01*
Y5266D01*
X8935Y5292D01*
X8979D01*
Y5268D01*
X9149D01*
Y5418D01*
X8979D01*
Y5394D01*
X8914D01*
X8909Y5398D01*
Y5398D01*
X8739D01*
Y5248D01*
X8803D01*
Y4863D01*
X8803Y4863D01*
X8803D01*
X8807Y4843D01*
X8818Y4827D01*
X8943Y4702D01*
Y4608D01*
X8919D01*
Y4438D01*
X9064D01*
Y4205D01*
X8903Y4045D01*
X8837D01*
X8836Y4047D01*
X8825Y4064D01*
X8760Y4129D01*
X8743Y4141D01*
X8724Y4144D01*
X8655D01*
X8610Y4189D01*
X8594Y4200D01*
X8574Y4204D01*
X8569D01*
Y4228D01*
X8399D01*
Y4184D01*
X8309D01*
Y4218D01*
X8159D01*
Y4048D01*
X8309D01*
Y4082D01*
X8399D01*
Y4078D01*
X8569D01*
X8569Y4078D01*
Y4078D01*
X8574Y4080D01*
X8597Y4057D01*
X8597Y4057D01*
X8597Y4057D01*
Y4057D01*
X8597Y4057D01*
Y4057D01*
X8614Y4046D01*
X8633Y4042D01*
X8659D01*
X8663Y4030D01*
X8663Y4030D01*
X8652Y4013D01*
X8648Y3993D01*
X8652Y3974D01*
X8663Y3957D01*
X8679Y3946D01*
X8699Y3942D01*
X8924D01*
X8944Y3946D01*
X8961Y3957D01*
X9151Y4148D01*
X9162Y4164D01*
X9162Y4164D01*
X9162Y4164D01*
X9166Y4184D01*
Y4882D01*
X9162Y4901D01*
X9151Y4918D01*
X9105Y4964D01*
Y5092D01*
X9174D01*
X9194Y5095D01*
X9210Y5107D01*
X9340Y5237D01*
X9351Y5253D01*
X9355Y5273D01*
X9355Y5273D01*
Y6003D01*
X9351Y6022D01*
X9340Y6039D01*
X9159Y6220D01*
Y6408D01*
D02*
G37*
G36*
X1773Y6084D02*
X1759Y6082D01*
X1733Y6071D01*
X1712Y6055D01*
X1695Y6033D01*
X1685Y6008D01*
X1683Y5993D01*
X1773D01*
Y6084D01*
D02*
G37*
G36*
X5416Y6192D02*
X5397Y6188D01*
X5380Y6177D01*
X5369Y6160D01*
X5365Y6140D01*
Y6123D01*
X5359Y6116D01*
X5353Y6100D01*
X5352Y6090D01*
X5271Y6010D01*
X5260Y6015D01*
Y6043D01*
X5109D01*
Y5873D01*
X5260D01*
Y5907D01*
X5291D01*
X5311Y5910D01*
X5328Y5922D01*
X5424Y6018D01*
X5433Y6019D01*
X5449Y6026D01*
X5463Y6036D01*
X5473Y6050D01*
X5480Y6066D01*
X5482Y6083D01*
X5480Y6100D01*
X5473Y6116D01*
X5468Y6123D01*
Y6140D01*
X5464Y6160D01*
X5453Y6177D01*
X5436Y6188D01*
X5416Y6192D01*
D02*
G37*
G36*
X1799Y6084D02*
Y5993D01*
X1889D01*
X1887Y6008D01*
X1877Y6033D01*
X1860Y6055D01*
X1839Y6071D01*
X1813Y6082D01*
X1799Y6084D01*
D02*
G37*
G36*
X10940Y6049D02*
X10850D01*
Y5958D01*
X10864Y5960D01*
X10889Y5970D01*
X10911Y5987D01*
X10928Y6009D01*
X10938Y6034D01*
X10940Y6049D01*
D02*
G37*
G36*
X1773Y5968D02*
X1683D01*
X1685Y5953D01*
X1695Y5928D01*
X1712Y5906D01*
X1733Y5890D01*
X1759Y5879D01*
X1773Y5877D01*
Y5968D01*
D02*
G37*
G36*
X10850Y5911D02*
Y5820D01*
X10940D01*
X10938Y5835D01*
X10928Y5860D01*
X10911Y5882D01*
X10889Y5898D01*
X10864Y5909D01*
X10850Y5911D01*
D02*
G37*
G36*
X1889Y5968D02*
X1799D01*
Y5877D01*
X1813Y5879D01*
X1839Y5890D01*
X1860Y5906D01*
X1877Y5928D01*
X1887Y5953D01*
X1889Y5968D01*
D02*
G37*
G36*
X10824Y6049D02*
X10733D01*
X10735Y6034D01*
X10746Y6009D01*
X10763Y5987D01*
X10784Y5970D01*
X10810Y5960D01*
X10824Y5958D01*
Y6049D01*
D02*
G37*
G36*
X4162Y6188D02*
X4011D01*
Y6018D01*
X4099D01*
X4160Y5957D01*
X4159Y5956D01*
X4153Y5940D01*
X4151Y5923D01*
X4153Y5906D01*
X4159Y5890D01*
X4170Y5876D01*
X4183Y5866D01*
X4199Y5859D01*
X4216Y5857D01*
X4233Y5859D01*
X4249Y5866D01*
X4263Y5876D01*
X4273Y5890D01*
X4280Y5906D01*
X4281Y5915D01*
X4283Y5917D01*
X4469D01*
Y5883D01*
X4620D01*
Y6053D01*
X4469D01*
Y6019D01*
X4261D01*
X4246Y6016D01*
X4162Y6100D01*
Y6188D01*
D02*
G37*
G36*
X10824Y6165D02*
X10810Y6163D01*
X10784Y6152D01*
X10763Y6136D01*
X10746Y6114D01*
X10735Y6089D01*
X10733Y6074D01*
X10824D01*
Y6165D01*
D02*
G37*
G36*
X11091Y6410D02*
X11066Y6407D01*
X11043Y6397D01*
X11024Y6382D01*
X11009Y6363D01*
X10999Y6340D01*
X10996Y6315D01*
X10999Y6291D01*
X11009Y6268D01*
X11024Y6248D01*
X11043Y6233D01*
X11066Y6224D01*
X11091Y6221D01*
X11115Y6224D01*
X11138Y6233D01*
X11158Y6248D01*
X11173Y6268D01*
X11182Y6291D01*
X11186Y6315D01*
X11182Y6340D01*
X11173Y6363D01*
X11158Y6382D01*
X11138Y6397D01*
X11115Y6407D01*
X11091Y6410D01*
D02*
G37*
G36*
X10429Y6882D02*
X10279D01*
Y6711D01*
X10367D01*
X10744Y6333D01*
X10742Y6315D01*
X10745Y6291D01*
X10755Y6268D01*
X10770Y6248D01*
X10789Y6233D01*
X10812Y6224D01*
X10837Y6221D01*
X10861Y6224D01*
X10884Y6233D01*
X10904Y6248D01*
X10919Y6268D01*
X10928Y6291D01*
X10932Y6315D01*
X10928Y6340D01*
X10919Y6363D01*
X10904Y6382D01*
X10884Y6397D01*
X10861Y6407D01*
X10837Y6410D01*
X10815Y6407D01*
X10429Y6794D01*
Y6882D01*
D02*
G37*
G36*
X3750Y6315D02*
X3667D01*
Y6242D01*
X3750D01*
Y6315D01*
D02*
G37*
G36*
X2190Y6645D02*
X2045D01*
Y6581D01*
X1992Y6528D01*
X1833D01*
X1821Y6526D01*
X1811Y6519D01*
X1811Y6519D01*
X1755Y6463D01*
X1645D01*
Y6346D01*
X1596Y6297D01*
X1589Y6287D01*
X1587Y6275D01*
X1587Y6275D01*
Y5860D01*
X1587Y5860D01*
X1589Y5848D01*
X1596Y5838D01*
X1693Y5741D01*
X1691Y5726D01*
X1694Y5702D01*
X1704Y5679D01*
X1719Y5659D01*
X1739Y5644D01*
X1761Y5635D01*
X1786Y5632D01*
X1811Y5635D01*
X1833Y5644D01*
X1853Y5659D01*
X1866Y5676D01*
X1878Y5672D01*
Y5562D01*
X1878Y5562D01*
X1880Y5550D01*
X1887Y5540D01*
X1946Y5480D01*
Y5405D01*
X1778Y5237D01*
X1772Y5227D01*
X1769Y5215D01*
X1769Y5215D01*
Y4265D01*
X1769Y4265D01*
X1772Y4253D01*
X1778Y4243D01*
X1963Y4058D01*
X1963Y4058D01*
X1973Y4052D01*
X1975Y4051D01*
X1985Y4049D01*
X1985Y4049D01*
X2136D01*
X2143Y4034D01*
X2157Y4015D01*
X2176Y4000D01*
X2199Y3991D01*
X2222Y3988D01*
X2246Y3991D01*
X2269Y4000D01*
X2288Y4015D01*
X2302Y4034D01*
X2312Y4056D01*
X2315Y4080D01*
X2312Y4104D01*
X2302Y4126D01*
X2288Y4145D01*
X2269Y4160D01*
X2246Y4169D01*
X2222Y4172D01*
X2199Y4169D01*
X2176Y4160D01*
X2157Y4145D01*
X2143Y4126D01*
X2136Y4111D01*
X1998D01*
X1831Y4278D01*
Y5202D01*
X2007Y5379D01*
X2134D01*
Y5557D01*
X2146Y5562D01*
X2254Y5454D01*
Y4783D01*
X2254Y4783D01*
X2254Y4781D01*
Y4738D01*
X2254Y4738D01*
X2257Y4726D01*
X2263Y4716D01*
X2310Y4669D01*
Y4595D01*
X2352D01*
Y4460D01*
X2252D01*
Y4290D01*
X2403D01*
Y4407D01*
X2404Y4408D01*
X2404Y4408D01*
X2411Y4418D01*
X2413Y4430D01*
Y4595D01*
X2455D01*
Y4683D01*
X2466Y4687D01*
D01*
X2467Y4688D01*
X2531Y4623D01*
X2544Y4615D01*
X2560Y4611D01*
X2613D01*
X2617Y4608D01*
X2619Y4590D01*
X2626Y4575D01*
X2636Y4561D01*
X2650Y4551D01*
X2665Y4544D01*
X2683Y4542D01*
X2700Y4544D01*
X2715Y4551D01*
X2729Y4561D01*
X2739Y4575D01*
X2746Y4590D01*
X2748Y4608D01*
X2747Y4619D01*
X2754Y4623D01*
X2810Y4679D01*
X2819Y4693D01*
X2822Y4708D01*
X2822Y4708D01*
X2822Y4708D01*
Y4708D01*
Y4764D01*
X2828Y4773D01*
X2832Y4793D01*
Y4973D01*
X2828Y4992D01*
X2822Y5002D01*
Y5020D01*
X2965Y5164D01*
X2972Y5168D01*
X3036Y5232D01*
X3055Y5235D01*
X3071Y5247D01*
X3082Y5263D01*
X3086Y5283D01*
Y5332D01*
X3143D01*
Y5293D01*
X3143Y5293D01*
X3143D01*
X3146Y5277D01*
X3155Y5264D01*
X3184Y5235D01*
Y5133D01*
X3335D01*
Y5303D01*
X3232D01*
X3225Y5310D01*
Y5356D01*
X3232Y5363D01*
X3335D01*
Y5533D01*
X3184D01*
Y5431D01*
X3167Y5414D01*
X3086D01*
Y5463D01*
X3082Y5482D01*
X3071Y5499D01*
X3055Y5510D01*
X3035Y5514D01*
X3015Y5510D01*
X2999Y5499D01*
X2988Y5482D01*
X2984Y5463D01*
Y5296D01*
X2971Y5283D01*
X2959Y5288D01*
Y5463D01*
X2955Y5482D01*
X2944Y5499D01*
X2939Y5503D01*
Y5540D01*
X2948Y5548D01*
X2956Y5547D01*
X2973Y5549D01*
X2989Y5556D01*
X3003Y5566D01*
X3013Y5580D01*
X3020Y5596D01*
X3022Y5613D01*
X3020Y5630D01*
X3013Y5646D01*
X3003Y5659D01*
X2989Y5670D01*
X2973Y5676D01*
X2956Y5679D01*
X2939Y5676D01*
X2923Y5670D01*
X2910Y5659D01*
X2899Y5646D01*
X2893Y5630D01*
X2891Y5613D01*
X2892Y5600D01*
X2886Y5596D01*
X2879Y5586D01*
X2877Y5574D01*
Y5503D01*
X2872Y5499D01*
X2861Y5482D01*
X2857Y5463D01*
Y5283D01*
X2861Y5263D01*
X2872Y5247D01*
X2888Y5235D01*
X2902Y5233D01*
X2906Y5221D01*
X2752Y5066D01*
X2743Y5053D01*
X2740Y5037D01*
Y5002D01*
X2734Y4992D01*
X2730Y4973D01*
Y4793D01*
X2734Y4773D01*
X2740Y4764D01*
Y4725D01*
X2708Y4694D01*
X2577D01*
X2455Y4815D01*
Y4875D01*
X2315D01*
Y5436D01*
X2360D01*
X2360Y5436D01*
X2372Y5438D01*
X2382Y5445D01*
X2524Y5587D01*
X2536Y5581D01*
X2536Y5581D01*
X2536Y5581D01*
Y5213D01*
X2536Y5213D01*
X2538Y5201D01*
X2545Y5191D01*
X2585Y5151D01*
X2585Y5151D01*
X2595Y5144D01*
X2595Y5144D01*
X2595Y5144D01*
D01*
X2595Y5144D01*
X2595Y5144D01*
X2606Y5142D01*
X2746D01*
X2746Y5142D01*
X2758Y5144D01*
X2768Y5151D01*
X2803Y5185D01*
X2803Y5185D01*
X2809Y5196D01*
X2812Y5207D01*
Y5243D01*
X2817Y5247D01*
X2828Y5263D01*
X2832Y5283D01*
Y5463D01*
X2828Y5482D01*
X2817Y5499D01*
X2801Y5510D01*
X2781Y5514D01*
X2761Y5510D01*
X2745Y5499D01*
X2734Y5482D01*
X2730Y5463D01*
Y5283D01*
X2734Y5263D01*
X2745Y5247D01*
X2750Y5243D01*
Y5220D01*
X2734Y5204D01*
X2619D01*
X2597Y5226D01*
Y5255D01*
X2609Y5259D01*
X2618Y5247D01*
X2634Y5235D01*
X2654Y5232D01*
X2674Y5235D01*
X2690Y5247D01*
X2701Y5263D01*
X2705Y5283D01*
Y5463D01*
X2701Y5482D01*
X2690Y5499D01*
X2685Y5503D01*
Y5578D01*
X2805Y5697D01*
X3092D01*
X3092Y5697D01*
X3104Y5700D01*
X3114Y5706D01*
X3186Y5778D01*
X3186Y5778D01*
X3192Y5789D01*
X3195Y5800D01*
Y5839D01*
X3197Y5840D01*
X3207Y5855D01*
X3210Y5873D01*
Y6033D01*
X3207Y6050D01*
X3197Y6065D01*
X3182Y6075D01*
X3164Y6079D01*
X3146Y6075D01*
X3131Y6065D01*
X3121Y6050D01*
X3118Y6033D01*
Y5873D01*
X3121Y5855D01*
X3131Y5840D01*
X3133Y5839D01*
Y5813D01*
X3079Y5759D01*
X2912D01*
X2907Y5771D01*
X2932Y5795D01*
X2932Y5795D01*
X2938Y5805D01*
X2938Y5805D01*
X2938Y5805D01*
X2941Y5817D01*
X2941Y5817D01*
Y5839D01*
X2943Y5840D01*
X2953Y5855D01*
X2956Y5873D01*
Y6033D01*
X2953Y6050D01*
X2943Y6065D01*
X2928Y6075D01*
X2910Y6079D01*
X2892Y6075D01*
X2877Y6065D01*
X2867Y6050D01*
X2864Y6033D01*
Y5873D01*
X2867Y5855D01*
X2877Y5840D01*
X2879Y5830D01*
X2864Y5814D01*
X2789D01*
X2786Y5818D01*
X2785Y5824D01*
Y5824D01*
X2785Y5827D01*
X2785Y5827D01*
Y5827D01*
X2801Y5830D01*
X2816Y5840D01*
X2826Y5855D01*
X2829Y5873D01*
Y6033D01*
X2826Y6050D01*
X2816Y6065D01*
X2801Y6075D01*
X2783Y6079D01*
X2765Y6075D01*
X2750Y6065D01*
X2740Y6050D01*
X2737Y6033D01*
Y5887D01*
X2712Y5862D01*
X2701Y5868D01*
X2702Y5873D01*
Y6033D01*
X2699Y6050D01*
X2689Y6065D01*
X2674Y6075D01*
X2656Y6079D01*
X2638Y6075D01*
X2623Y6065D01*
X2613Y6050D01*
X2610Y6033D01*
Y5950D01*
X2545Y5886D01*
X2090D01*
X2087Y5898D01*
X2087Y5898D01*
X2107Y5913D01*
X2122Y5933D01*
X2132Y5956D01*
X2135Y5981D01*
X2132Y6005D01*
X2122Y6028D01*
X2107Y6048D01*
X2087Y6063D01*
X2065Y6072D01*
X2040Y6075D01*
X2015Y6072D01*
X1993Y6063D01*
X1973Y6048D01*
X1958Y6028D01*
X1948Y6005D01*
X1945Y5981D01*
X1948Y5956D01*
X1958Y5933D01*
X1973Y5913D01*
X1993Y5898D01*
X1993Y5898D01*
X1991Y5888D01*
X1990Y5886D01*
D01*
D01*
X1990D01*
D01*
D01*
D01*
X1990Y5886D01*
X1990D01*
Y5886D01*
D01*
D01*
D01*
D01*
X1978Y5883D01*
X1968Y5877D01*
X1968Y5877D01*
X1887Y5795D01*
X1880Y5785D01*
X1879Y5779D01*
X1866Y5776D01*
X1853Y5794D01*
X1833Y5809D01*
X1811Y5818D01*
X1786Y5821D01*
X1761Y5818D01*
X1739Y5809D01*
X1724Y5797D01*
X1648Y5873D01*
Y6262D01*
X1678Y6292D01*
X1795D01*
Y6416D01*
X1813Y6434D01*
X1825Y6429D01*
Y6292D01*
X1975D01*
Y6349D01*
X2047D01*
X2048Y6347D01*
X2058Y6333D01*
X2072Y6323D01*
X2088Y6316D01*
X2105Y6314D01*
X2122Y6316D01*
X2138Y6323D01*
X2152Y6333D01*
X2162Y6347D01*
X2169Y6363D01*
X2171Y6380D01*
X2169Y6397D01*
X2162Y6413D01*
X2152Y6427D01*
X2138Y6437D01*
X2122Y6444D01*
X2105Y6446D01*
X2088Y6444D01*
X2072Y6437D01*
X2058Y6427D01*
X2048Y6413D01*
X2047Y6411D01*
X1975D01*
Y6463D01*
D01*
Y6463D01*
X1979Y6467D01*
X2005D01*
X2005Y6467D01*
X2017Y6469D01*
X2027Y6476D01*
X2101Y6550D01*
X2114D01*
X2253Y6411D01*
X2253Y6411D01*
X2263Y6404D01*
X2265Y6404D01*
X2275Y6402D01*
X2275Y6402D01*
X2610D01*
Y6353D01*
X2613Y6335D01*
X2623Y6320D01*
X2638Y6310D01*
X2656Y6307D01*
X2674Y6310D01*
X2689Y6320D01*
X2699Y6335D01*
X2702Y6353D01*
Y6513D01*
X2699Y6530D01*
X2689Y6545D01*
X2674Y6555D01*
X2656Y6559D01*
X2638Y6555D01*
X2623Y6545D01*
X2613Y6530D01*
X2610Y6513D01*
Y6464D01*
X2287D01*
X2190Y6561D01*
Y6645D01*
D02*
G37*
G36*
X2783Y6559D02*
X2765Y6555D01*
X2750Y6545D01*
X2740Y6530D01*
X2737Y6513D01*
Y6353D01*
X2740Y6335D01*
X2748Y6324D01*
X2687Y6263D01*
X2520D01*
X2517Y6270D01*
X2507Y6284D01*
X2493Y6294D01*
X2477Y6301D01*
X2460Y6303D01*
X2443Y6301D01*
X2427Y6294D01*
X2413Y6284D01*
X2403Y6270D01*
X2396Y6255D01*
X2394Y6238D01*
X2396Y6220D01*
X2403Y6205D01*
X2413Y6191D01*
X2427Y6181D01*
X2443Y6174D01*
X2460Y6172D01*
X2477Y6174D01*
X2493Y6181D01*
X2507Y6191D01*
X2515Y6202D01*
X2700D01*
X2700Y6202D01*
X2712Y6204D01*
X2722Y6211D01*
X2805Y6294D01*
X2805Y6294D01*
X2811Y6304D01*
X2814Y6315D01*
Y6319D01*
X2816Y6320D01*
X2826Y6335D01*
X2829Y6353D01*
Y6513D01*
X2826Y6530D01*
X2816Y6545D01*
X2801Y6555D01*
X2783Y6559D01*
D02*
G37*
G36*
X7556Y6419D02*
X7539Y6415D01*
X7524Y6405D01*
X7514Y6390D01*
X7510Y6373D01*
Y6314D01*
X7509Y6312D01*
X7505Y6293D01*
Y6174D01*
X7471D01*
X7465Y6185D01*
X7472Y6195D01*
X7476Y6213D01*
Y6287D01*
X7476Y6288D01*
X7476Y6288D01*
Y6373D01*
X7472Y6390D01*
X7462Y6405D01*
X7447Y6415D01*
X7429Y6419D01*
X7412Y6415D01*
X7397Y6405D01*
X7387Y6390D01*
X7383Y6373D01*
Y6339D01*
X7075D01*
Y6385D01*
X6985D01*
Y6304D01*
X6981Y6288D01*
X6985Y6271D01*
Y6225D01*
X7075D01*
Y6237D01*
X7383D01*
Y6213D01*
X7387Y6195D01*
X7393Y6185D01*
X7387Y6174D01*
X6905D01*
X6829Y6250D01*
Y6338D01*
X6679D01*
Y6168D01*
X6767D01*
X6848Y6087D01*
D01*
X6848D01*
Y6087D01*
D01*
X6848D01*
Y6087D01*
X6848D01*
X6848Y6087D01*
Y6087D01*
X6848Y6087D01*
Y6087D01*
X6864Y6075D01*
X6884Y6072D01*
X7390D01*
X7392Y6071D01*
X7533D01*
X7553Y6075D01*
X7570Y6086D01*
X7570Y6086D01*
X7570Y6086D01*
X7593Y6109D01*
X7599Y6119D01*
X7604Y6126D01*
X7608Y6145D01*
Y6293D01*
X7604Y6312D01*
X7603Y6314D01*
Y6373D01*
X7599Y6390D01*
X7589Y6405D01*
X7574Y6415D01*
X7556Y6419D01*
D02*
G37*
G36*
X2910Y6559D02*
X2892Y6555D01*
X2877Y6545D01*
X2867Y6530D01*
X2864Y6513D01*
Y6353D01*
X2867Y6335D01*
X2877Y6320D01*
X2879Y6319D01*
Y6289D01*
X2879Y6289D01*
X2881Y6277D01*
X2888Y6267D01*
X2925Y6231D01*
X2925Y6231D01*
X2935Y6224D01*
X2935Y6224D01*
X2935Y6224D01*
D01*
X2935Y6224D01*
X2935Y6224D01*
X2946Y6222D01*
X3529D01*
X3606Y6146D01*
Y6103D01*
X3608Y6091D01*
X3615Y6081D01*
X3625Y6074D01*
X3636Y6072D01*
X3648Y6074D01*
X3658Y6081D01*
X3660Y6083D01*
X3669Y6079D01*
X3686Y6077D01*
X3703Y6079D01*
X3719Y6086D01*
X3733Y6096D01*
X3743Y6110D01*
X3750Y6126D01*
X3752Y6143D01*
X3750Y6160D01*
X3743Y6176D01*
X3733Y6189D01*
X3719Y6200D01*
X3703Y6206D01*
X3686Y6209D01*
X3669Y6206D01*
X3653Y6200D01*
X3645Y6193D01*
X3608Y6231D01*
X3613Y6242D01*
X3642D01*
Y6315D01*
X3559D01*
Y6290D01*
X3549Y6282D01*
X3542Y6284D01*
X3542Y6284D01*
X2959D01*
X2941Y6302D01*
Y6319D01*
X2943Y6320D01*
X2953Y6335D01*
X2956Y6353D01*
Y6513D01*
X2953Y6530D01*
X2943Y6545D01*
X2928Y6555D01*
X2910Y6559D01*
D02*
G37*
G36*
X10850Y6165D02*
Y6074D01*
X10940D01*
X10938Y6089D01*
X10928Y6114D01*
X10911Y6136D01*
X10889Y6152D01*
X10864Y6163D01*
X10850Y6165D01*
D02*
G37*
G36*
X10061Y6277D02*
X10008D01*
Y6149D01*
X10061D01*
Y6277D01*
D02*
G37*
G36*
X7659Y6678D02*
X7489D01*
Y6528D01*
X7577D01*
X7633Y6472D01*
Y6293D01*
X7637Y6274D01*
X7637Y6273D01*
Y6213D01*
X7641Y6195D01*
X7651Y6180D01*
X7666Y6170D01*
X7683Y6167D01*
X7701Y6170D01*
X7716Y6180D01*
X7726Y6195D01*
X7730Y6213D01*
Y6271D01*
X7731Y6274D01*
X7735Y6293D01*
Y6493D01*
X7731Y6512D01*
X7720Y6529D01*
X7659Y6590D01*
Y6678D01*
D02*
G37*
G36*
X10139Y6277D02*
X10087D01*
Y6149D01*
X10139D01*
Y6277D01*
D02*
G37*
G36*
X4708Y5654D02*
X4641D01*
X4619Y5649D01*
X4601Y5637D01*
X4589Y5619D01*
X4587Y5610D01*
X4708D01*
Y5654D01*
D02*
G37*
G36*
X3540Y5655D02*
X3467D01*
Y5572D01*
X3540D01*
Y5655D01*
D02*
G37*
G36*
X4801Y5654D02*
X4734D01*
Y5610D01*
X4855D01*
X4853Y5619D01*
X4841Y5637D01*
X4823Y5649D01*
X4801Y5654D01*
D02*
G37*
G36*
X10149Y5774D02*
X10097D01*
Y5646D01*
X10149D01*
Y5774D01*
D02*
G37*
G36*
X10071D02*
X10018D01*
Y5646D01*
X10071D01*
Y5774D01*
D02*
G37*
G36*
X3442Y5655D02*
X3369D01*
Y5572D01*
X3442D01*
Y5655D01*
D02*
G37*
G36*
X7810Y5939D02*
X7793Y5935D01*
X7778Y5925D01*
X7768Y5910D01*
X7764Y5893D01*
Y5837D01*
X7757Y5826D01*
X7753Y5806D01*
Y5563D01*
X7754Y5554D01*
X7746Y5544D01*
X7726D01*
Y5563D01*
X7556D01*
Y5413D01*
X7726D01*
Y5442D01*
X7785D01*
Y5415D01*
X7955D01*
Y5565D01*
X7874D01*
X7855Y5584D01*
Y5726D01*
X7857Y5733D01*
Y5893D01*
X7853Y5910D01*
X7843Y5925D01*
X7828Y5935D01*
X7810Y5939D01*
D02*
G37*
G36*
X4855Y5584D02*
X4734D01*
Y5541D01*
X4801D01*
X4823Y5545D01*
X4841Y5557D01*
X4853Y5576D01*
X4855Y5584D01*
D02*
G37*
G36*
X4050Y6423D02*
X3959D01*
Y6341D01*
X3885Y6267D01*
X3878Y6257D01*
X3876Y6245D01*
X3876Y6245D01*
Y6188D01*
X3831D01*
Y6018D01*
X3876D01*
Y5813D01*
X3876Y5813D01*
X3878Y5801D01*
X3885Y5791D01*
X4100Y5575D01*
X4100Y5575D01*
X4110Y5569D01*
X4110Y5569D01*
X4110Y5569D01*
D01*
X4110Y5569D01*
X4110Y5569D01*
X4122Y5566D01*
X4122Y5566D01*
X4127D01*
X4128Y5565D01*
X4143Y5555D01*
X4161Y5551D01*
X4321D01*
X4339Y5555D01*
X4354Y5565D01*
X4364Y5580D01*
X4367Y5597D01*
X4364Y5615D01*
X4354Y5630D01*
X4339Y5640D01*
X4321Y5643D01*
X4161D01*
X4143Y5640D01*
X4131Y5632D01*
X3937Y5826D01*
Y6018D01*
X3982D01*
Y6188D01*
X3937D01*
Y6232D01*
X3968Y6263D01*
X4050D01*
Y6423D01*
D02*
G37*
G36*
X10850Y5657D02*
Y5566D01*
X10940D01*
X10938Y5581D01*
X10928Y5606D01*
X10911Y5628D01*
X10889Y5644D01*
X10864Y5655D01*
X10850Y5657D01*
D02*
G37*
G36*
X10824D02*
X10810Y5655D01*
X10784Y5644D01*
X10763Y5628D01*
X10746Y5606D01*
X10735Y5581D01*
X10733Y5566D01*
X10824D01*
Y5657D01*
D02*
G37*
G36*
X6639Y6838D02*
X6489D01*
Y6668D01*
X6513D01*
Y6478D01*
X6458Y6423D01*
X6453Y6419D01*
X6417Y6384D01*
X6406Y6367D01*
X6402Y6348D01*
Y6310D01*
X5906Y5814D01*
X5338D01*
X5318Y5810D01*
X5311Y5805D01*
X5301Y5799D01*
X5179Y5676D01*
X5168Y5660D01*
X5164Y5640D01*
Y5474D01*
X5164Y5474D01*
X5164D01*
X5168Y5455D01*
X5179Y5438D01*
X5415Y5202D01*
Y4923D01*
X5415Y4923D01*
X5415D01*
X5419Y4903D01*
X5430Y4887D01*
X5661Y4656D01*
Y4099D01*
X5630Y4068D01*
X5619Y4052D01*
X5615Y4032D01*
Y3055D01*
X5533Y2973D01*
X5522Y2978D01*
X5522Y2980D01*
X5522Y2980D01*
X5522D01*
Y3050D01*
X5331D01*
Y2980D01*
X5331Y2980D01*
X5331D01*
X5331Y2977D01*
X5325Y2971D01*
X4576D01*
X4463Y3084D01*
X4478Y3099D01*
X4531D01*
X4549Y3103D01*
X4564Y3113D01*
X4574Y3128D01*
X4577Y3145D01*
X4574Y3163D01*
X4564Y3178D01*
X4549Y3188D01*
X4531Y3191D01*
X4473D01*
X4471Y3193D01*
X4451Y3196D01*
X4432Y3193D01*
X4430Y3191D01*
X4371D01*
X4354Y3188D01*
X4339Y3178D01*
X4329Y3163D01*
X4325Y3145D01*
X4325Y3144D01*
X4317Y3134D01*
X4242D01*
Y3158D01*
X4071D01*
Y3007D01*
X4242D01*
Y3031D01*
X4400D01*
X4488Y2943D01*
X4484Y2931D01*
X3576D01*
Y3204D01*
X3733Y3362D01*
X4106D01*
X4126Y3365D01*
X4143Y3377D01*
X4154Y3393D01*
X4158Y3413D01*
Y3468D01*
X4182D01*
Y3482D01*
X4364D01*
X4371Y3480D01*
X4531D01*
X4549Y3484D01*
X4564Y3494D01*
X4574Y3509D01*
X4577Y3526D01*
X4574Y3544D01*
X4564Y3559D01*
X4549Y3569D01*
X4531Y3572D01*
X4476D01*
X4464Y3580D01*
X4445Y3584D01*
X4182D01*
Y3638D01*
X4031D01*
Y3468D01*
D01*
Y3468D01*
X4028Y3464D01*
X4012D01*
Y3540D01*
X3841D01*
Y3464D01*
X3726D01*
X3707Y3460D01*
X3690Y3449D01*
X3679Y3432D01*
X3677Y3421D01*
X3506Y3250D01*
X3497Y3237D01*
X3494Y3221D01*
Y2890D01*
X3497Y2874D01*
X3506Y2861D01*
X3519Y2852D01*
X3535Y2849D01*
X4476D01*
X4499Y2826D01*
X4512Y2817D01*
X4528Y2814D01*
X5497D01*
X5501Y2802D01*
X5486Y2789D01*
X5465Y2763D01*
X5453Y2733D01*
X5450Y2713D01*
X5750D01*
X5747Y2733D01*
X5735Y2763D01*
X5714Y2789D01*
X5688Y2810D01*
X5658Y2822D01*
X5638Y2825D01*
X5634Y2837D01*
X6009Y3212D01*
X6233D01*
X6237Y3206D01*
X6251Y3196D01*
X6267Y3189D01*
X6284Y3187D01*
X6301Y3189D01*
X6317Y3196D01*
X6330Y3206D01*
X6341Y3220D01*
X6347Y3236D01*
X6350Y3253D01*
X6347Y3270D01*
X6341Y3284D01*
X6345Y3303D01*
Y3408D01*
X6379D01*
Y3558D01*
X6209D01*
Y3408D01*
X6243D01*
Y3303D01*
X6237Y3299D01*
X6233Y3294D01*
X5992D01*
X5976Y3291D01*
X5963Y3282D01*
X5729Y3048D01*
X5718Y3053D01*
Y3412D01*
X5786D01*
Y3468D01*
Y3523D01*
X5718D01*
Y3613D01*
X5718D01*
X5719D01*
X5727Y3613D01*
X5727Y3613D01*
Y3613D01*
X5776D01*
X5779Y3610D01*
X5799Y3607D01*
X5819Y3610D01*
X5822Y3613D01*
X5879D01*
Y3666D01*
X6075Y3862D01*
X6154D01*
X6174Y3865D01*
X6190Y3877D01*
X6190Y3877D01*
X6190Y3877D01*
X6290Y3977D01*
X6301Y3993D01*
X6301Y3993D01*
X6301Y3993D01*
X6305Y4013D01*
Y4038D01*
X6329D01*
Y4208D01*
X6179D01*
Y4038D01*
X6190D01*
X6194Y4026D01*
X6133Y3964D01*
X6054D01*
X6034Y3960D01*
X6018Y3949D01*
X5772Y3703D01*
X5727D01*
X5727Y3703D01*
Y3703D01*
X5719Y3703D01*
X5718Y3704D01*
Y4011D01*
X5748Y4041D01*
X5759Y4058D01*
X5763Y4077D01*
X5763Y4077D01*
X5763Y4077D01*
Y4077D01*
Y4677D01*
X5759Y4697D01*
X5755Y4704D01*
X5748Y4714D01*
X5518Y4944D01*
Y5223D01*
X5514Y5242D01*
X5503Y5259D01*
X5266Y5495D01*
Y5619D01*
X5359Y5711D01*
X5928D01*
X5947Y5715D01*
X5964Y5726D01*
X5964Y5726D01*
X5964Y5726D01*
X6445Y6208D01*
X6456Y6202D01*
X6453Y6183D01*
Y6031D01*
X6448Y6024D01*
X6444Y6004D01*
Y5768D01*
X6438Y5760D01*
X6431Y5745D01*
X6429Y5728D01*
X6431Y5710D01*
X6438Y5695D01*
X6448Y5681D01*
X6462Y5671D01*
X6478Y5664D01*
X6495Y5662D01*
X6512Y5664D01*
X6528Y5671D01*
X6542Y5681D01*
X6552Y5695D01*
X6559Y5710D01*
X6561Y5728D01*
X6559Y5745D01*
X6552Y5760D01*
X6546Y5768D01*
Y5898D01*
X6609D01*
Y6068D01*
X6555D01*
Y6162D01*
X6561Y6168D01*
X6649D01*
Y6338D01*
X6535D01*
X6530Y6350D01*
X6600Y6420D01*
X6611Y6437D01*
X6615Y6456D01*
X6615Y6456D01*
X6615Y6456D01*
Y6456D01*
Y6668D01*
X6639D01*
Y6838D01*
D02*
G37*
G36*
X4801Y5781D02*
X4734D01*
Y5737D01*
X4855D01*
X4853Y5746D01*
X4841Y5764D01*
X4823Y5776D01*
X4801Y5781D01*
D02*
G37*
G36*
X4696Y6295D02*
X4606D01*
Y6134D01*
X4688D01*
X4696Y6127D01*
Y6053D01*
X4649D01*
Y5883D01*
X4649Y5883D01*
X4649D01*
X4653Y5873D01*
X4604Y5824D01*
X4600Y5823D01*
X4590Y5816D01*
X4590Y5816D01*
X4577Y5804D01*
X4276D01*
X4265Y5801D01*
X4255Y5795D01*
X4248Y5785D01*
X4246Y5773D01*
Y5772D01*
X4244Y5770D01*
X4161D01*
X4143Y5767D01*
X4128Y5757D01*
X4118Y5742D01*
X4115Y5724D01*
X4118Y5707D01*
X4128Y5692D01*
X4143Y5682D01*
X4161Y5678D01*
X4321D01*
X4339Y5682D01*
X4354Y5692D01*
X4364Y5707D01*
X4367Y5724D01*
X4366Y5732D01*
X4374Y5742D01*
X4578D01*
X4582Y5737D01*
X4708D01*
Y5781D01*
X4664D01*
X4660Y5792D01*
X4746Y5879D01*
X4746Y5879D01*
X4749Y5883D01*
X4800D01*
Y6053D01*
X4757D01*
Y6139D01*
X4757Y6139D01*
X4755Y6151D01*
X4748Y6161D01*
X4748Y6161D01*
X4696Y6213D01*
Y6295D01*
D02*
G37*
G36*
X3496Y6154D02*
X3496Y6154D01*
X3096D01*
X3085Y6151D01*
X3075Y6145D01*
X3075Y6145D01*
X3015Y6085D01*
X3008Y6075D01*
X3007Y6067D01*
X3004Y6065D01*
X2994Y6050D01*
X2991Y6033D01*
Y5873D01*
X2994Y5855D01*
X3004Y5840D01*
X3019Y5830D01*
X3037Y5827D01*
X3055Y5830D01*
X3070Y5840D01*
X3080Y5855D01*
X3083Y5873D01*
Y6033D01*
X3080Y6050D01*
X3075Y6058D01*
X3109Y6092D01*
X3385D01*
X3389Y6080D01*
X3378Y6073D01*
X3366Y6054D01*
X3361Y6033D01*
Y5965D01*
X3474D01*
Y6033D01*
X3470Y6054D01*
X3458Y6073D01*
X3447Y6080D01*
X3451Y6092D01*
X3484D01*
X3694Y5882D01*
X3689Y5876D01*
X3683Y5860D01*
X3681Y5843D01*
X3683Y5826D01*
X3689Y5810D01*
X3700Y5796D01*
X3713Y5786D01*
X3729Y5779D01*
X3746Y5777D01*
X3763Y5779D01*
X3779Y5786D01*
X3793Y5796D01*
X3803Y5810D01*
X3810Y5826D01*
X3812Y5843D01*
X3810Y5860D01*
X3803Y5876D01*
X3793Y5889D01*
X3779Y5900D01*
X3763Y5906D01*
X3755Y5907D01*
X3518Y6145D01*
X3508Y6151D01*
X3496Y6154D01*
D02*
G37*
G36*
X10824Y5911D02*
X10810Y5909D01*
X10784Y5898D01*
X10763Y5882D01*
X10746Y5860D01*
X10735Y5835D01*
X10733Y5820D01*
X10824D01*
Y5911D01*
D02*
G37*
G36*
X10139Y6124D02*
X10008D01*
Y5996D01*
X10033D01*
Y5927D01*
X10018D01*
Y5799D01*
X10149D01*
Y5927D01*
X10135D01*
Y5996D01*
X10139D01*
Y6124D01*
D02*
G37*
G36*
X11091Y5902D02*
X11066Y5899D01*
X11043Y5889D01*
X11024Y5874D01*
X11009Y5855D01*
X10999Y5832D01*
X10996Y5807D01*
X10999Y5783D01*
X11009Y5760D01*
X11024Y5740D01*
X11043Y5725D01*
X11066Y5716D01*
X11091Y5713D01*
X11115Y5716D01*
X11138Y5725D01*
X11158Y5740D01*
X11173Y5760D01*
X11182Y5783D01*
X11186Y5807D01*
X11182Y5832D01*
X11173Y5855D01*
X11158Y5874D01*
X11138Y5889D01*
X11115Y5899D01*
X11091Y5902D01*
D02*
G37*
G36*
X4855Y5711D02*
X4734D01*
Y5668D01*
X4801D01*
X4823Y5672D01*
X4841Y5684D01*
X4853Y5703D01*
X4855Y5711D01*
D02*
G37*
G36*
X4708D02*
X4587D01*
X4589Y5703D01*
X4601Y5684D01*
X4619Y5672D01*
X4641Y5668D01*
X4708D01*
Y5711D01*
D02*
G37*
G36*
X7429Y5939D02*
X7412Y5935D01*
X7397Y5925D01*
X7387Y5910D01*
X7383Y5893D01*
Y5864D01*
X7169D01*
X7149Y5860D01*
X7133Y5849D01*
X7102Y5818D01*
X7049D01*
Y5761D01*
X7047Y5757D01*
X7043Y5738D01*
X7047Y5718D01*
X7049Y5715D01*
Y5658D01*
X7139D01*
Y5711D01*
X7190Y5762D01*
X7383D01*
Y5733D01*
X7387Y5715D01*
X7397Y5700D01*
X7412Y5690D01*
X7429Y5687D01*
X7447Y5690D01*
X7462Y5700D01*
X7472Y5715D01*
X7476Y5733D01*
Y5791D01*
X7477Y5793D01*
X7481Y5813D01*
X7477Y5832D01*
X7476Y5834D01*
Y5893D01*
X7472Y5910D01*
X7462Y5925D01*
X7447Y5935D01*
X7429Y5939D01*
D02*
G37*
G36*
X10940Y5795D02*
X10850D01*
Y5704D01*
X10864Y5706D01*
X10889Y5716D01*
X10911Y5733D01*
X10928Y5755D01*
X10938Y5780D01*
X10940Y5795D01*
D02*
G37*
G36*
X10824D02*
X10733D01*
X10735Y5780D01*
X10746Y5755D01*
X10763Y5733D01*
X10784Y5716D01*
X10810Y5706D01*
X10824Y5704D01*
Y5795D01*
D02*
G37*
G36*
X4543Y6412D02*
X4501D01*
Y6334D01*
X4543D01*
Y6412D01*
D02*
G37*
G36*
X2190Y6835D02*
X2045D01*
Y6745D01*
X2190D01*
Y6749D01*
X2504D01*
X2506Y6733D01*
X2513Y6717D01*
X2523Y6703D01*
X2537Y6693D01*
X2553Y6686D01*
X2570Y6684D01*
X2587Y6686D01*
X2603Y6693D01*
X2617Y6703D01*
X2627Y6717D01*
X2634Y6733D01*
X2634Y6737D01*
X2646Y6741D01*
X2657Y6730D01*
Y6647D01*
X2808D01*
Y6818D01*
X2685D01*
X2684Y6819D01*
X2671Y6828D01*
X2655Y6831D01*
X2190D01*
Y6835D01*
D02*
G37*
G36*
X1975Y6682D02*
X1905D01*
Y6640D01*
X1975D01*
Y6682D01*
D02*
G37*
G36*
X7561Y6770D02*
X7479D01*
Y6697D01*
X7561D01*
Y6770D01*
D02*
G37*
G36*
X7821Y6780D02*
X7739D01*
Y6707D01*
X7821D01*
Y6780D01*
D02*
G37*
G36*
X7669Y6770D02*
X7587D01*
Y6697D01*
X7669D01*
Y6770D01*
D02*
G37*
G36*
X1880Y6682D02*
X1810D01*
Y6640D01*
X1880D01*
Y6682D01*
D02*
G37*
G36*
X8679Y6668D02*
X8607D01*
Y6585D01*
X8679D01*
Y6668D01*
D02*
G37*
G36*
X8581D02*
X8508D01*
Y6585D01*
X8581D01*
Y6668D01*
D02*
G37*
G36*
X4940Y6943D02*
X4923Y6941D01*
X4907Y6934D01*
X4893Y6924D01*
X4883Y6910D01*
X4876Y6895D01*
X4874Y6878D01*
X4876Y6860D01*
X4883Y6845D01*
X4893Y6831D01*
X4907Y6821D01*
X4923Y6814D01*
X4940Y6812D01*
X4951Y6813D01*
X4960Y6805D01*
Y6775D01*
X4916D01*
Y6604D01*
X5066D01*
Y6775D01*
X5022D01*
Y6827D01*
X5019Y6838D01*
X5013Y6848D01*
X5013Y6848D01*
X5003Y6858D01*
X5004Y6860D01*
X5006Y6878D01*
X5004Y6895D01*
X4997Y6910D01*
X4987Y6924D01*
X4973Y6934D01*
X4957Y6941D01*
X4940Y6943D01*
D02*
G37*
G36*
X2988Y6818D02*
X2837D01*
Y6647D01*
X2934D01*
X3006Y6575D01*
Y6547D01*
X3004Y6545D01*
X2994Y6530D01*
X2991Y6513D01*
Y6353D01*
X2994Y6335D01*
X3004Y6320D01*
X3019Y6310D01*
X3037Y6307D01*
X3055Y6310D01*
X3070Y6320D01*
X3080Y6335D01*
X3083Y6353D01*
Y6513D01*
X3080Y6530D01*
X3070Y6545D01*
X3068Y6547D01*
Y6588D01*
X3065Y6600D01*
X3059Y6610D01*
X3059Y6610D01*
X2988Y6681D01*
Y6714D01*
X3042D01*
X3055Y6702D01*
X3054Y6700D01*
X3052Y6682D01*
X3054Y6665D01*
X3061Y6650D01*
X3071Y6636D01*
X3085Y6626D01*
X3100Y6619D01*
X3117Y6617D01*
X3135Y6619D01*
X3150Y6626D01*
X3164Y6636D01*
X3174Y6650D01*
X3181Y6665D01*
X3183Y6682D01*
X3181Y6700D01*
X3174Y6715D01*
X3164Y6729D01*
X3150Y6739D01*
X3135Y6746D01*
X3117Y6748D01*
X3100Y6746D01*
X3098Y6745D01*
X3077Y6767D01*
X3067Y6773D01*
X3055Y6776D01*
X3055Y6776D01*
X2988D01*
Y6818D01*
D02*
G37*
G36*
X4331Y6951D02*
X4331Y6951D01*
X3524D01*
X3512Y6948D01*
X3502Y6942D01*
X3502Y6942D01*
X3142Y6582D01*
X3135Y6572D01*
X3133Y6560D01*
X3133Y6560D01*
Y6547D01*
X3131Y6545D01*
X3121Y6530D01*
X3118Y6513D01*
Y6353D01*
X3121Y6335D01*
X3131Y6320D01*
X3146Y6310D01*
X3164Y6307D01*
X3182Y6310D01*
X3197Y6320D01*
X3207Y6335D01*
X3210Y6353D01*
Y6513D01*
X3207Y6530D01*
X3197Y6545D01*
X3204Y6557D01*
X3536Y6889D01*
X3555D01*
X3558Y6877D01*
X3555Y6875D01*
X3555Y6875D01*
X3269Y6589D01*
X3262Y6579D01*
X3260Y6567D01*
X3260Y6567D01*
Y6547D01*
X3258Y6545D01*
X3248Y6530D01*
X3245Y6513D01*
Y6353D01*
X3248Y6335D01*
X3258Y6320D01*
X3273Y6310D01*
X3291Y6307D01*
X3309Y6310D01*
X3324Y6320D01*
X3334Y6335D01*
X3337Y6353D01*
Y6513D01*
X3334Y6530D01*
X3324Y6545D01*
X3345Y6578D01*
X3589Y6822D01*
X3827D01*
X3839Y6809D01*
Y6693D01*
X3990D01*
Y6863D01*
X3873D01*
X3861Y6875D01*
X3858Y6877D01*
X3861Y6889D01*
X4318D01*
X4486Y6721D01*
Y6604D01*
X4636D01*
Y6775D01*
X4519D01*
X4353Y6942D01*
X4342Y6948D01*
X4331Y6951D01*
D02*
G37*
G36*
X7929Y6780D02*
X7847D01*
Y6707D01*
X7929D01*
Y6780D01*
D02*
G37*
G36*
X7821Y6878D02*
X7739D01*
Y6805D01*
X7821D01*
Y6878D01*
D02*
G37*
G36*
X7669Y6868D02*
X7587D01*
Y6795D01*
X7669D01*
Y6868D01*
D02*
G37*
G36*
X7929Y6878D02*
X7847D01*
Y6805D01*
X7929D01*
Y6878D01*
D02*
G37*
G36*
X8189Y6918D02*
X8107D01*
Y6846D01*
X8189D01*
Y6918D01*
D02*
G37*
G36*
X8081D02*
X7999D01*
Y6846D01*
X8081D01*
Y6918D01*
D02*
G37*
G36*
X7561Y6868D02*
X7479D01*
Y6795D01*
X7561D01*
Y6868D01*
D02*
G37*
G36*
X1975Y6750D02*
X1905D01*
Y6708D01*
X1975D01*
Y6750D01*
D02*
G37*
G36*
X1880D02*
X1810D01*
Y6708D01*
X1880D01*
Y6750D01*
D02*
G37*
G36*
X8429Y6928D02*
X8279D01*
Y6825D01*
X8201Y6747D01*
X8197Y6749D01*
D01*
X8189Y6752D01*
Y6820D01*
X8107D01*
Y6747D01*
X8185D01*
X8188Y6740D01*
D01*
X8189Y6736D01*
X8180Y6728D01*
X8179Y6728D01*
Y6728D01*
X8179Y6728D01*
X8009D01*
Y6630D01*
X7931Y6552D01*
X7919Y6557D01*
Y6688D01*
X7749D01*
Y6538D01*
X7770D01*
X7774Y6526D01*
X7774Y6526D01*
X7763Y6509D01*
X7759Y6489D01*
Y6293D01*
Y6156D01*
X7759Y6156D01*
X7759D01*
X7763Y6137D01*
X7774Y6120D01*
X7808Y6086D01*
X7825Y6075D01*
X7844Y6071D01*
X7944D01*
X7948Y6059D01*
X7901Y6013D01*
X7890Y5996D01*
X7886Y5976D01*
Y5813D01*
X7890Y5793D01*
X7891Y5791D01*
Y5733D01*
X7895Y5715D01*
X7905Y5700D01*
X7920Y5690D01*
X7937Y5687D01*
X7955Y5690D01*
X7970Y5700D01*
X7980Y5715D01*
X7984Y5733D01*
Y5791D01*
X7985Y5793D01*
X7989Y5813D01*
Y5955D01*
X8005Y5972D01*
X8113D01*
X8140Y5944D01*
Y5813D01*
Y5732D01*
X8140Y5732D01*
X8140D01*
X8144Y5712D01*
X8155Y5696D01*
X8254Y5597D01*
X8271Y5585D01*
X8291Y5582D01*
X8443D01*
X8479Y5546D01*
Y5458D01*
X8649D01*
Y5608D01*
X8561D01*
X8500Y5669D01*
X8485Y5679D01*
X8488Y5692D01*
X8653D01*
X8754Y5590D01*
X8750Y5578D01*
X8739D01*
Y5428D01*
X8909D01*
Y5578D01*
X8875D01*
Y5593D01*
X8871Y5612D01*
X8867Y5619D01*
X8860Y5629D01*
X8710Y5779D01*
X8694Y5790D01*
X8674Y5794D01*
X8410D01*
X8365Y5839D01*
Y5893D01*
X8361Y5910D01*
X8351Y5925D01*
X8336Y5935D01*
X8318Y5939D01*
X8301Y5935D01*
X8286Y5925D01*
X8276Y5910D01*
X8272Y5893D01*
Y5834D01*
X8271Y5832D01*
X8267Y5813D01*
X8271Y5793D01*
X8272Y5791D01*
Y5740D01*
X8261Y5735D01*
X8243Y5753D01*
Y5813D01*
Y5965D01*
X8239Y5985D01*
X8228Y6002D01*
X8170Y6059D01*
X8174Y6071D01*
X8463D01*
X8499Y6036D01*
Y5998D01*
X8537D01*
X8538Y5997D01*
X8554Y5985D01*
X8574Y5982D01*
X8594Y5985D01*
X8610Y5997D01*
X8611Y5998D01*
X8669D01*
Y6148D01*
X8531D01*
X8521Y6159D01*
X8504Y6170D01*
X8484Y6174D01*
X8360D01*
X8354Y6185D01*
X8361Y6195D01*
X8365Y6213D01*
Y6373D01*
X8361Y6390D01*
X8351Y6405D01*
X8336Y6415D01*
X8318Y6419D01*
X8301Y6415D01*
X8286Y6405D01*
X8276Y6390D01*
X8272Y6373D01*
Y6213D01*
X8276Y6195D01*
X8283Y6185D01*
X8277Y6174D01*
X8233D01*
X8227Y6185D01*
X8234Y6195D01*
X8238Y6213D01*
Y6373D01*
X8234Y6390D01*
X8224Y6405D01*
X8218Y6409D01*
X8222Y6422D01*
X8224D01*
X8244Y6425D01*
X8260Y6437D01*
X8295Y6472D01*
X8368D01*
X8378Y6457D01*
X8499Y6335D01*
X8500Y6326D01*
X8507Y6310D01*
X8517Y6296D01*
X8531Y6286D01*
X8547Y6279D01*
X8564Y6277D01*
X8581Y6279D01*
X8597Y6286D01*
X8610Y6296D01*
X8621Y6310D01*
X8627Y6326D01*
X8630Y6343D01*
X8627Y6360D01*
X8621Y6376D01*
X8610Y6389D01*
X8597Y6400D01*
X8581Y6406D01*
X8572Y6408D01*
X8513Y6466D01*
X8518Y6477D01*
X8581D01*
Y6560D01*
X8508D01*
Y6487D01*
X8500Y6484D01*
X8489Y6491D01*
Y6658D01*
X8339D01*
Y6574D01*
X8274D01*
X8254Y6570D01*
X8238Y6559D01*
X8203Y6524D01*
X8084D01*
X8064Y6520D01*
X8056Y6515D01*
X8048Y6524D01*
X8085Y6562D01*
X8139D01*
X8159Y6565D01*
X8176Y6577D01*
X8177Y6578D01*
X8179D01*
Y6580D01*
X8357Y6758D01*
X8429D01*
Y6928D01*
D02*
G37*
G36*
X10249Y6882D02*
X10099D01*
Y6848D01*
X10009D01*
X9989Y6844D01*
X9972Y6833D01*
X9917Y6778D01*
X9912Y6778D01*
X9895Y6776D01*
X9880Y6769D01*
X9866Y6759D01*
X9856Y6745D01*
X9849Y6730D01*
X9847Y6712D01*
X9849Y6695D01*
X9856Y6680D01*
X9866Y6666D01*
X9880Y6656D01*
X9895Y6649D01*
X9912Y6647D01*
X9930Y6649D01*
X9945Y6656D01*
X9959Y6666D01*
X9969Y6680D01*
X9973Y6688D01*
X10030Y6745D01*
X10099D01*
Y6711D01*
X10123D01*
Y6637D01*
X10019D01*
Y6376D01*
X10129D01*
Y6489D01*
X10210Y6570D01*
X10221Y6587D01*
X10225Y6606D01*
Y6711D01*
X10249D01*
Y6882D01*
D02*
G37*
G36*
X8081Y6820D02*
X7999D01*
Y6747D01*
X8081D01*
Y6820D01*
D02*
G37*
G36*
X7112Y6502D02*
X7070D01*
Y6425D01*
X7112D01*
Y6502D01*
D02*
G37*
G36*
X5246Y6775D02*
X5096D01*
Y6604D01*
X5140D01*
Y6530D01*
X5126D01*
Y6369D01*
X5216D01*
Y6530D01*
X5202D01*
Y6604D01*
X5246D01*
Y6775D01*
D02*
G37*
G36*
X7180Y6502D02*
X7138D01*
Y6425D01*
X7180D01*
Y6502D01*
D02*
G37*
G36*
X4543Y6515D02*
X4501D01*
Y6437D01*
X4543D01*
Y6515D01*
D02*
G37*
G36*
X6819Y6838D02*
X6669D01*
Y6668D01*
X6747D01*
X6882Y6532D01*
X6890Y6527D01*
Y6435D01*
X6980D01*
Y6595D01*
X6961D01*
X6955Y6605D01*
X6819Y6740D01*
Y6838D01*
D02*
G37*
G36*
X5036Y6437D02*
X4994D01*
Y6359D01*
X5036D01*
Y6437D01*
D02*
G37*
G36*
X3642Y6413D02*
X3559D01*
Y6340D01*
X3642D01*
Y6413D01*
D02*
G37*
G36*
X4611Y6412D02*
X4569D01*
Y6334D01*
X4611D01*
Y6412D01*
D02*
G37*
G36*
X3750Y6413D02*
X3667D01*
Y6340D01*
X3750D01*
Y6413D01*
D02*
G37*
G36*
X4968Y6437D02*
X4926D01*
Y6359D01*
X4968D01*
Y6437D01*
D02*
G37*
G36*
X4816Y6775D02*
X4666D01*
Y6604D01*
X4715D01*
Y6505D01*
X4701D01*
Y6344D01*
X4791D01*
Y6505D01*
X4777D01*
Y6604D01*
X4816D01*
Y6775D01*
D02*
G37*
G36*
X4611Y6515D02*
X4569D01*
Y6437D01*
X4611D01*
Y6515D01*
D02*
G37*
G36*
X7180Y6605D02*
X7138D01*
Y6528D01*
X7180D01*
Y6605D01*
D02*
G37*
G36*
X7112D02*
X7070D01*
Y6528D01*
X7112D01*
Y6605D01*
D02*
G37*
G36*
X3563Y6749D02*
X3546Y6747D01*
X3531Y6740D01*
X3517Y6730D01*
X3506Y6716D01*
X3500Y6700D01*
X3498Y6683D01*
X3500Y6666D01*
X3506Y6650D01*
X3517Y6637D01*
X3531Y6626D01*
X3545Y6620D01*
X3573Y6592D01*
X3569Y6583D01*
X3569D01*
X3569Y6583D01*
Y6549D01*
X3493D01*
X3477Y6546D01*
X3466Y6538D01*
X3454Y6541D01*
X3451Y6545D01*
X3436Y6555D01*
X3418Y6559D01*
X3400Y6555D01*
X3385Y6545D01*
X3375Y6530D01*
X3372Y6513D01*
Y6353D01*
X3375Y6335D01*
X3385Y6320D01*
X3400Y6310D01*
X3418Y6307D01*
X3436Y6310D01*
X3451Y6320D01*
X3461Y6335D01*
X3464Y6353D01*
Y6421D01*
X3510Y6467D01*
X3569D01*
Y6433D01*
X3740D01*
Y6583D01*
X3693D01*
X3692Y6585D01*
X3683Y6598D01*
X3624Y6658D01*
X3627Y6666D01*
X3629Y6683D01*
X3627Y6700D01*
X3620Y6716D01*
X3610Y6730D01*
X3596Y6740D01*
X3580Y6747D01*
X3563Y6749D01*
D02*
G37*
G36*
X3965Y6643D02*
X3922D01*
Y6565D01*
X3965D01*
Y6643D01*
D02*
G37*
G36*
X3897D02*
X3854D01*
Y6565D01*
X3897D01*
Y6643D01*
D02*
G37*
G36*
X8679Y6560D02*
X8607D01*
Y6477D01*
X8679D01*
Y6560D01*
D02*
G37*
G36*
X3965Y6540D02*
X3922D01*
Y6462D01*
X3965D01*
Y6540D01*
D02*
G37*
G36*
X3897D02*
X3854D01*
Y6462D01*
X3897D01*
Y6540D01*
D02*
G37*
G36*
X4968Y6540D02*
X4926D01*
Y6462D01*
X4968D01*
Y6540D01*
D02*
G37*
G36*
X4170Y6863D02*
X4019D01*
Y6693D01*
X4069D01*
Y6633D01*
X4054D01*
Y6473D01*
X4145D01*
Y6633D01*
X4130D01*
Y6693D01*
X4170D01*
Y6863D01*
D02*
G37*
G36*
X5036Y6540D02*
X4994D01*
Y6462D01*
X5036D01*
Y6540D01*
D02*
G37*
G36*
X4708Y5584D02*
X4587D01*
X4589Y5576D01*
X4601Y5557D01*
X4619Y5545D01*
X4641Y5541D01*
X4708D01*
Y5584D01*
D02*
G37*
G36*
X4056Y5118D02*
X3974D01*
Y5045D01*
X4056D01*
Y5118D01*
D02*
G37*
G36*
X3948D02*
X3865D01*
Y5045D01*
X3948D01*
Y5118D01*
D02*
G37*
G36*
X7955Y5385D02*
X7785D01*
Y5235D01*
X7823D01*
Y5203D01*
X7827Y5183D01*
X7838Y5167D01*
X7898Y5107D01*
X7914Y5095D01*
X7914Y5095D01*
X7914Y5095D01*
D01*
X7914Y5095D01*
X7914Y5095D01*
X7934Y5092D01*
X8248D01*
Y5092D01*
Y5088D01*
X8249Y5083D01*
X8248Y5083D01*
X8249D01*
Y5015D01*
X8439D01*
Y5083D01*
X8439Y5083D01*
D01*
D01*
X8439Y5088D01*
D01*
X8443Y5092D01*
X8613D01*
X8621Y5086D01*
X8637Y5079D01*
X8654Y5077D01*
X8671Y5079D01*
X8687Y5086D01*
X8700Y5096D01*
X8711Y5110D01*
X8717Y5126D01*
X8720Y5143D01*
X8717Y5160D01*
X8711Y5176D01*
X8700Y5189D01*
X8687Y5200D01*
X8671Y5206D01*
X8654Y5209D01*
X8637Y5206D01*
X8621Y5200D01*
X8613Y5194D01*
X7955D01*
X7926Y5223D01*
X7931Y5235D01*
X7955D01*
Y5385D01*
D02*
G37*
G36*
X2458Y5142D02*
Y5080D01*
X2519D01*
X2518Y5087D01*
X2511Y5106D01*
X2499Y5121D01*
X2483Y5133D01*
X2465Y5141D01*
X2458Y5142D01*
D02*
G37*
G36*
X2432D02*
X2425Y5141D01*
X2407Y5133D01*
X2391Y5121D01*
X2379Y5106D01*
X2372Y5087D01*
X2371Y5080D01*
X2432D01*
Y5142D01*
D02*
G37*
G36*
X10139Y5547D02*
X10029D01*
Y5286D01*
X10033D01*
Y5206D01*
X10037Y5187D01*
X10048Y5170D01*
X10049Y5169D01*
X10044Y5158D01*
X10024Y5154D01*
X10008Y5143D01*
X9956Y5091D01*
X9947Y5090D01*
X9931Y5083D01*
X9917Y5073D01*
X9907Y5059D01*
X9900Y5043D01*
X9898Y5026D01*
X9900Y5009D01*
X9907Y4993D01*
X9917Y4980D01*
X9931Y4969D01*
X9947Y4963D01*
X9964Y4961D01*
X9981Y4963D01*
X9997Y4969D01*
X10010Y4980D01*
X10021Y4993D01*
X10027Y5009D01*
X10029Y5019D01*
X10065Y5055D01*
X10109D01*
Y5021D01*
X10259D01*
Y5192D01*
X10171D01*
X10135Y5228D01*
Y5286D01*
X10139D01*
Y5547D01*
D02*
G37*
G36*
X2432Y5055D02*
X2371D01*
X2372Y5048D01*
X2379Y5029D01*
X2391Y5014D01*
X2407Y5002D01*
X2425Y4994D01*
X2432Y4993D01*
Y5055D01*
D02*
G37*
G36*
X4801Y5135D02*
X4641D01*
X4623Y5132D01*
X4608Y5122D01*
X4598Y5107D01*
X4595Y5089D01*
X4598Y5072D01*
X4608Y5057D01*
X4623Y5047D01*
X4641Y5043D01*
X4801D01*
X4819Y5047D01*
X4834Y5057D01*
X4837Y5061D01*
X4912D01*
X4921Y5051D01*
X4921Y5050D01*
X4923Y5033D01*
X4929Y5017D01*
X4940Y5004D01*
X4953Y4993D01*
X4969Y4987D01*
X4986Y4984D01*
X5003Y4987D01*
X5019Y4993D01*
X5033Y5004D01*
X5043Y5017D01*
X5050Y5033D01*
X5052Y5050D01*
X5050Y5067D01*
X5043Y5083D01*
X5033Y5097D01*
X5019Y5107D01*
X5003Y5114D01*
X4986Y5116D01*
X4969Y5114D01*
X4965Y5112D01*
X4961Y5115D01*
X4950Y5117D01*
X4837D01*
X4834Y5122D01*
X4819Y5132D01*
X4801Y5135D01*
D02*
G37*
G36*
X2519Y5055D02*
X2458D01*
Y4993D01*
X2465Y4994D01*
X2483Y5002D01*
X2499Y5014D01*
X2511Y5029D01*
X2518Y5048D01*
X2519Y5055D01*
D02*
G37*
G36*
X3520Y5083D02*
X3447D01*
Y5000D01*
X3520D01*
Y5083D01*
D02*
G37*
G36*
X3422D02*
X3349D01*
Y5000D01*
X3422D01*
Y5083D01*
D02*
G37*
G36*
X5646Y5268D02*
X5604D01*
Y5190D01*
X5646D01*
Y5268D01*
D02*
G37*
G36*
X3291Y6079D02*
X3273Y6075D01*
X3258Y6065D01*
X3248Y6050D01*
X3245Y6033D01*
Y5873D01*
X3248Y5855D01*
X3258Y5840D01*
X3260Y5839D01*
Y5783D01*
Y5753D01*
X3199D01*
Y5583D01*
X3350D01*
Y5752D01*
X3369D01*
Y5680D01*
X3540D01*
Y5752D01*
X3564D01*
X3856Y5460D01*
Y5263D01*
X3856Y5263D01*
X3858Y5251D01*
X3865Y5241D01*
X3911Y5194D01*
X3911Y5194D01*
X3921Y5188D01*
X3921Y5188D01*
X3921Y5188D01*
D01*
X3921Y5188D01*
X3921Y5188D01*
X3933Y5185D01*
X3933Y5185D01*
X4127D01*
X4128Y5184D01*
X4143Y5174D01*
X4161Y5170D01*
X4321D01*
X4339Y5174D01*
X4354Y5184D01*
X4364Y5199D01*
X4367Y5216D01*
X4364Y5234D01*
X4354Y5249D01*
X4339Y5259D01*
X4321Y5262D01*
X4161D01*
X4143Y5259D01*
X4128Y5249D01*
X4127Y5247D01*
X3946D01*
X3917Y5276D01*
Y5473D01*
X3915Y5485D01*
X3908Y5495D01*
X3908Y5495D01*
X3598Y5805D01*
X3588Y5811D01*
X3576Y5814D01*
X3576Y5814D01*
X3451D01*
X3447Y5826D01*
X3458Y5833D01*
X3470Y5851D01*
X3474Y5873D01*
Y5940D01*
X3361D01*
Y5873D01*
X3366Y5851D01*
X3378Y5833D01*
X3389Y5826D01*
X3385Y5814D01*
X3322D01*
Y5839D01*
X3324Y5840D01*
X3334Y5855D01*
X3337Y5873D01*
Y6033D01*
X3334Y6050D01*
X3324Y6065D01*
X3309Y6075D01*
X3291Y6079D01*
D02*
G37*
G36*
X5714Y5268D02*
X5672D01*
Y5190D01*
X5714D01*
Y5268D01*
D02*
G37*
G36*
X11091Y5394D02*
X11066Y5391D01*
X11043Y5381D01*
X11024Y5366D01*
X11009Y5347D01*
X10999Y5324D01*
X10996Y5299D01*
X10999Y5275D01*
X11009Y5252D01*
X11024Y5232D01*
X11043Y5217D01*
X11066Y5208D01*
X11091Y5205D01*
X11115Y5208D01*
X11138Y5217D01*
X11158Y5232D01*
X11173Y5252D01*
X11182Y5275D01*
X11186Y5299D01*
X11182Y5324D01*
X11173Y5347D01*
X11158Y5366D01*
X11138Y5381D01*
X11115Y5391D01*
X11091Y5394D01*
D02*
G37*
G36*
X10837D02*
X10812Y5391D01*
X10789Y5381D01*
X10770Y5366D01*
X10758Y5351D01*
X10501D01*
X10481Y5347D01*
X10465Y5336D01*
X10321Y5192D01*
X10321Y5192D01*
X10289D01*
Y5021D01*
X10439D01*
Y5165D01*
X10522Y5248D01*
X10758D01*
X10770Y5232D01*
X10789Y5217D01*
X10812Y5208D01*
X10837Y5205D01*
X10861Y5208D01*
X10884Y5217D01*
X10904Y5232D01*
X10919Y5252D01*
X10928Y5275D01*
X10932Y5299D01*
X10928Y5324D01*
X10919Y5347D01*
X10904Y5366D01*
X10884Y5381D01*
X10861Y5391D01*
X10837Y5394D01*
D02*
G37*
G36*
X3525Y5205D02*
X3452D01*
Y5122D01*
X3525D01*
Y5205D01*
D02*
G37*
G36*
X5714Y5165D02*
X5672D01*
Y5087D01*
X5714D01*
Y5165D01*
D02*
G37*
G36*
X5646D02*
X5604D01*
Y5087D01*
X5646D01*
Y5165D01*
D02*
G37*
G36*
X5899Y5458D02*
X5729D01*
Y5308D01*
X5798D01*
Y5178D01*
X5802Y5158D01*
X5804Y5155D01*
Y5098D01*
X5894D01*
Y5155D01*
X5896Y5158D01*
X5900Y5178D01*
Y5348D01*
X5899Y5353D01*
Y5458D01*
D02*
G37*
G36*
X3427Y5205D02*
X3354D01*
Y5122D01*
X3427D01*
Y5205D01*
D02*
G37*
G36*
X7609Y5129D02*
X7379D01*
X7374Y5128D01*
X7269D01*
Y5099D01*
X7179D01*
Y5118D01*
X7009D01*
Y5099D01*
X6839D01*
Y5128D01*
X6749D01*
Y5071D01*
X6747Y5067D01*
X6743Y5048D01*
X6747Y5028D01*
X6749Y5025D01*
Y4968D01*
X6839D01*
Y4997D01*
X7009D01*
Y4968D01*
X7179D01*
Y4997D01*
X7269D01*
Y4978D01*
X7439D01*
Y5027D01*
X7609D01*
X7629Y5030D01*
X7632Y5033D01*
X7689D01*
Y5123D01*
X7632D01*
X7629Y5125D01*
X7609Y5129D01*
D02*
G37*
G36*
X2641Y5032D02*
X2630Y5030D01*
X2610Y5016D01*
X2597Y4996D01*
X2592Y4973D01*
Y4895D01*
X2641D01*
Y5032D01*
D02*
G37*
G36*
X3520Y4975D02*
X3447D01*
Y4892D01*
X3520D01*
Y4975D01*
D02*
G37*
G36*
X2667Y5032D02*
Y4895D01*
X2715D01*
Y4973D01*
X2711Y4996D01*
X2697Y5016D01*
X2677Y5030D01*
X2667Y5032D01*
D02*
G37*
G36*
X2921D02*
Y4895D01*
X2969D01*
Y4973D01*
X2965Y4996D01*
X2951Y5016D01*
X2931Y5030D01*
X2921Y5032D01*
D02*
G37*
G36*
X2895D02*
X2884Y5030D01*
X2864Y5016D01*
X2851Y4996D01*
X2846Y4973D01*
Y4895D01*
X2895D01*
Y5032D01*
D02*
G37*
G36*
X3422Y4975D02*
X3349D01*
Y4892D01*
X3422D01*
Y4975D01*
D02*
G37*
G36*
X6876Y4928D02*
X6833D01*
Y4851D01*
X6876D01*
Y4928D01*
D02*
G37*
G36*
X2167Y4905D02*
X2105D01*
Y4843D01*
X2112Y4844D01*
X2131Y4852D01*
X2146Y4864D01*
X2158Y4879D01*
X2166Y4898D01*
X2167Y4905D01*
D02*
G37*
G36*
X6944Y4928D02*
X6902D01*
Y4851D01*
X6944D01*
Y4928D01*
D02*
G37*
G36*
X7189Y4948D02*
X7107D01*
Y4876D01*
X7189D01*
Y4948D01*
D02*
G37*
G36*
X7081D02*
X6999D01*
Y4876D01*
X7081D01*
Y4948D01*
D02*
G37*
G36*
X4056Y5020D02*
X3974D01*
Y4947D01*
X4056D01*
Y5020D01*
D02*
G37*
G36*
X3948D02*
X3865D01*
Y4947D01*
X3948D01*
Y5020D01*
D02*
G37*
G36*
X10837Y5140D02*
X10812Y5137D01*
X10789Y5127D01*
X10770Y5112D01*
X10758Y5097D01*
X10583D01*
X10563Y5093D01*
X10547Y5082D01*
X10367Y4902D01*
X10279D01*
Y4731D01*
X10429D01*
Y4819D01*
X10604Y4994D01*
X10758D01*
X10770Y4978D01*
X10789Y4963D01*
X10812Y4954D01*
X10837Y4951D01*
X10861Y4954D01*
X10884Y4963D01*
X10904Y4978D01*
X10919Y4998D01*
X10928Y5021D01*
X10932Y5045D01*
X10928Y5070D01*
X10919Y5093D01*
X10904Y5112D01*
X10884Y5127D01*
X10861Y5137D01*
X10837Y5140D01*
D02*
G37*
G36*
X3330Y5073D02*
X3179D01*
Y4964D01*
X3088D01*
X3086Y4966D01*
Y4973D01*
X3082Y4992D01*
X3071Y5009D01*
X3055Y5020D01*
X3035Y5024D01*
X3015Y5020D01*
X2999Y5009D01*
X2988Y4992D01*
X2984Y4973D01*
Y4793D01*
X2988Y4773D01*
X2999Y4757D01*
X3015Y4745D01*
X3035Y4742D01*
X3055Y4745D01*
X3071Y4757D01*
X3082Y4773D01*
X3086Y4793D01*
Y4894D01*
X3100Y4908D01*
X3179D01*
Y4903D01*
X3278D01*
Y4822D01*
X3273Y4820D01*
X3260Y4809D01*
X3249Y4796D01*
X3243Y4780D01*
X3241Y4763D01*
X3243Y4746D01*
X3249Y4730D01*
X3260Y4716D01*
X3273Y4706D01*
X3289Y4699D01*
X3306Y4697D01*
X3323Y4699D01*
X3339Y4706D01*
X3353Y4716D01*
X3363Y4730D01*
X3370Y4746D01*
X3372Y4763D01*
X3370Y4780D01*
X3363Y4796D01*
X3353Y4809D01*
X3339Y4820D01*
X3335Y4822D01*
Y4936D01*
X3333Y4947D01*
X3331Y4948D01*
X3330Y4951D01*
Y5073D01*
D02*
G37*
G36*
X11091Y5140D02*
X11066Y5137D01*
X11043Y5127D01*
X11024Y5112D01*
X11009Y5093D01*
X10999Y5070D01*
X10996Y5045D01*
X10999Y5021D01*
X11009Y4998D01*
X11024Y4978D01*
X11043Y4963D01*
X11066Y4954D01*
X11091Y4951D01*
X11115Y4954D01*
X11138Y4963D01*
X11158Y4978D01*
X11173Y4998D01*
X11182Y5021D01*
X11186Y5045D01*
X11182Y5070D01*
X11173Y5093D01*
X11158Y5112D01*
X11138Y5127D01*
X11115Y5137D01*
X11091Y5140D01*
D02*
G37*
G36*
X2105Y4992D02*
Y4930D01*
X2167D01*
X2166Y4937D01*
X2158Y4956D01*
X2146Y4971D01*
X2131Y4983D01*
X2112Y4991D01*
X2105Y4992D01*
D02*
G37*
G36*
X7699Y4943D02*
X7622D01*
Y4900D01*
X7699D01*
Y4943D01*
D02*
G37*
G36*
X7596D02*
X7518D01*
Y4900D01*
X7596D01*
Y4943D01*
D02*
G37*
G36*
X8331Y4990D02*
X8249D01*
Y4917D01*
X8331D01*
Y4990D01*
D02*
G37*
G36*
X2080Y4992D02*
X2073Y4991D01*
X2054Y4983D01*
X2039Y4971D01*
X2027Y4956D01*
X2019Y4937D01*
X2018Y4930D01*
X2080D01*
Y4992D01*
D02*
G37*
G36*
X8439Y4990D02*
X8357D01*
Y4917D01*
X8439D01*
Y4990D01*
D02*
G37*
G36*
X7075Y5375D02*
X6925D01*
Y5334D01*
X6424D01*
X6408Y5331D01*
X6395Y5322D01*
X6294Y5221D01*
X6281Y5226D01*
X6264Y5229D01*
X6247Y5226D01*
X6231Y5220D01*
X6217Y5209D01*
X6207Y5196D01*
X6200Y5180D01*
X6198Y5163D01*
X6200Y5146D01*
X6207Y5130D01*
X6217Y5116D01*
X6231Y5106D01*
X6247Y5099D01*
X6264Y5097D01*
X6281Y5099D01*
X6297Y5106D01*
X6310Y5116D01*
X6321Y5130D01*
X6322Y5133D01*
X6323Y5134D01*
X6441Y5252D01*
X6925D01*
Y5205D01*
X7075D01*
Y5375D01*
D02*
G37*
G36*
X7737Y5394D02*
X7654D01*
Y5321D01*
X7737D01*
Y5394D01*
D02*
G37*
G36*
X8884Y5919D02*
X8867Y5916D01*
X8851Y5910D01*
X8837Y5899D01*
X8827Y5886D01*
X8820Y5870D01*
X8818Y5853D01*
X8820Y5836D01*
X8827Y5820D01*
X8837Y5806D01*
X8851Y5796D01*
X8867Y5789D01*
X8876Y5788D01*
X9013Y5652D01*
Y5598D01*
X8979D01*
Y5448D01*
X9149D01*
Y5598D01*
X9115D01*
Y5673D01*
X9111Y5692D01*
X9100Y5709D01*
X8949Y5860D01*
X8947Y5870D01*
X8941Y5886D01*
X8930Y5899D01*
X8917Y5910D01*
X8901Y5916D01*
X8884Y5919D01*
D02*
G37*
G36*
X8209Y5408D02*
X8127D01*
Y5335D01*
X8209D01*
Y5408D01*
D02*
G37*
G36*
X8101D02*
X8018D01*
Y5335D01*
X8101D01*
Y5408D01*
D02*
G37*
G36*
X7629Y5394D02*
X7546D01*
Y5321D01*
X7629D01*
Y5394D01*
D02*
G37*
G36*
X4006Y5409D02*
X3989Y5406D01*
X3973Y5400D01*
X3960Y5389D01*
X3949Y5376D01*
X3943Y5360D01*
X3941Y5343D01*
X3943Y5326D01*
X3949Y5310D01*
X3960Y5296D01*
X3973Y5286D01*
X3989Y5279D01*
X4006Y5277D01*
X4023Y5279D01*
X4039Y5286D01*
X4053Y5296D01*
X4063Y5310D01*
X4064Y5312D01*
X4127D01*
X4128Y5311D01*
X4143Y5301D01*
X4161Y5297D01*
X4321D01*
X4339Y5301D01*
X4354Y5311D01*
X4364Y5326D01*
X4367Y5343D01*
X4364Y5361D01*
X4354Y5376D01*
X4339Y5386D01*
X4321Y5389D01*
X4161D01*
X4143Y5386D01*
X4128Y5376D01*
X4127Y5374D01*
X4064D01*
X4063Y5376D01*
X4053Y5389D01*
X4039Y5400D01*
X4023Y5406D01*
X4006Y5409D01*
D02*
G37*
G36*
X8659Y5340D02*
X8577D01*
Y5267D01*
X8659D01*
Y5340D01*
D02*
G37*
G36*
X7532Y5384D02*
X7449D01*
Y5311D01*
X7532D01*
Y5384D01*
D02*
G37*
G36*
X7424D02*
X7341D01*
Y5311D01*
X7424D01*
Y5384D01*
D02*
G37*
G36*
X3427Y5435D02*
X3354D01*
Y5352D01*
X3427D01*
Y5435D01*
D02*
G37*
G36*
X8064Y5939D02*
X8047Y5935D01*
X8032Y5925D01*
X8022Y5910D01*
X8018Y5893D01*
Y5834D01*
X8017Y5832D01*
X8013Y5813D01*
Y5582D01*
X8013Y5582D01*
X8013D01*
X8017Y5563D01*
X8028Y5546D01*
X8029Y5546D01*
Y5428D01*
X8199D01*
Y5452D01*
X8292D01*
X8297Y5440D01*
X8307Y5426D01*
X8321Y5416D01*
X8337Y5409D01*
X8354Y5407D01*
X8371Y5409D01*
X8387Y5416D01*
X8400Y5426D01*
X8411Y5440D01*
X8417Y5456D01*
X8420Y5473D01*
X8417Y5490D01*
X8411Y5506D01*
X8400Y5519D01*
X8387Y5530D01*
X8371Y5536D01*
X8354Y5539D01*
X8341Y5537D01*
X8340Y5539D01*
X8340Y5539D01*
X8324Y5550D01*
X8304Y5554D01*
X8199D01*
Y5578D01*
X8141D01*
X8116Y5604D01*
Y5813D01*
X8112Y5832D01*
X8111Y5834D01*
Y5893D01*
X8107Y5910D01*
X8097Y5925D01*
X8082Y5935D01*
X8064Y5939D01*
D02*
G37*
G36*
X6789Y6068D02*
X6639D01*
Y5898D01*
X6789D01*
Y5932D01*
X6834D01*
X6854Y5935D01*
X6870Y5947D01*
X6875Y5952D01*
X7493D01*
X7505Y5939D01*
Y5813D01*
X7509Y5793D01*
X7510Y5791D01*
Y5733D01*
X7514Y5715D01*
X7524Y5700D01*
X7530Y5696D01*
X7526Y5684D01*
X7484D01*
X7464Y5680D01*
X7448Y5669D01*
X7388Y5609D01*
X7377Y5592D01*
X7373Y5573D01*
Y5553D01*
X7351D01*
Y5403D01*
X7522D01*
Y5553D01*
X7494D01*
X7489Y5565D01*
X7505Y5582D01*
X7644D01*
X7664Y5585D01*
X7680Y5597D01*
X7720Y5636D01*
X7731Y5653D01*
X7735Y5672D01*
Y5813D01*
X7731Y5832D01*
X7730Y5834D01*
Y5893D01*
X7726Y5910D01*
X7716Y5925D01*
X7701Y5935D01*
X7683Y5939D01*
X7666Y5935D01*
X7651Y5925D01*
X7641Y5910D01*
X7637Y5893D01*
Y5834D01*
X7636Y5832D01*
X7632Y5813D01*
Y5694D01*
X7623Y5684D01*
X7587D01*
X7583Y5696D01*
X7589Y5700D01*
X7599Y5715D01*
X7603Y5733D01*
Y5791D01*
X7604Y5793D01*
X7608Y5813D01*
Y5960D01*
X7604Y5980D01*
X7599Y5987D01*
X7593Y5997D01*
X7550Y6039D01*
X7534Y6050D01*
X7514Y6054D01*
X6854D01*
X6834Y6050D01*
X6818Y6039D01*
X6813Y6034D01*
X6789D01*
Y6068D01*
D02*
G37*
G36*
X6986Y5515D02*
X6943D01*
Y5437D01*
X6986D01*
Y5515D01*
D02*
G37*
G36*
X4321Y5516D02*
X4161D01*
X4143Y5513D01*
X4128Y5503D01*
X4118Y5488D01*
X4115Y5470D01*
X4118Y5453D01*
X4128Y5438D01*
X4143Y5428D01*
X4161Y5424D01*
X4321D01*
X4339Y5428D01*
X4354Y5438D01*
X4364Y5453D01*
X4367Y5470D01*
X4364Y5488D01*
X4354Y5503D01*
X4339Y5513D01*
X4321Y5516D01*
D02*
G37*
G36*
X1786Y5567D02*
X1761Y5564D01*
X1739Y5555D01*
X1719Y5540D01*
X1704Y5520D01*
X1694Y5497D01*
X1692Y5482D01*
X1638Y5428D01*
X1628Y5414D01*
X1621Y5399D01*
X1619Y5381D01*
X1621Y5364D01*
X1628Y5349D01*
X1634Y5341D01*
Y3900D01*
X1634Y3900D01*
X1634D01*
X1638Y3880D01*
X1649Y3864D01*
X2250Y3262D01*
X2251Y3253D01*
X2258Y3237D01*
X2268Y3223D01*
X2282Y3213D01*
X2298Y3206D01*
X2315Y3204D01*
X2333D01*
X2351Y3190D01*
X2373Y3181D01*
X2397Y3178D01*
X2421Y3181D01*
X2443Y3190D01*
X2462Y3205D01*
X2477Y3224D01*
X2486Y3246D01*
X2489Y3270D01*
X2486Y3294D01*
X2477Y3316D01*
X2462Y3335D01*
X2443Y3350D01*
X2428Y3356D01*
Y3850D01*
X2428D01*
X2432D01*
X2437Y3850D01*
X2437Y3850D01*
Y3850D01*
X2515D01*
Y3935D01*
Y4020D01*
X2437D01*
X2437Y4020D01*
Y4020D01*
X2432Y4020D01*
X2428Y4025D01*
Y4074D01*
X2448Y4095D01*
X2565D01*
Y4265D01*
X2415D01*
Y4148D01*
X2375Y4109D01*
X2369Y4099D01*
X2366Y4087D01*
X2366Y4087D01*
Y3356D01*
X2351Y3350D01*
X2333Y3336D01*
X2322D01*
X1736Y3921D01*
Y5340D01*
X1776Y5379D01*
X1786Y5378D01*
X1811Y5381D01*
X1833Y5390D01*
X1853Y5405D01*
X1868Y5425D01*
X1878Y5448D01*
X1881Y5472D01*
X1878Y5497D01*
X1868Y5520D01*
X1853Y5540D01*
X1833Y5555D01*
X1811Y5564D01*
X1786Y5567D01*
D02*
G37*
G36*
X3525Y5435D02*
X3452D01*
Y5352D01*
X3525D01*
Y5435D01*
D02*
G37*
G36*
X7054Y5515D02*
X7012D01*
Y5437D01*
X7054D01*
Y5515D01*
D02*
G37*
G36*
X8659Y5438D02*
X8577D01*
Y5365D01*
X8659D01*
Y5438D01*
D02*
G37*
G36*
X8551D02*
X8468D01*
Y5365D01*
X8551D01*
Y5438D01*
D02*
G37*
G36*
X7629Y5296D02*
X7546D01*
Y5223D01*
X7629D01*
Y5296D01*
D02*
G37*
G36*
X7532Y5285D02*
X7449D01*
Y5213D01*
X7532D01*
Y5285D01*
D02*
G37*
G36*
X5416Y5641D02*
X5399Y5639D01*
X5383Y5632D01*
X5370Y5622D01*
X5359Y5608D01*
X5353Y5592D01*
X5351Y5575D01*
X5353Y5558D01*
X5359Y5542D01*
X5370Y5529D01*
X5383Y5518D01*
X5399Y5512D01*
X5416Y5509D01*
X5433Y5512D01*
X5449Y5518D01*
X5463Y5529D01*
X5473Y5542D01*
X5474Y5544D01*
X5729D01*
Y5488D01*
X5899D01*
Y5638D01*
X5729D01*
Y5606D01*
X5474D01*
X5473Y5608D01*
X5463Y5622D01*
X5449Y5632D01*
X5433Y5639D01*
X5416Y5641D01*
D02*
G37*
G36*
X7737Y5296D02*
X7654D01*
Y5223D01*
X7737D01*
Y5296D01*
D02*
G37*
G36*
X7424Y5285D02*
X7341D01*
Y5213D01*
X7424D01*
Y5285D01*
D02*
G37*
G36*
X7054Y5618D02*
X7012D01*
Y5541D01*
X7054D01*
Y5618D01*
D02*
G37*
G36*
X7234Y5608D02*
X7144D01*
Y5553D01*
X7137Y5542D01*
X7133Y5523D01*
Y5375D01*
X7105D01*
Y5205D01*
X7255D01*
Y5375D01*
X7235D01*
Y5523D01*
X7234Y5528D01*
Y5608D01*
D02*
G37*
G36*
X5121Y6320D02*
X5031D01*
Y6238D01*
X4983Y6190D01*
X4976Y6180D01*
X4974Y6168D01*
X4974Y6168D01*
Y6043D01*
X4929D01*
Y5873D01*
X4974D01*
Y5584D01*
X4891Y5501D01*
X4835D01*
X4834Y5503D01*
X4819Y5513D01*
X4801Y5516D01*
X4641D01*
X4623Y5513D01*
X4608Y5503D01*
X4598Y5488D01*
X4595Y5470D01*
X4598Y5453D01*
X4608Y5438D01*
X4623Y5428D01*
X4641Y5424D01*
X4801D01*
X4819Y5428D01*
X4834Y5438D01*
X4835Y5439D01*
X4904D01*
X4904Y5439D01*
X4916Y5442D01*
X4926Y5448D01*
X5026Y5549D01*
X5033Y5559D01*
X5035Y5571D01*
X5035Y5571D01*
Y5873D01*
X5080D01*
Y6043D01*
X5035D01*
Y6155D01*
X5039Y6159D01*
X5121D01*
Y6320D01*
D02*
G37*
G36*
X6986Y5618D02*
X6943D01*
Y5541D01*
X6986D01*
Y5618D01*
D02*
G37*
G36*
X3525Y5543D02*
X3452D01*
Y5460D01*
X3525D01*
Y5543D01*
D02*
G37*
G36*
X8209Y5310D02*
X8127D01*
Y5237D01*
X8209D01*
Y5310D01*
D02*
G37*
G36*
X8101D02*
X8018D01*
Y5237D01*
X8101D01*
Y5310D01*
D02*
G37*
G36*
X8551Y5340D02*
X8468D01*
Y5267D01*
X8551D01*
Y5340D01*
D02*
G37*
G36*
X10824Y5541D02*
X10733D01*
X10735Y5526D01*
X10746Y5501D01*
X10763Y5479D01*
X10784Y5462D01*
X10810Y5452D01*
X10824Y5450D01*
Y5541D01*
D02*
G37*
G36*
X10940D02*
X10850D01*
Y5450D01*
X10864Y5452D01*
X10889Y5462D01*
X10911Y5479D01*
X10928Y5501D01*
X10938Y5526D01*
X10940Y5541D01*
D02*
G37*
G36*
X11091Y5648D02*
X11066Y5645D01*
X11043Y5635D01*
X11024Y5620D01*
X11009Y5601D01*
X10999Y5578D01*
X10996Y5553D01*
X10999Y5529D01*
X11009Y5506D01*
X11024Y5486D01*
X11043Y5471D01*
X11066Y5462D01*
X11091Y5459D01*
X11115Y5462D01*
X11138Y5471D01*
X11158Y5486D01*
X11173Y5506D01*
X11182Y5529D01*
X11186Y5553D01*
X11182Y5578D01*
X11173Y5601D01*
X11158Y5620D01*
X11138Y5635D01*
X11115Y5645D01*
X11091Y5648D01*
D02*
G37*
G36*
X3427Y5543D02*
X3354D01*
Y5460D01*
X3427D01*
Y5543D01*
D02*
G37*
G36*
X3525Y5313D02*
X3452D01*
Y5230D01*
X3525D01*
Y5313D01*
D02*
G37*
G36*
X3427D02*
X3354D01*
Y5230D01*
X3427D01*
Y5313D01*
D02*
G37*
%LPD*%
G36*
X4586Y4513D02*
X4575Y4501D01*
X4352D01*
Y4508D01*
X4181D01*
Y4358D01*
X4352D01*
X4352Y4358D01*
Y4358D01*
X4356Y4359D01*
X4366Y4350D01*
X4361Y4338D01*
X4361Y4338D01*
D01*
X4279D01*
Y4265D01*
X4362D01*
Y4337D01*
X4373Y4342D01*
X4374Y4342D01*
X4621Y4094D01*
Y4044D01*
X4610Y4040D01*
X4556Y4093D01*
X4547Y4099D01*
X4536Y4101D01*
X4082D01*
X3910Y4273D01*
Y4448D01*
X3908Y4459D01*
X3902Y4468D01*
X3888Y4483D01*
X3878Y4489D01*
X3868Y4491D01*
X3842D01*
Y4525D01*
X4582D01*
X4586Y4513D01*
D02*
G37*
G36*
X4649Y4478D02*
X4648Y4473D01*
Y4174D01*
X4650Y4163D01*
X4650Y4163D01*
X4641Y4155D01*
X4363Y4433D01*
X4368Y4445D01*
X4586D01*
X4597Y4447D01*
X4606Y4453D01*
X4638Y4484D01*
X4649Y4478D01*
D02*
G37*
G36*
X4571Y3998D02*
Y3949D01*
X4560Y3943D01*
X4549Y3950D01*
X4531Y3953D01*
X4465D01*
X4463Y3962D01*
X4452Y3979D01*
X4435Y3990D01*
X4416Y3994D01*
X4255D01*
Y4018D01*
X4094D01*
X4079Y4033D01*
X4084Y4045D01*
X4525D01*
X4571Y3998D01*
D02*
G37*
G36*
X2614Y5854D02*
X2623Y5840D01*
X2638Y5830D01*
X2656Y5827D01*
X2660Y5828D01*
X2666Y5816D01*
X2348Y5498D01*
X2297D01*
X2119Y5676D01*
X2122Y5679D01*
X2132Y5702D01*
X2135Y5726D01*
X2132Y5751D01*
X2122Y5774D01*
X2107Y5794D01*
X2087Y5809D01*
X2080Y5812D01*
X2082Y5824D01*
X2558D01*
X2558Y5824D01*
X2570Y5827D01*
X2580Y5833D01*
X2602Y5855D01*
X2614Y5854D01*
D02*
G37*
%LPC*%
G36*
X4141Y4385D02*
X4079D01*
Y4323D01*
X4086Y4324D01*
X4104Y4332D01*
X4120Y4344D01*
X4132Y4360D01*
X4140Y4378D01*
X4141Y4385D01*
D02*
G37*
G36*
X4054D02*
X3992D01*
X3993Y4378D01*
X4001Y4360D01*
X4013Y4344D01*
X4028Y4332D01*
X4047Y4324D01*
X4054Y4323D01*
Y4385D01*
D02*
G37*
G36*
X4254Y4338D02*
X4171D01*
Y4265D01*
X4254D01*
Y4338D01*
D02*
G37*
G36*
X4362Y4240D02*
X4279D01*
Y4167D01*
X4362D01*
Y4240D01*
D02*
G37*
G36*
X4254D02*
X4171D01*
Y4167D01*
X4254D01*
Y4240D01*
D02*
G37*
G36*
X4079Y4472D02*
Y4410D01*
X4141D01*
X4140Y4417D01*
X4132Y4436D01*
X4120Y4452D01*
X4104Y4464D01*
X4086Y4471D01*
X4079Y4472D01*
D02*
G37*
G36*
X4054D02*
X4047Y4471D01*
X4028Y4464D01*
X4013Y4452D01*
X4001Y4436D01*
X3993Y4417D01*
X3992Y4410D01*
X4054D01*
Y4472D01*
D02*
G37*
%LPD*%
D10*
X6699Y4838D02*
D03*
X6889D02*
D03*
X6794Y5048D02*
D03*
X4099Y6553D02*
D03*
X3909D02*
D03*
X4004Y6343D02*
D03*
X4746Y6425D02*
D03*
X4556D02*
D03*
X4651Y6215D02*
D03*
X5171Y6450D02*
D03*
X4981D02*
D03*
X5076Y6240D02*
D03*
X7125Y6515D02*
D03*
X6935D02*
D03*
X7030Y6305D02*
D03*
X6999Y5528D02*
D03*
X7189D02*
D03*
X7094Y5738D02*
D03*
X5849Y5178D02*
D03*
X5659D02*
D03*
X5754Y4968D02*
D03*
X2988Y3560D02*
D03*
X2892D02*
D03*
X2798D02*
D03*
Y3800D02*
D03*
X2892D02*
D03*
X2988D02*
D03*
D11*
X2654Y4883D02*
D03*
X2781D02*
D03*
X2908D02*
D03*
X3035D02*
D03*
X2654Y5373D02*
D03*
X2781D02*
D03*
X2908D02*
D03*
X3035D02*
D03*
D12*
X4931Y3145D02*
D03*
Y3272D02*
D03*
Y3399D02*
D03*
Y3526D02*
D03*
Y3653D02*
D03*
Y3780D02*
D03*
Y3907D02*
D03*
X4451Y3145D02*
D03*
Y3272D02*
D03*
Y3399D02*
D03*
Y3526D02*
D03*
Y3653D02*
D03*
Y3780D02*
D03*
Y3907D02*
D03*
X4721Y4835D02*
D03*
Y4962D02*
D03*
Y5089D02*
D03*
Y5216D02*
D03*
Y5343D02*
D03*
Y5470D02*
D03*
Y5597D02*
D03*
Y5724D02*
D03*
X4241Y4835D02*
D03*
Y4962D02*
D03*
Y5089D02*
D03*
Y5216D02*
D03*
Y5343D02*
D03*
Y5470D02*
D03*
Y5597D02*
D03*
Y5724D02*
D03*
D13*
X2656Y5953D02*
D03*
X2783D02*
D03*
X2910D02*
D03*
X3037D02*
D03*
X3164D02*
D03*
X3291D02*
D03*
X3418D02*
D03*
X2656Y6433D02*
D03*
X2783D02*
D03*
X2910D02*
D03*
X3037D02*
D03*
X3164D02*
D03*
X3291D02*
D03*
X3418D02*
D03*
X7429Y5813D02*
D03*
X7556D02*
D03*
X7683D02*
D03*
X7810D02*
D03*
X7937D02*
D03*
X8064D02*
D03*
X8191D02*
D03*
X8318D02*
D03*
X7429Y6293D02*
D03*
X7556D02*
D03*
X7683D02*
D03*
X7810D02*
D03*
X7937D02*
D03*
X8064D02*
D03*
X8191D02*
D03*
X8318D02*
D03*
D14*
X9279Y3612D02*
D03*
Y3739D02*
D03*
Y3866D02*
D03*
Y3993D02*
D03*
X8789Y3612D02*
D03*
Y3739D02*
D03*
Y3866D02*
D03*
Y3993D02*
D03*
D15*
X7619Y4138D02*
D03*
Y3948D02*
D03*
X7829Y4043D02*
D03*
X7609Y5078D02*
D03*
Y4888D02*
D03*
X7819Y4983D02*
D03*
X5799Y3658D02*
D03*
Y3468D02*
D03*
X6009Y3563D02*
D03*
D16*
X1893Y6695D02*
D03*
X2118Y6790D02*
D03*
Y6600D02*
D03*
X2157Y4735D02*
D03*
X2383Y4830D02*
D03*
Y4640D02*
D03*
D17*
X10074Y4406D02*
D03*
Y4036D02*
D03*
Y6136D02*
D03*
Y6506D02*
D03*
X10084Y5416D02*
D03*
Y5786D02*
D03*
D18*
X6554Y3863D02*
D03*
X6374D02*
D03*
X8064Y3903D02*
D03*
X8244D02*
D03*
X8234Y4133D02*
D03*
X8054D02*
D03*
X7244Y3783D02*
D03*
X7424D02*
D03*
X8814Y4523D02*
D03*
X8994D02*
D03*
X8534Y6843D02*
D03*
X8354D02*
D03*
X9940Y3610D02*
D03*
X9760D02*
D03*
X8414Y6573D02*
D03*
X8594D02*
D03*
X5476Y4503D02*
D03*
X5296D02*
D03*
X3259Y5448D02*
D03*
X3439D02*
D03*
X3259Y5218D02*
D03*
X3439D02*
D03*
X3434Y4988D02*
D03*
X3254D02*
D03*
X4106Y3553D02*
D03*
X3926D02*
D03*
X5431Y3650D02*
D03*
X5251D02*
D03*
X3274Y5668D02*
D03*
X3454D02*
D03*
X7424Y3313D02*
D03*
X7244D02*
D03*
X7874Y3283D02*
D03*
X7694D02*
D03*
X6074Y4123D02*
D03*
X6254D02*
D03*
X6784Y4103D02*
D03*
X6964D02*
D03*
X7824Y3713D02*
D03*
X7644D02*
D03*
X7254Y3543D02*
D03*
X7434D02*
D03*
X6934Y4613D02*
D03*
X6754D02*
D03*
X7814D02*
D03*
X7634D02*
D03*
X7804Y4353D02*
D03*
X7624D02*
D03*
X6714Y5983D02*
D03*
X6534D02*
D03*
X7000Y5290D02*
D03*
X7180D02*
D03*
X8934Y4263D02*
D03*
X8754D02*
D03*
X7404Y3063D02*
D03*
X7224D02*
D03*
X6574Y6253D02*
D03*
X6754D02*
D03*
X6564Y6753D02*
D03*
X6744D02*
D03*
X9475Y4845D02*
D03*
X9295D02*
D03*
X9053Y3270D02*
D03*
X9232D02*
D03*
X3914Y6778D02*
D03*
X4094D02*
D03*
X4561Y6690D02*
D03*
X4741D02*
D03*
X4991Y6690D02*
D03*
X5171D02*
D03*
X4086Y6103D02*
D03*
X3906D02*
D03*
X4544Y5968D02*
D03*
X4724D02*
D03*
X5184Y5958D02*
D03*
X5004D02*
D03*
X2327Y4375D02*
D03*
X2148D02*
D03*
X1720Y6378D02*
D03*
X1900D02*
D03*
X2733Y6732D02*
D03*
X2912D02*
D03*
X2490Y4180D02*
D03*
X2670D02*
D03*
X10184Y5106D02*
D03*
X10364D02*
D03*
X10174Y6796D02*
D03*
X10354D02*
D03*
X10174Y4816D02*
D03*
X10354D02*
D03*
D19*
X7094Y5043D02*
D03*
Y4863D02*
D03*
X8044Y4603D02*
D03*
Y4423D02*
D03*
X8114Y5323D02*
D03*
Y5503D02*
D03*
X9332Y4385D02*
D03*
Y4565D02*
D03*
X8434Y3183D02*
D03*
Y3363D02*
D03*
X3228Y3912D02*
D03*
Y3733D02*
D03*
X2527Y3755D02*
D03*
Y3935D02*
D03*
X3961Y4853D02*
D03*
Y5033D02*
D03*
X3756Y4283D02*
D03*
Y4463D02*
D03*
X4266Y4253D02*
D03*
Y4433D02*
D03*
X4809Y4303D02*
D03*
Y4483D02*
D03*
X3654Y6328D02*
D03*
Y6508D02*
D03*
X6784Y3863D02*
D03*
Y3683D02*
D03*
X8344Y5003D02*
D03*
Y4823D02*
D03*
X5814Y5383D02*
D03*
Y5563D02*
D03*
X6044Y4523D02*
D03*
Y4703D02*
D03*
X6294Y3483D02*
D03*
Y3663D02*
D03*
X6524Y3483D02*
D03*
Y3663D02*
D03*
X8484Y4153D02*
D03*
Y3973D02*
D03*
X6574Y4173D02*
D03*
Y4353D02*
D03*
X7354Y5053D02*
D03*
Y4873D02*
D03*
X8344Y4573D02*
D03*
Y4393D02*
D03*
X7641Y5308D02*
D03*
Y5488D02*
D03*
X7437Y5298D02*
D03*
Y5478D02*
D03*
X7870Y5490D02*
D03*
Y5310D02*
D03*
X8564Y5533D02*
D03*
Y5353D02*
D03*
X9064Y5343D02*
D03*
Y5523D02*
D03*
X8824Y5503D02*
D03*
Y5323D02*
D03*
X8584Y6073D02*
D03*
Y5893D02*
D03*
X7574Y6603D02*
D03*
Y6783D02*
D03*
X7834Y6613D02*
D03*
Y6793D02*
D03*
X8094Y6653D02*
D03*
Y6833D02*
D03*
X9662Y4420D02*
D03*
Y4240D02*
D03*
X3909Y3943D02*
D03*
Y3763D02*
D03*
X4169Y3763D02*
D03*
Y3943D02*
D03*
X5451Y3879D02*
D03*
Y4059D02*
D03*
X5201Y4059D02*
D03*
Y3879D02*
D03*
X3926Y3243D02*
D03*
Y3063D02*
D03*
X4156Y3083D02*
D03*
Y3263D02*
D03*
X5426Y3243D02*
D03*
Y3063D02*
D03*
X5206Y3073D02*
D03*
Y3253D02*
D03*
D20*
X9064Y6243D02*
D03*
D21*
X10510Y3230D02*
D03*
D22*
X9605Y2900D02*
Y2925D01*
X9650Y3500D02*
X9760Y3610D01*
X9462Y3500D02*
X9650D01*
X9940Y3610D02*
X10235Y3315D01*
X4111Y3943D02*
X4169D01*
X3931Y4123D02*
X4111Y3943D01*
X5201Y4059D02*
X5422Y4280D01*
X4931Y3145D02*
X5004Y3073D01*
X4931Y3272D02*
X5397D01*
X4931Y3526D02*
X5113D01*
X4931Y3780D02*
X5102D01*
X4990Y4059D02*
X5201D01*
X4931Y4001D02*
X4990Y4059D01*
X4931Y3907D02*
Y4001D01*
X7414Y3073D02*
X7664D01*
X6264Y5163D02*
X6294D01*
X6424Y5293D01*
X7004D01*
X2781Y4708D02*
Y4883D01*
Y5037D01*
X2941Y5197D01*
X2943D01*
X3035Y5289D01*
Y5373D01*
X3184D01*
Y5293D02*
X3259Y5218D01*
X3184Y5293D02*
Y5373D01*
X3493Y6508D02*
X3654D01*
X3418Y6433D02*
X3493Y6508D01*
X3184Y5373D02*
X3259Y5448D01*
X2650Y2739D02*
X2866Y2523D01*
X3723Y4123D02*
X3931D01*
X3470Y3870D02*
X3723Y4123D01*
X4406Y3083D02*
X4559Y2930D01*
X5548D01*
X5666Y3048D01*
X4493Y2890D02*
X4528Y2855D01*
X5594D01*
X5992Y3253D01*
X6284D01*
X3470Y3850D02*
Y3870D01*
X2527Y3755D02*
X2650Y3632D01*
X2383Y4830D02*
X2560Y4653D01*
X2725D02*
X2781Y4708D01*
X2650Y2739D02*
Y3632D01*
X2560Y4653D02*
X2725D01*
X2655Y6790D02*
X2710Y6735D01*
X2118Y6790D02*
X2655D01*
X1940Y4375D02*
X2148D01*
X3535Y2890D02*
X4493D01*
X3535D02*
Y3221D01*
X3726Y3413D01*
X9233Y3270D02*
X9462Y3500D01*
X2866Y2523D02*
X2877D01*
X3000Y2400D01*
X3700D01*
X4000Y2700D01*
X4300Y2400D01*
X6300D01*
X6600Y2700D01*
X6900Y2400D01*
X8800D01*
X9100Y2700D01*
X9605Y2900D02*
X9815Y3110D01*
X10235D01*
Y2900D02*
Y3110D01*
X10239Y3230D02*
X10510D01*
X10235Y3110D02*
Y3315D01*
X3563Y6660D02*
Y6683D01*
Y6660D02*
X3654Y6569D01*
Y6508D02*
Y6569D01*
D23*
X4940Y6878D02*
X4991Y6827D01*
X3055Y6745D02*
X3117Y6682D01*
X2558Y5855D02*
X2656Y5953D01*
X1990Y5855D02*
X2558D01*
X1908Y5773D02*
X1990Y5855D01*
X5416Y5575D02*
X5801D01*
X5814Y5563D01*
X4721Y5470D02*
X4904D01*
X5004Y5571D01*
Y5958D01*
Y6168D01*
X5076Y6240D01*
X4724Y5901D02*
Y5968D01*
X4618Y5795D02*
X4724Y5901D01*
X4612Y5795D02*
X4618D01*
X4590Y5773D02*
X4612Y5795D01*
X4276Y5773D02*
X4590D01*
X4241Y5724D02*
Y5737D01*
X4276Y5760D02*
Y5773D01*
X4241Y5724D02*
X4276Y5760D01*
X4651Y6215D02*
X4726Y6139D01*
Y5970D02*
Y6139D01*
X4746Y6425D02*
Y6685D01*
X5171Y6450D02*
Y6690D01*
X4122Y5597D02*
X4241D01*
X4099Y6553D02*
Y6773D01*
X3164Y5800D02*
Y5953D01*
X2654Y5373D02*
Y5590D01*
X2908Y5373D02*
Y5574D01*
X2654Y5590D02*
X2792Y5728D01*
X2910Y5817D02*
Y5953D01*
X2876Y5784D02*
X2910Y5817D01*
X2769Y5784D02*
X2876D01*
X2566Y5581D02*
X2769Y5784D01*
X2566Y5213D02*
Y5581D01*
Y5213D02*
X2606Y5173D01*
X2746D01*
X2781Y5207D01*
Y5373D01*
X2792Y5728D02*
X3092D01*
X3164Y5800D01*
X3291Y6433D02*
Y6567D01*
X3164Y6433D02*
Y6560D01*
X4991Y6690D02*
Y6827D01*
X3291Y5783D02*
X3576D01*
X3886Y5473D01*
X3291Y5627D02*
Y5783D01*
Y5953D01*
X3636Y6103D02*
Y6159D01*
X3542Y6253D02*
X3636Y6159D01*
X3037Y5953D02*
Y6063D01*
X3096Y6123D01*
X3496D01*
X3886Y5263D02*
Y5473D01*
Y5263D02*
X3933Y5216D01*
X4241D01*
X3997Y5343D02*
X3997Y5343D01*
X4006D01*
X3997Y5343D02*
X4241D01*
Y5089D02*
X4383D01*
X4546Y4663D02*
Y4926D01*
X4383Y5089D02*
X4546Y4926D01*
X4241Y4962D02*
X4387D01*
X4426Y4923D01*
Y4793D02*
Y4923D01*
X4296Y4643D02*
Y4663D01*
X4296Y4643D02*
X4296Y4643D01*
X4296Y4643D02*
Y4673D01*
X4296Y4663D02*
X4426Y4793D01*
X3906Y5813D02*
X4122Y5597D01*
X3906Y5813D02*
Y6103D01*
Y6245D01*
X4004Y6343D01*
X3496Y6123D02*
X3761Y5858D01*
X3291Y6567D02*
X3576Y6853D01*
X3839D01*
X3914Y6778D01*
X3164Y6560D02*
X3524Y6920D01*
X4331D01*
X4561Y6690D01*
X2383Y4430D02*
Y4640D01*
X2327Y4375D02*
X2383Y4430D01*
X2285Y4783D02*
X2285Y4782D01*
Y4738D02*
Y4782D01*
Y4738D02*
X2383Y4640D01*
X1753Y5724D02*
X1774D01*
X1617Y5860D02*
X1753Y5724D01*
X1617Y5860D02*
Y6275D01*
X1720Y6377D01*
Y6385D01*
X1833Y6497D01*
X2005D01*
X2107Y6600D01*
X2275Y6433D02*
X2656D01*
X2107Y6600D02*
X2275Y6433D01*
X2783Y5889D02*
Y5953D01*
X2027Y5724D02*
X2285Y5467D01*
X2360D02*
X2783Y5889D01*
X2285Y4783D02*
Y5467D01*
X2360D01*
X2910Y6289D02*
Y6433D01*
Y6289D02*
X2946Y6253D01*
X3542D01*
X3037Y6433D02*
Y6588D01*
X2917Y6707D02*
X3037Y6588D01*
X2925Y6745D02*
X3055D01*
X2783Y6315D02*
Y6433D01*
X2700Y6233D02*
X2783Y6315D01*
X2460Y6233D02*
Y6238D01*
Y6233D02*
X2700D01*
X1908Y5562D02*
Y5773D01*
Y5562D02*
X2027Y5442D01*
X9475Y4778D02*
Y4845D01*
Y4778D02*
X9530Y4722D01*
Y4242D02*
Y4722D01*
Y4242D02*
X9532Y4240D01*
X9663D01*
X1985Y4080D02*
X2222D01*
X1800Y4265D02*
X1985Y4080D01*
X1800Y4265D02*
Y5215D01*
X2027Y5442D01*
X1903Y6380D02*
X2105D01*
X1900Y6377D02*
X1903Y6380D01*
X2397Y4087D02*
X2490Y4180D01*
X2397Y3270D02*
Y4087D01*
D24*
X5409Y3431D02*
Y3433D01*
Y3431D02*
X5432Y3408D01*
X5409Y3433D02*
X5431Y3410D01*
X10009Y6796D02*
X10174D01*
X9912Y6712D02*
X9919Y6706D01*
X5666Y3048D02*
Y4032D01*
X5712Y4077D01*
Y4677D01*
X5466Y4923D02*
X5712Y4677D01*
X5466Y4923D02*
Y5223D01*
X5416Y6083D02*
Y6140D01*
X8794Y6003D02*
X9304D01*
X8684Y5893D02*
X8794Y6003D01*
X8584Y5893D02*
X8684D01*
X9064Y5523D02*
Y5673D01*
X8884Y5853D02*
X9064Y5673D01*
X8914Y5343D02*
X9064D01*
X8864Y5293D02*
X8914Y5343D01*
X8854Y5293D02*
X8864D01*
X8854Y4863D02*
Y5293D01*
X9304Y5273D02*
Y6003D01*
X9064Y6243D02*
X9304Y6003D01*
X8191Y5732D02*
Y5813D01*
Y5732D02*
X8291Y5633D01*
X8464D02*
X8564Y5533D01*
X8291Y5633D02*
X8464D01*
X8674Y5743D02*
X8824Y5593D01*
X8388Y5743D02*
X8674D01*
X8318Y5813D02*
X8388Y5743D01*
X8824Y5503D02*
Y5593D01*
X8064Y5582D02*
X8134Y5513D01*
X8304Y5503D02*
X8304Y5503D01*
X8114Y5503D02*
X8304D01*
X9174Y5143D02*
X9304Y5273D01*
X9054Y5143D02*
X9174D01*
X6009Y3563D02*
X6109Y3663D01*
X6294D01*
Y3783D01*
X6374Y3863D01*
X6254Y4013D02*
Y4123D01*
X6154Y3913D02*
X6254Y4013D01*
X6054Y3913D02*
X6154D01*
X5799Y3658D02*
X6054Y3913D01*
X5884Y4313D02*
X6074Y4123D01*
X5884Y4313D02*
Y4683D01*
X5894Y4693D01*
X6064D01*
X5754Y4813D02*
Y4968D01*
Y4813D02*
X5884Y4683D01*
X6554Y3863D02*
X6784D01*
X6524Y3833D02*
X6554Y3863D01*
X6524Y3663D02*
Y3833D01*
X6374Y3863D02*
Y3973D01*
X6574Y4173D01*
X6644Y4103D01*
X6784D01*
X6574Y4353D02*
Y4433D01*
X6754Y4613D01*
Y4783D01*
X6699Y4838D02*
X6754Y4783D01*
X6964Y3933D02*
Y4103D01*
X6894Y3863D02*
X6964Y3933D01*
X6784Y3863D02*
X6894D01*
X5849Y5178D02*
Y5348D01*
X5814Y5383D02*
X5849Y5348D01*
X7379Y5078D02*
X7609D01*
X6794Y5048D02*
X7349D01*
X7354Y5053D01*
X7379Y5078D01*
X7624Y4143D02*
Y4353D01*
X7424Y3783D02*
X7574D01*
X7644Y3713D01*
Y3817D01*
X7829Y3908D02*
Y4043D01*
X7644Y3817D02*
X7684Y3857D01*
X7779D01*
X7829Y3908D01*
X7424Y3313D02*
X7664D01*
X7244D02*
Y3783D01*
Y3083D02*
Y3313D01*
X8244Y3903D02*
X8414D01*
X8484Y3973D01*
X8590Y3866D01*
X8789D01*
Y3993D02*
Y4028D01*
X8724Y4093D02*
X8789Y4028D01*
X8484Y4153D02*
X8574D01*
X8633Y4093D01*
X8724D01*
X8054Y3913D02*
Y4133D01*
X8024Y3913D02*
X8054D01*
X7824Y3713D02*
X8024Y3913D01*
X8054Y4133D02*
Y4243D01*
X8094Y4283D01*
X8234D01*
X8344Y4393D01*
X8544D01*
X8674Y4263D01*
X8754D01*
X8683Y3612D02*
X8789D01*
X9054Y3793D02*
X9127Y3866D01*
X9279D01*
X7184Y5293D02*
Y5523D01*
X6744Y6743D02*
Y6753D01*
Y6743D02*
X6918Y6568D01*
X7574Y6603D02*
X7684Y6493D01*
Y6293D02*
Y6493D01*
X7834Y6513D02*
Y6613D01*
X7810Y6489D02*
X7834Y6513D01*
X7810Y6293D02*
Y6489D01*
X8064Y6613D02*
X8104D01*
X7937Y6486D02*
X8064Y6613D01*
X7937Y6293D02*
Y6486D01*
X8064Y6293D02*
Y6453D01*
X8084Y6473D01*
X8224D01*
X8274Y6523D01*
X7683Y5672D02*
Y5813D01*
X7644Y5633D02*
X7683Y5672D01*
X7484Y5633D02*
X7644D01*
X7424Y5573D02*
X7484Y5633D01*
X7424Y5483D02*
Y5573D01*
X7654Y5493D02*
X7874D01*
X7804Y5563D02*
X7874Y5493D01*
X7804Y5563D02*
Y5806D01*
X7937Y5813D02*
Y5976D01*
X8191Y5813D02*
Y5965D01*
X8064Y5582D02*
Y5813D01*
X8854Y4863D02*
X8994Y4723D01*
Y4523D02*
Y4723D01*
X8814Y4443D02*
Y4523D01*
Y4443D02*
X8934Y4323D01*
X9279Y3739D02*
X9540D01*
X8534Y6843D02*
X8964D01*
X7937Y5976D02*
X7984Y6023D01*
X8134D01*
X8191Y5965D01*
X7810Y6156D02*
Y6293D01*
Y6156D02*
X7844Y6122D01*
X8484D01*
X8574Y6033D01*
X8234Y4133D02*
X8464D01*
X8789Y3993D02*
X8924D01*
X7819Y4368D02*
X7874Y4423D01*
X8004D01*
X7819Y4368D02*
Y4983D01*
X9054Y4943D02*
Y5143D01*
X7169Y5813D02*
X7429D01*
X7094Y5738D02*
X7169Y5813D01*
X6714Y5983D02*
X6834D01*
X6854Y6003D01*
X7514D01*
X7556Y5960D01*
Y5813D02*
Y5960D01*
Y6145D02*
Y6293D01*
X7392Y6123D02*
X7392Y6122D01*
X7533D02*
X7556Y6145D01*
X7392Y6122D02*
X7533D01*
X6884Y6123D02*
X7392D01*
X6754Y6253D02*
X6884Y6123D01*
X7033Y6288D02*
X7424D01*
X8104Y6613D02*
X8139D01*
X8354Y6827D01*
Y6843D01*
X8274Y6523D02*
X8404D01*
X8344Y4573D02*
Y4823D01*
X8074Y4573D02*
X8344D01*
X8044Y4603D02*
X8074Y4573D01*
X6894Y3863D02*
X7004Y3753D01*
Y2963D02*
Y3753D01*
X8104Y3148D02*
Y3473D01*
X8370Y3739D01*
X8789D01*
X7004Y2963D02*
X7064Y2903D01*
X7858D01*
X8104Y3148D01*
X10354Y6796D02*
X10835Y6315D01*
X10174Y6606D02*
Y6796D01*
X10074Y6506D02*
X10174Y6606D01*
X10084Y5206D02*
Y5416D01*
Y5206D02*
X10184Y5106D01*
X10074Y4406D02*
X10174Y4506D01*
X10357Y5155D02*
X10501Y5299D01*
X10084Y5786D02*
Y6126D01*
X4169Y3943D02*
X4416D01*
X4434Y3763D02*
X4451Y3780D01*
X4169Y3763D02*
X4434D01*
X3909D02*
X4169D01*
X4139Y3533D02*
X4445D01*
X3956Y3272D02*
X4451D01*
X4389Y3083D02*
X4451Y3145D01*
X5004Y3073D02*
X5206D01*
X5102Y3780D02*
X5201Y3879D01*
X5451D01*
X3961Y4853D02*
X3979Y4835D01*
X4241D01*
X4156Y3083D02*
X4389D01*
X4406D01*
X7874Y5203D02*
Y5313D01*
X10044Y5106D02*
X10184D01*
X9964Y5026D02*
X10044Y5106D01*
X7354Y4763D02*
Y4873D01*
X7504Y4613D02*
X7634D01*
X8414Y6493D02*
Y6573D01*
Y6493D02*
X8564Y6343D01*
X6044Y4523D02*
X6244D01*
X6294Y3303D02*
Y3483D01*
X7354Y4763D02*
X7504Y4613D01*
X4106Y3413D02*
Y3553D01*
X3726Y3413D02*
X4106D01*
X5291Y5958D02*
X5416Y6083D01*
X5184Y5958D02*
X5291D01*
X4216Y5923D02*
X4261Y5968D01*
X4544D01*
X4216Y5923D02*
Y5973D01*
X4086Y6103D02*
X4216Y5973D01*
X3227Y4274D02*
X3806Y4853D01*
X3961D01*
X5206Y3433D02*
X5409D01*
X5113Y3526D02*
X5199Y3613D01*
X5113Y3526D02*
X5206Y3433D01*
X7874Y5203D02*
X7934Y5143D01*
X8654D01*
X9054Y3270D02*
Y3793D01*
X8480Y3570D02*
X8561Y3489D01*
X8434Y3363D02*
X8561Y3489D01*
X8683Y3612D01*
X6564Y6456D02*
Y6753D01*
X6491Y6383D02*
X6564Y6456D01*
X6504Y6013D02*
Y6183D01*
X6574Y6253D01*
X6495Y5728D02*
Y6004D01*
X6504Y6013D02*
X6534Y5983D01*
X5928Y5762D02*
X6454Y6288D01*
Y6348D01*
X6489Y6383D01*
X6491D01*
X5338Y5762D02*
X5928D01*
X5215Y5474D02*
X5466Y5223D01*
X5215Y5474D02*
Y5640D01*
X5338Y5762D01*
X2895Y3280D02*
X2905Y3270D01*
X2795Y3972D02*
X2988D01*
X2670Y4180D02*
X2795Y4055D01*
Y3972D02*
Y4055D01*
X3167Y3972D02*
X3227Y3912D01*
Y4274D01*
X2988Y3972D02*
X3167D01*
X9540Y3739D02*
X9688Y3886D01*
X9670Y4427D02*
Y6137D01*
X8964Y6843D02*
X9670Y6137D01*
X9688Y3886D02*
Y4243D01*
X8924Y3993D02*
X9115Y4184D01*
Y4882D01*
X9054Y4943D02*
X9115Y4882D01*
X9279Y3993D02*
Y4228D01*
X9369Y4318D01*
X9919Y6706D02*
X10009Y6796D01*
X1685Y3900D02*
X2315Y3270D01*
X1685Y3900D02*
Y5381D01*
X10285Y4628D02*
X10297Y4615D01*
X10174Y4628D02*
X10285D01*
X10174Y4506D02*
Y4628D01*
Y4816D01*
X10501Y5299D02*
X10837D01*
X10583Y5045D02*
X10837D01*
X10354Y4816D02*
X10583Y5045D01*
D25*
X4969Y5050D02*
X4986D01*
X4950Y5069D02*
X4969Y5050D01*
X5023Y5216D02*
X5126Y5113D01*
X4721Y5216D02*
X5023D01*
X5126Y4633D02*
Y5113D01*
X3756Y4463D02*
X3868D01*
X3882Y4448D01*
Y4261D02*
Y4448D01*
Y4261D02*
X4070Y4073D01*
X4536D01*
X4513Y3653D02*
X4599Y3739D01*
X4536Y4073D02*
X4599Y4010D01*
Y3739D02*
Y4010D01*
X4646Y3712D02*
X4650Y3715D01*
X4283Y4473D02*
X4650Y4106D01*
Y3715D02*
Y4106D01*
X4646Y3423D02*
Y3712D01*
X4623Y3399D02*
X4646Y3423D01*
X4451Y3399D02*
X4623D01*
X4750D02*
X4931D01*
X4700Y3450D02*
X4750Y3399D01*
X4700Y3450D02*
Y4151D01*
X4676Y4174D02*
X4700Y4151D01*
X4676Y4174D02*
Y4473D01*
X4686Y4483D01*
X4809D01*
X4796Y3653D02*
X4931D01*
X4750Y3699D02*
X4796Y3653D01*
X4750Y3699D02*
Y3997D01*
X4896Y4143D01*
X5026D01*
X5086Y4203D01*
Y4413D01*
X5156Y4483D01*
X5289D01*
Y5150D01*
X5096Y5343D02*
X5289Y5150D01*
X4721Y5343D02*
X5096D01*
X4976Y4483D02*
X5126Y4633D01*
X4809Y4483D02*
X4976D01*
X4986Y4613D02*
X5036Y4663D01*
Y4773D01*
X4847Y4962D02*
X5036Y4773D01*
X4721Y4962D02*
X4847D01*
X4279Y4473D02*
X4283D01*
X4950Y5069D02*
Y5089D01*
X3306Y4763D02*
Y4936D01*
X4721Y5089D02*
X4950D01*
X3035Y4883D02*
X3088Y4936D01*
X3306D01*
X3769Y4503D02*
X3819Y4553D01*
X4283Y4473D02*
X4586D01*
X4726Y4613D01*
X4986D01*
X3819Y4553D02*
X4586D01*
X4721Y4687D01*
Y4835D01*
X9295Y4845D02*
X9310Y4830D01*
X9424Y3866D02*
X9462Y3905D01*
X9279Y3866D02*
X9424D01*
X9462Y3905D02*
Y4660D01*
X9310Y4812D02*
Y4830D01*
Y4812D02*
X9462Y4660D01*
D26*
X2315Y3270D02*
X2397D01*
X1685Y5381D02*
X1774Y5470D01*
D27*
X2895Y3280D02*
Y3558D01*
D28*
X2988Y3800D02*
Y3972D01*
X2795Y3803D02*
Y3972D01*
D29*
X9920Y2900D02*
D03*
X2222Y4080D02*
D03*
Y3826D02*
D03*
X2397Y3270D02*
D03*
X2651D02*
D03*
X2905D02*
D03*
D30*
X10235Y2900D02*
D03*
X9605D02*
D03*
Y2550D02*
D03*
Y2230D02*
D03*
X10235D02*
D03*
D31*
X2040Y5472D02*
D03*
X11091Y4537D02*
D03*
D32*
X1786Y5981D02*
D03*
X2040D02*
D03*
X1786Y5726D02*
D03*
X2040D02*
D03*
X1786Y5472D02*
D03*
X10837Y6315D02*
D03*
X11091D02*
D03*
X10837Y6061D02*
D03*
X11091D02*
D03*
X10837Y5807D02*
D03*
X11091D02*
D03*
X10837Y5553D02*
D03*
X11091D02*
D03*
X10837Y5299D02*
D03*
X11091D02*
D03*
X10837Y5045D02*
D03*
X11091D02*
D03*
X10837Y4791D02*
D03*
X11091D02*
D03*
X10837Y4537D02*
D03*
D33*
X3000Y2700D02*
D03*
X3500D02*
D03*
X4000D02*
D03*
X5600D02*
D03*
X6100D02*
D03*
X6600D02*
D03*
X8100D02*
D03*
X8600D02*
D03*
X9100D02*
D03*
D34*
X2570Y6750D02*
D03*
X5409Y3433D02*
D03*
X9912Y6712D02*
D03*
X6284Y3253D02*
D03*
X4986Y5050D02*
D03*
X4066Y4398D02*
D03*
X3674Y3623D02*
D03*
X5491Y4288D02*
D03*
X5416Y5575D02*
D03*
X8354Y5473D02*
D03*
X8654Y5143D02*
D03*
X9054D02*
D03*
X3306Y4763D02*
D03*
X2956Y5613D02*
D03*
X3686Y6143D02*
D03*
X4940Y6878D02*
D03*
X3746Y5843D02*
D03*
X7664Y3073D02*
D03*
X6264Y5163D02*
D03*
X4006Y5343D02*
D03*
X4546Y4683D02*
D03*
X4296Y4673D02*
D03*
X9964Y5026D02*
D03*
X8564Y6343D02*
D03*
X9324Y4193D02*
D03*
X7424Y4663D02*
D03*
X6244Y4523D02*
D03*
X5416Y6083D02*
D03*
X4216Y5923D02*
D03*
X8884Y5853D02*
D03*
X8480Y3570D02*
D03*
X3470Y3850D02*
D03*
X6495Y5728D02*
D03*
X2683Y4608D02*
D03*
X2988Y4010D02*
D03*
X3117Y6682D02*
D03*
X2460Y6238D02*
D03*
X1940Y4375D02*
D03*
X2105Y6380D02*
D03*
X10297Y4615D02*
D03*
X7779Y3510D02*
D03*
X7290Y4230D02*
D03*
X3728Y3188D02*
D03*
X2445Y5067D02*
D03*
X2092Y4917D02*
D03*
X6060Y3400D02*
D03*
X6522Y3285D02*
D03*
X3563Y6683D02*
D03*
D35*
X2000Y2500D02*
D03*
X11000D02*
D03*
M02*
